{
DisplayStrings = (
"Adhesion\012/knA",
"h/knDA/knVirama/knDA/knLA sg o/knDA/knVirama/knDA/knLA g",
/knA/knAA/knI/knII/knU,
"/knA/knAA/knI/knII/knU \012/knUU/knvR/knvRR/knvL",
"/knA/knAA/knI/knII/knU/knUU/knvR/knvRR/knvL/knvLL/swan/knO/knJA \012/knA/knKHA/knGA/knTTA \012/bum/knE/knEE/knAI/knGHA/knPA/knPHA/knBHA \012/knTTHA/knTHA/knDA/knDHA \012/knYA/knRA/knKA/knLA/knVA",
/knKA/knKHA/knGA/knGHA/knJA/knTTA/knTTHA/knTHA/knDA/knDHA/knPA/knPHA/knBHA/knYA/knRA/knKA/knLA/knVA,
"/knA/knAA/knI/knII/knU/knUU/knvR \012/knvRR/knvL/knvLL/knE/knEE/knAI/knO \012/knKA/knKHA/knGA/knGHA/knNGA/knCA/knCHA/knJA/knJHA \012/knTTA/knTTHA/knDDA/knDDHA/knNNA/knTA/knTHA/knDA/knDHA \012/knNA/knPA/knPHA/knBHA/knMA/knYA/knRA/knLA \012/knVA/knSHA/knSSA/knSA/knHA/knRRA/knLLA/knLLLA/knAnusvara \012/knAU/knmAA/knmI/knmII/knmU/knmUU/knmvR/knmvRR/knmvL/knmvLL/knmE/knmEE/knmAI/knmO/knmOO/knmAU/knLengthmark/knAIlengthmark",
"/knRA/knTTHA/knKA/knJHA/knYA \012/knPA/knPHA/knSSA/knVA/knGHA/knMA \012/knBA/knBHA/knCA/knNGA/knJA \012/knDA/knDHA/knTHA/knDDA/knDDHA \012/knCHA/knTTA/knRRA/knLLLA \012/knNA/knSA/knKHA/knGA/knNNA/knTA \012/knLA/knSHA/knHA/knLLA/kaNYA/knNNA/knDDHA",
/knKHA/knGA/knNNA/knTA
);
classes = (
{
code = knA;
name = default;
},
{
code = knA.calt0;
name = calt0;
},
{
code = knA.calt1;
name = calt1;
},
{
code = knA.calt2;
name = calt2;
},
{
code = knA.calt3;
name = calt3;
},
{
code = knA.calt4;
name = calt4;
}
);
copyright = "Copyright \U00A9 2015 by John-Daniel Harrington  All rights reserved. Copyright \U00A9 2015 by Georg Duffner. All rights reserved. Copyright \U00A9 2015 by Indian Type Foundry. All rights reserved.";
customParameters = (
{
name = glyphOrder;
value = (
    knA,
    knAA,
    knI,
    knII,
    knU,
    knUU,
    knvR,
    knvRR,
    knvL,
    knvLL,
    knE,
    knEE,
    knAI,
    knO,
    knOO,
    knAU,
    knmAA,
    knmI,
    knmII,
    knmU,
    knmUU,
    knmvR,
    knmvRR,
    knmvL,
    knmvLL,
    knmE,
    knmEE,
    knmAI,
    knmO,
    knmOO,
    knmAU,

glyphs = (
{
color = 3;
glyphname = knA;
lastChange = "2015-11-30 15:09:43 +0000";
layers = (
{
layerId = "034236B8-3FA8-43DA-9EDA-EFF269A687EC";
leftMetricsKey = "=knLA";
rightMetricsKey = "=knLA";
name = Regular;
paths = (
{
closed = 1;
nodes = (
"192 455 OFFCURVE",
"205 459 OFFCURVE",
"219 459 CURVE SMOOTH",
"267 459 OFFCURVE",
"292 440 OFFCURVE",
"292 401 CURVE SMOOTH",
"292 375 OFFCURVE",
"273 354 OFFCURVE",
"236 354 CURVE SMOOTH",
"204 354 OFFCURVE",
"177 372 OFFCURVE",
"177 418 CURVE SMOOTH",
"177 429 OFFCURVE",
"178 440 OFFCURVE",
"180 451 CURVE"
);
},
{
closed = 1;
nodes = (
"606 -14 OFFCURVE",
"730 104 OFFCURVE",
"730 283 CURVE SMOOTH",
"730 414 OFFCURVE",
"651 520 OFFCURVE",
"565 520 CURVE SMOOTH",
"495 520 OFFCURVE",
"469 467 OFFCURVE",
"469 405 CURVE SMOOTH",
"469 379 OFFCURVE",
"474 362 OFFCURVE",
"483 354 CURVE",
"388 354 LINE",
"388 283 LINE",
"618 283 LINE",
"618 354 LINE",
"565 354 LINE SMOOTH",
"517 354 OFFCURVE",
"498 375 OFFCURVE",
"498 405 CURVE SMOOTH",
"498 440 OFFCURVE",
"523 459 OFFCURVE",
"565 459 CURVE SMOOTH",
"643 459 OFFCURVE",
"683 389 OFFCURVE",
"683 294 CURVE SMOOTH",
"683 171 OFFCURVE",
"585 71 OFFCURVE",
"395 71 CURVE SMOOTH",
"204 71 OFFCURVE",
"107 171 OFFCURVE",
"107 294 CURVE SMOOTH",
"107 354 OFFCURVE",
"123 400 OFFCURVE",
"150 429 CURVE",
"148 417 OFFCURVE",
"147 405 OFFCURVE",
"147 391 CURVE SMOOTH",
"147 318 OFFCURVE",
"188 283 OFFCURVE",
"236 283 CURVE SMOOTH",
"289 283 OFFCURVE",
"321 336 OFFCURVE",
"321 401 CURVE SMOOTH",
"321 467 OFFCURVE",
"295 519 OFFCURVE",
"225 519 CURVE SMOOTH",
"139 519 OFFCURVE",
"60 414 OFFCURVE",
"60 283 CURVE SMOOTH",
"60 104 OFFCURVE",
"184 -14 OFFCURVE",
"395 -14 CURVE"
);
}
);
width = 780;
}
);
leftMetricsKey = "=knLA";
rightMetricsKey = "=knLA";
unicode = 0C85;
},
{
color = 3;
glyphname = knAA;
lastChange = "2015-11-30 14:34:28 +0000";
layers = (
{
layerId = "034236B8-3FA8-43DA-9EDA-EFF269A687EC";
leftMetricsKey = "=knLA";
rightMetricsKey = "=knLA-20";
name = Regular;
paths = (
{
closed = 1;
nodes = (
"569 519 OFFCURVE",
"517 477 OFFCURVE",
"517 416 CURVE SMOOTH",
"517 328 OFFCURVE",
"623 286 OFFCURVE",
"623 213 CURVE SMOOTH",
"623 126 OFFCURVE",
"519 71 OFFCURVE",
"375 71 CURVE",
"206 71 OFFCURVE",
"107 171 OFFCURVE",
"107 302 CURVE SMOOTH",
"107 354 OFFCURVE",
"123 400 OFFCURVE",
"151 429 CURVE",
"148 417 OFFCURVE",
"147 405 OFFCURVE",
"147 392 CURVE SMOOTH",
"147 318 OFFCURVE",
"188 283 OFFCURVE",
"234 283 CURVE SMOOTH",
"290 283 OFFCURVE",
"322 336 OFFCURVE",
"322 405 CURVE SMOOTH",
"322 467 OFFCURVE",
"295 519 OFFCURVE",
"231 519 CURVE SMOOTH",
"139 519 OFFCURVE",
"60 414 OFFCURVE",
"60 276 CURVE SMOOTH",
"60 104 OFFCURVE",
"184 -14 OFFCURVE",
"385 -14 CURVE",
"539 -14 OFFCURVE",
"677 73 OFFCURVE",
"677 199 CURVE SMOOTH",
"677 314 OFFCURVE",
"563 337 OFFCURVE",
"563 406 CURVE SMOOTH",
"563 440 OFFCURVE",
"590 460 OFFCURVE",
"623 460 CURVE SMOOTH",
"655 460 OFFCURVE",
"677 440 OFFCURVE",
"677 413 CURVE SMOOTH",
"677 383 OFFCURVE",
"650 355 OFFCURVE",
"605 355 CURVE SMOOTH",
"400 355 LINE",
"400 283 LINE",
"572 283 LINE",
"656 283 OFFCURVE",
"712 327 OFFCURVE",
"712 403 CURVE SMOOTH",
"712 471 OFFCURVE",
"670 519 OFFCURVE",
"617 519 CURVE SMOOTH"
);
},
{
closed = 1;
nodes = (
"268 459 OFFCURVE",
"292 440 OFFCURVE",
"292 405 CURVE SMOOTH",
"292 375 OFFCURVE",
"273 354 OFFCURVE",
"238 354 CURVE SMOOTH",
"205 354 OFFCURVE",
"177 372 OFFCURVE",
"177 420 CURVE SMOOTH",
"177 429 OFFCURVE",
"178 440 OFFCURVE",
"180 451 CURVE",
"192 455 OFFCURVE",
"206 459 OFFCURVE",
"224 459 CURVE SMOOTH"
);
}
);
width = 742;
}
);
leftMetricsKey = "=la-kannada";
rightMetricsKey = "=la-kannada";
unicode = 0C86;
},
{
color = 3;
glyphname = knI;
lastChange = "2015-11-30 14:25:47 +0000";
layers = (
{
background = {
paths = (
{
closed = 1;
nodes = (
"563 446 OFFCURVE",
"598 377 OFFCURVE",
"598 285 CURVE",
"598 149 OFFCURVE",
"528 71 OFFCURVE",
"406 71 CURVE",
"347 71 OFFCURVE",
"306 85 OFFCURVE",
"306 124 CURVE SMOOTH",
"306 153 OFFCURVE",
"341 176 OFFCURVE",
"399 176 CURVE SMOOTH",
"534 176 OFFCURVE",
"635 48 OFFCURVE",
"635 -70 CURVE SMOOTH",
"635 -85 OFFCURVE",
"647 -97 OFFCURVE",
"659 -97 CURVE SMOOTH",
"672 -97 OFFCURVE",
"684 -85 OFFCURVE",
"684 -61 CURVE SMOOTH",
"684 30 OFFCURVE",
"578 223 OFFCURVE",
"389 223 CURVE SMOOTH",
"293 223 OFFCURVE",
"233 168 OFFCURVE",
"233 108 CURVE SMOOTH",
"233 38 OFFCURVE",
"308 -14 OFFCURVE",
"398 -14 CURVE SMOOTH",
"543 -14 OFFCURVE",
"647 108 OFFCURVE",
"647 294 CURVE",
"647 430 OFFCURVE",
"596 519 OFFCURVE",
"503 519 CURVE",
"424 519 OFFCURVE",
"366 461 OFFCURVE",
"343 377 CURVE",
"341 377 LINE",
"318 461 OFFCURVE",
"258 519 OFFCURVE",
"181 519 CURVE",
"105 519 OFFCURVE",
"46 456 OFFCURVE",
"46 377 CURVE SMOOTH",
"46 347 OFFCURVE",
"55 321 OFFCURVE",
"76 296 CURVE",
"107 317 LINE",
"101 325 OFFCURVE",
"95 340 OFFCURVE",
"95 354 CURVE SMOOTH",
"95 397 OFFCURVE",
"132 446 OFFCURVE",
"183 446 CURVE",
"258 446 OFFCURVE",
"325 358 OFFCURVE",
"337 283 CURVE",
"347 283 LINE",
"360 358 OFFCURVE",
"424 446 OFFCURVE",
"498 446 CURVE"
);
}
);
};
guideLines = (
{
position = "{14, 368}";
},
{
position = "{42, 444}";
},
{
position = "{62, 71}";
}
);
layerId = "034236B8-3FA8-43DA-9EDA-EFF269A687EC";
rightMetricsKey = "=knLA";
name = Regular;
paths = (
{
closed = 1;
nodes = (
"435 519 OFFCURVE",
"366 461 OFFCURVE",
"343 377 CURVE",
"341 377 LINE",
"318 461 OFFCURVE",
"249 519 OFFCURVE",
"180 519 CURVE",
"104 519 OFFCURVE",
"45 456 OFFCURVE",
"45 377 CURVE SMOOTH",
"45 347 OFFCURVE",
"54 321 OFFCURVE",
"75 296 CURVE",
"106 317 LINE",
"100 325 OFFCURVE",
"94 340 OFFCURVE",
"94 359 CURVE SMOOTH",
"94 401 OFFCURVE",
"122 444 OFFCURVE",
"183 444 CURVE",
"268 444 OFFCURVE",
"324 358 OFFCURVE",
"338 283 CURVE",
"347 283 LINE",
"359 357 OFFCURVE",
"415 446 OFFCURVE",
"499 446 CURVE",
"564 446 OFFCURVE",
"599 377 OFFCURVE",
"599 285 CURVE",
"599 149 OFFCURVE",
"529 71 OFFCURVE",
"407 71 CURVE",
"348 71 OFFCURVE",
"307 85 OFFCURVE",
"307 124 CURVE SMOOTH",
"307 153 OFFCURVE",
"342 176 OFFCURVE",
"400 176 CURVE SMOOTH",
"535 176 OFFCURVE",
"636 48 OFFCURVE",
"636 -70 CURVE SMOOTH",
"636 -85 OFFCURVE",
"648 -97 OFFCURVE",
"660 -97 CURVE SMOOTH",
"673 -97 OFFCURVE",
"685 -85 OFFCURVE",
"685 -61 CURVE SMOOTH",
"685 30 OFFCURVE",
"579 223 OFFCURVE",
"390 223 CURVE SMOOTH",
"294 223 OFFCURVE",
"234 168 OFFCURVE",
"234 108 CURVE SMOOTH",
"234 38 OFFCURVE",
"309 -14 OFFCURVE",
"399 -14 CURVE SMOOTH",
"544 -14 OFFCURVE",
"648 108 OFFCURVE",
"648 294 CURVE",
"648 430 OFFCURVE",
"597 519 OFFCURVE",
"504 519 CURVE"
);
}
);
width = 755;
}
);
rightMetricsKey = "=knLA";
unicode = 0C87;
},
{
color = 3;
glyphname = knII;
lastChange = "2015-11-30 15:09:02 +0000";
layers = (
{
layerId = "034236B8-3FA8-43DA-9EDA-EFF269A687EC";
name = Regular;
paths = (
{
closed = 1;
nodes = (
"817 226 OFFCURVE",
"689 279 OFFCURVE",
"689 363 CURVE SMOOTH",
"689 399 OFFCURVE",
"713 418 OFFCURVE",
"739 418 CURVE SMOOTH",
"767 418 OFFCURVE",
"790 399 OFFCURVE",
"790 362 CURVE SMOOTH",
"790 324 OFFCURVE",
"773 298 OFFCURVE",
"692 298 CURVE SMOOTH",
"45 298 LINE",
"45 239 LINE",
"659 239 LINE SMOOTH",
"784 239 OFFCURVE",
"836 286 OFFCURVE",
"836 369 CURVE",
"836 434 OFFCURVE",
"790 479 OFFCURVE",
"741 479 CURVE SMOOTH",
"685 479 OFFCURVE",
"642 441 OFFCURVE",
"642 379 CURVE SMOOTH",
"642 277 OFFCURVE",
"760 241 OFFCURVE",
"760 140 CURVE",
"761 108 OFFCURVE",
"746 89 OFFCURVE",
"716 79 CURVE SMOOTH",
"697 72 OFFCURVE",
"676 74 OFFCURVE",
"661 69 CURVE SMOOTH",
"644 63 OFFCURVE",
"633 48 OFFCURVE",
"633 30 CURVE SMOOTH",
"633 5 OFFCURVE",
"652 -14 OFFCURVE",
"690 -14 CURVE SMOOTH",
"762 -14 OFFCURVE",
"817 33 OFFCURVE",
"817 111 CURVE"
);
},
{
closed = 1;
nodes = (
"236 478 OFFCURVE",
"115 402 OFFCURVE",
"115 250 CURVE SMOOTH",
"115 99 OFFCURVE",
"206 -14 OFFCURVE",
"345 -14 CURVE",
"484 -14 OFFCURVE",
"575 99 OFFCURVE",
"575 250 CURVE SMOOTH",
"575 402 OFFCURVE",
"454 478 OFFCURVE",
"345 478 CURVE"
);
},
{
closed = 1;
nodes = (
"446 443 OFFCURVE",
"521 360 OFFCURVE",
"521 261 CURVE SMOOTH",
"521 151 OFFCURVE",
"446 71 OFFCURVE",
"345 71 CURVE",
"244 71 OFFCURVE",
"169 151 OFFCURVE",
"169 261 CURVE SMOOTH",
"169 360 OFFCURVE",
"244 443 OFFCURVE",
"345 443 CURVE"
);
},
{
closed = 1;
nodes = (
"490 644 LINE",
"514 635 OFFCURVE",
"536 610 OFFCURVE",
"536 576 CURVE SMOOTH",
"536 536 OFFCURVE",
"505 509 OFFCURVE",
"444 509 CURVE SMOOTH",
"115 509 LINE",
"115 434 LINE",
"235 434 LINE",
"345 444 LINE",
"444 434 LINE",
"525 434 OFFCURVE",
"579 480 OFFCURVE",
"579 552 CURVE SMOOTH",
"579 607 OFFCURVE",
"548 648 OFFCURVE",
"505 664 CURVE"
);
}
);
width = 896;
},
{
associatedMasterId = "034236B8-3FA8-43DA-9EDA-EFF269A687EC";
layerId = "3DA93FC8-5D78-4078-9953-D9D244ADBC50";
name = "Regular Nov 17 15, 18:00";
paths = (
{
closed = 1;
nodes = (
"262 404 OFFCURVE",
"230 393 OFFCURVE",
"202 378 CURVE SMOOTH",
"138 345 OFFCURVE",
"98 283 OFFCURVE",
"98 206 CURVE SMOOTH",
"98 84 OFFCURVE",
"187 -14 OFFCURVE",
"298 -14 CURVE",
"409 -14 OFFCURVE",
"498 84 OFFCURVE",
"498 206 CURVE SMOOTH",
"498 283 OFFCURVE",
"458 345 OFFCURVE",
"394 378 CURVE SMOOTH",
"366 393 OFFCURVE",
"334 404 OFFCURVE",
"298 404 CURVE"
);
},
{
closed = 1;
nodes = (
"386 378 OFFCURVE",
"451 313 OFFCURVE",
"451 230 CURVE SMOOTH",
"451 143 OFFCURVE",
"386 76 OFFCURVE",
"298 76 CURVE",
"210 76 OFFCURVE",
"145 143 OFFCURVE",
"145 230 CURVE SMOOTH",
"145 313 OFFCURVE",
"210 378 OFFCURVE",
"298 378 CURVE"
);
},
{
closed = 1;
nodes = (
"427 567 LINE",
"451 552 OFFCURVE",
"459 530 OFFCURVE",
"459 511 CURVE SMOOTH",
"459 475 OFFCURVE",
"432 450 OFFCURVE",
"387 450 CURVE SMOOTH",
"96 450 LINE",
"96 378 LINE",
"387 378 LINE SMOOTH",
"456 378 OFFCURVE",
"505 426 OFFCURVE",
"505 486 CURVE SMOOTH",
"505 525 OFFCURVE",
"485 561 OFFCURVE",
"440 585 CURVE"
);
},
{
closed = 1;
nodes = (
"708 215 OFFCURVE",
"597 251 OFFCURVE",
"597 317 CURVE SMOOTH",
"597 345 OFFCURVE",
"618 362 OFFCURVE",
"639 362 CURVE SMOOTH",
"665 362 OFFCURVE",
"685 344 OFFCURVE",
"685 318 CURVE SMOOTH",
"685 262 OFFCURVE",
"625 254 OFFCURVE",
"545 255 CURVE SMOOTH",
"37 259 LINE",
"37 206 LINE",
"571 206 LINE SMOOTH",
"680 206 OFFCURVE",
"725 247 OFFCURVE",
"725 319 CURVE",
"725 383 OFFCURVE",
"684 415 OFFCURVE",
"640 415 CURVE SMOOTH",
"594 415 OFFCURVE",
"556 372 OFFCURVE",
"556 322 CURVE SMOOTH",
"556 229 OFFCURVE",
"659 208 OFFCURVE",
"659 131 CURVE",
"660 102 OFFCURVE",
"647 76 OFFCURVE",
"621 67 CURVE SMOOTH",
"604 61 OFFCURVE",
"588 63 OFFCURVE",
"572 58 CURVE SMOOTH",
"558 54 OFFCURVE",
"548 40 OFFCURVE",
"548 23 CURVE SMOOTH",
"548 3 OFFCURVE",
"565 -14 OFFCURVE",
"596 -14 CURVE SMOOTH",
"661 -14 OFFCURVE",
"708 47 OFFCURVE",
"708 113 CURVE"
);
}
);
width = 772;
}
);
unicode = 0C88;
},
{
color = 3;
glyphname = knU;
lastChange = "2015-11-30 14:33:53 +0000";
layers = (
{
layerId = "034236B8-3FA8-43DA-9EDA-EFF269A687EC";
leftMetricsKey = "=knLA";
rightMetricsKey = "=knA";
name = Regular;
paths = (
{
closed = 1;
nodes = (
"876 71 OFFCURVE",
"930 123 OFFCURVE",
"930 253 CURVE",
"930 365 OFFCURVE",
"891 414 OFFCURVE",
"854 426 CURVE SMOOTH",
"830 434 OFFCURVE",
"821 430 OFFCURVE",
"798 436 CURVE SMOOTH",
"781 441 OFFCURVE",
"770 457 OFFCURVE",
"770 477 CURVE SMOOTH",
"770 500 OFFCURVE",
"789 519 OFFCURVE",
"825 519 CURVE SMOOTH",
"900 519 OFFCURVE",
"977 439 OFFCURVE",
"977 283 CURVE",
"977 113 OFFCURVE",
"893 -14 OFFCURVE",
"786 -14 CURVE",
"685 -14 OFFCURVE",
"634 65 OFFCURVE",
"634 150 CURVE SMOOTH",
"634 220 OFFCURVE",
"639 276 OFFCURVE",
"639 339 CURVE SMOOTH",
"639 406 OFFCURVE",
"609 454 OFFCURVE",
"555 454 CURVE",
"496 454 OFFCURVE",
"469 396 OFFCURVE",
"469 339 CURVE SMOOTH",
"469 284 OFFCURVE",
"481 229 OFFCURVE",
"481 150 CURVE SMOOTH",
"481 42 OFFCURVE",
"401 -14 OFFCURVE",
"293 -14 CURVE",
"167 -14 OFFCURVE",
"60 107 OFFCURVE",
"60 283 CURVE",
"60 414 OFFCURVE",
"132 519 OFFCURVE",
"234 519 CURVE SMOOTH",
"305 519 OFFCURVE",
"341 457 OFFCURVE",
"341 391 CURVE SMOOTH",
"341 325 OFFCURVE",
"299 273 OFFCURVE",
"236 273 CURVE SMOOTH",
"178 273 OFFCURVE",
"136 308 OFFCURVE",
"136 381 CURVE SMOOTH",
"136 394 OFFCURVE",
"137 407 OFFCURVE",
"140 429 CURVE",
"161 497 LINE",
"176 501 OFFCURVE",
"181 475 OFFCURVE",
"170 450 CURVE",
"167 440 OFFCURVE",
"166 419 OFFCURVE",
"166 408 CURVE SMOOTH",
"166 362 OFFCURVE",
"194 344 OFFCURVE",
"236 344 CURVE SMOOTH",
"283 344 OFFCURVE",
"311 365 OFFCURVE",
"311 401 CURVE SMOOTH",
"311 440 OFFCURVE",
"277 459 OFFCURVE",
"239 459 CURVE SMOOTH",
"146 459 OFFCURVE",
"108 407 OFFCURVE",
"108 294 CURVE",
"108 218 OFFCURVE",
"159 71 OFFCURVE",
"305 71 CURVE SMOOTH",
"383 71 OFFCURVE",
"440 118 OFFCURVE",
"440 189 CURVE SMOOTH",
"440 256 OFFCURVE",
"423 312 OFFCURVE",
"423 368 CURVE SMOOTH",
"423 453 OFFCURVE",
"473 519 OFFCURVE",
"560 519 CURVE",
"641 519 OFFCURVE",
"685 453 OFFCURVE",
"685 375 CURVE SMOOTH",
"685 312 OFFCURVE",
"676 256 OFFCURVE",
"676 206 CURVE SMOOTH",
"676 138 OFFCURVE",
"717 71 OFFCURVE",
"790 71 CURVE"
);
}
);
width = 1027;
}
);
leftMetricsKey = "=knLA";
rightMetricsKey = "=knLA";
unicode = 0C89;
},
{
color = 3;
glyphname = knUU;
lastChange = "2015-11-30 19:01:01 +0000";
layers = (
{
annotations = (
{
position = "{-9223372036854775808, 404}";
type = Minus;
}
);
background = {
paths = (
{
closed = 1;
nodes = (
"192 455 OFFCURVE",
"205 459 OFFCURVE",
"219 459 CURVE SMOOTH",
"267 459 OFFCURVE",
"292 440 OFFCURVE",
"292 401 CURVE SMOOTH",
"292 375 OFFCURVE",
"273 354 OFFCURVE",
"236 354 CURVE SMOOTH",
"204 354 OFFCURVE",
"177 372 OFFCURVE",
"177 418 CURVE SMOOTH",
"177 429 OFFCURVE",
"178 440 OFFCURVE",
"180 451 CURVE"
);
},
{
closed = 0;
nodes = (
"107 294 LINE SMOOTH",
"107 354 OFFCURVE",
"123 400 OFFCURVE",
"150 429 CURVE",
"148 417 OFFCURVE",
"147 405 OFFCURVE",
"147 391 CURVE SMOOTH",
"147 318 OFFCURVE",
"188 283 OFFCURVE",
"236 283 CURVE SMOOTH",
"289 283 OFFCURVE",
"321 336 OFFCURVE",
"321 401 CURVE SMOOTH",
"321 467 OFFCURVE",
"295 520 OFFCURVE",
"225 520 CURVE SMOOTH",
"139 520 OFFCURVE",
"60 414 OFFCURVE",
"60 283 CURVE SMOOTH"
);
}
);
};
layerId = "034236B8-3FA8-43DA-9EDA-EFF269A687EC";
leftMetricsKey = "=knA";
rightMetricsKey = "=knA";
name = Regular;
paths = (
{
closed = 1;
nodes = (
"167 440 OFFCURVE",
"166 419 OFFCURVE",
"166 408 CURVE SMOOTH",
"166 362 OFFCURVE",
"194 344 OFFCURVE",
"236 344 CURVE SMOOTH",
"283 344 OFFCURVE",
"311 365 OFFCURVE",
"311 401 CURVE SMOOTH",
"311 440 OFFCURVE",
"277 454 OFFCURVE",
"239 454 CURVE",
"146 454 OFFCURVE",
"108 407 OFFCURVE",
"108 294 CURVE",
"108 218 OFFCURVE",
"159 71 OFFCURVE",
"285 71 CURVE SMOOTH",
"373 71 OFFCURVE",
"430 118 OFFCURVE",
"430 189 CURVE SMOOTH",
"430 256 OFFCURVE",
"413 312 OFFCURVE",
"413 368 CURVE SMOOTH",
"413 453 OFFCURVE",
"463 519 OFFCURVE",
"550 519 CURVE",
"631 519 OFFCURVE",
"675 453 OFFCURVE",
"675 375 CURVE SMOOTH",
"675 312 OFFCURVE",
"666 256 OFFCURVE",
"666 206 CURVE SMOOTH",
"666 138 OFFCURVE",
"687 71 OFFCURVE",
"770 71 CURVE SMOOTH",
"853 71 OFFCURVE",
"869 177 OFFCURVE",
"869 293 CURVE",
"869 456 OFFCURVE",
"967 519 OFFCURVE",
"1060 519 CURVE",
"1177 519 OFFCURVE",
"1291 438 OFFCURVE",
"1291 252 CURVE SMOOTH",
"1291 77 OFFCURVE",
"1212 -14 OFFCURVE",
"1113 -14 CURVE SMOOTH",
"1052 -14 OFFCURVE",
"1001 36 OFFCURVE",
"1001 99 CURVE",
"1001 153 OFFCURVE",
"1031 206 OFFCURVE",
"1091 206 CURVE SMOOTH",
"1134 206 OFFCURVE",
"1159 176 OFFCURVE",
"1159 149 CURVE SMOOTH",
"1159 120 OFFCURVE",
"1138 97 OFFCURVE",
"1110 97 CURVE SMOOTH",
"1083 97 OFFCURVE",
"1065 118 OFFCURVE",
"1065 148 CURVE SMOOTH",
"1065 154 OFFCURVE",
"1064 155 OFFCURVE",
"1062 155 CURVE SMOOTH",
"1049 155 OFFCURVE",
"1042 132 OFFCURVE",
"1042 116 CURVE",
"1042 79 OFFCURVE",
"1077 50 OFFCURVE",
"1120 50 CURVE SMOOTH",
"1202 50 OFFCURVE",
"1249 125 OFFCURVE",
"1249 217 CURVE SMOOTH",
"1249 373 OFFCURVE",
"1164 454 OFFCURVE",
"1071 454 CURVE SMOOTH",
"986 454 OFFCURVE",
"916 416 OFFCURVE",
"916 294 CURVE",
"916 103 OFFCURVE",
"890 -14 OFFCURVE",
"763 -14 CURVE SMOOTH",
"665 -14 OFFCURVE",
"624 65 OFFCURVE",
"624 150 CURVE SMOOTH",
"624 220 OFFCURVE",
"629 276 OFFCURVE",
"629 339 CURVE SMOOTH",
"629 406 OFFCURVE",
"599 454 OFFCURVE",
"545 454 CURVE",
"486 454 OFFCURVE",
"459 396 OFFCURVE",
"459 339 CURVE SMOOTH",
"459 284 OFFCURVE",
"471 229 OFFCURVE",
"471 150 CURVE SMOOTH",
"471 42 OFFCURVE",
"401 -14 OFFCURVE",
"293 -14 CURVE",
"167 -14 OFFCURVE",
"60 107 OFFCURVE",
"60 283 CURVE",
"60 414 OFFCURVE",
"132 519 OFFCURVE",
"234 519 CURVE SMOOTH",
"305 519 OFFCURVE",
"341 457 OFFCURVE",
"341 391 CURVE SMOOTH",
"341 325 OFFCURVE",
"299 273 OFFCURVE",
"236 273 CURVE SMOOTH",
"178 273 OFFCURVE",
"136 308 OFFCURVE",
"136 381 CURVE SMOOTH",
"136 394 OFFCURVE",
"137 407 OFFCURVE",
"140 429 CURVE",
"161 497 LINE",
"176 501 OFFCURVE",
"181 475 OFFCURVE",
"170 450 CURVE"
);
}
);
width = 1341;
}
);
leftMetricsKey = "=knA";
rightMetricsKey = "=knA";
unicode = 0C8A;
},
{
color = 3;
glyphname = knvR;
lastChange = "2015-11-28 18:18:57 +0000";
layers = (
{
background = {
paths = (
{
closed = 1;
nodes = (
"654 643 LINE",
"682 625 OFFCURVE",
"691 600 OFFCURVE",
"691 578 CURVE SMOOTH",
"691 537 OFFCURVE",
"660 508 OFFCURVE",
"608 508 CURVE SMOOTH",
"415 508 LINE",
"415 425 LINE",
"608 425 LINE SMOOTH",
"688 425 OFFCURVE",
"744 480 OFFCURVE",
"744 549 CURVE SMOOTH",
"744 594 OFFCURVE",
"721 636 OFFCURVE",
"669 663 CURVE"
);
}
);
};
layerId = "034236B8-3FA8-43DA-9EDA-EFF269A687EC";
rightMetricsKey = "=knA";
name = Regular;
paths = (
{
closed = 1;
nodes = (
"813 519 OFFCURVE",
"794 500 OFFCURVE",
"794 482 CURVE SMOOTH",
"794 465 OFFCURVE",
"804 455 OFFCURVE",
"818 448 CURVE SMOOTH",
"833 440 OFFCURVE",
"856 444 OFFCURVE",
"888 437 CURVE SMOOTH",
"949 425 OFFCURVE",
"1008 351 OFFCURVE",
"1008 247 CURVE",
"1008 138 OFFCURVE",
"939 71 OFFCURVE",
"853 71 CURVE",
"766 71 OFFCURVE",
"717 145 OFFCURVE",
"697 189 CURVE",
"673 119 LINE",
"705 62 OFFCURVE",
"770 -14 OFFCURVE",
"865 -14 CURVE",
"990 -14 OFFCURVE",
"1049 109 OFFCURVE",
"1049 235 CURVE",
"1049 392 OFFCURVE",
"935 519 OFFCURVE",
"849 519 CURVE SMOOTH"
);
},
{
closed = 1;
nodes = (
"96 519 OFFCURVE",
"60 457 OFFCURVE",
"60 391 CURVE SMOOTH",
"60 325 OFFCURVE",
"102 283 OFFCURVE",
"165 283 CURVE SMOOTH",
"223 283 OFFCURVE",
"265 308 OFFCURVE",
"265 381 CURVE SMOOTH",
"265 394 OFFCURVE",
"264 407 OFFCURVE",
"261 429 CURVE",
"231 450 LINE",
"234 440 OFFCURVE",
"235 419 OFFCURVE",
"235 408 CURVE SMOOTH",
"235 362 OFFCURVE",
"207 354 OFFCURVE",
"165 354 CURVE SMOOTH",
"118 354 OFFCURVE",
"90 375 OFFCURVE",
"90 407 CURVE SMOOTH",
"90 440 OFFCURVE",
"119 454 OFFCURVE",
"157 454 CURVE",
"239 454 OFFCURVE",
"324 361 OFFCURVE",
"324 248 CURVE",
"324 100 OFFCURVE",
"239 51 OFFCURVE",
"161 51 CURVE",
"120 51 OFFCURVE",
"90 65 OFFCURVE",
"90 96 CURVE SMOOTH",
"90 130 OFFCURVE",
"118 151 OFFCURVE",
"165 151 CURVE SMOOTH",
"207 151 OFFCURVE",
"235 132 OFFCURVE",
"235 97 CURVE SMOOTH",
"235 86 OFFCURVE",
"233 67 OFFCURVE",
"225 55 CURVE",
"257 70 LINE",
"263 87 OFFCURVE",
"265 111 OFFCURVE",
"265 124 CURVE SMOOTH",
"265 197 OFFCURVE",
"225 222 OFFCURVE",
"165 222 CURVE SMOOTH",
"102 222 OFFCURVE",
"60 180 OFFCURVE",
"60 114 CURVE SMOOTH",
"60 48 OFFCURVE",
"96 -14 OFFCURVE",
"167 -14 CURVE",
"260 -14 OFFCURVE",
"366 77 OFFCURVE",
"366 240 CURVE",
"366 416 OFFCURVE",
"260 519 OFFCURVE",
"167 519 CURVE"
);
},
{
closed = 1;
nodes = (
"475 508 OFFCURVE",
"456 488 OFFCURVE",
"456 465 CURVE SMOOTH",
"456 442 OFFCURVE",
"467 434 OFFCURVE",
"497 434 CURVE",
"596 434 OFFCURVE",
"669 358 OFFCURVE",
"669 247 CURVE SMOOTH",
"669 158 OFFCURVE",
"600 71 OFFCURVE",
"515 71 CURVE",
"428 71 OFFCURVE",
"379 145 OFFCURVE",
"359 189 CURVE",
"335 119 LINE",
"367 62 OFFCURVE",
"432 -14 OFFCURVE",
"527 -14 CURVE",
"652 -14 OFFCURVE",
"711 109 OFFCURVE",
"711 235 CURVE SMOOTH",
"711 392 OFFCURVE",
"597 508 OFFCURVE",
"511 508 CURVE SMOOTH"
);
},
{
closed = 1;
nodes = (
"641 644 LINE",
"665 635 OFFCURVE",
"687 610 OFFCURVE",
"687 576 CURVE SMOOTH",
"687 536 OFFCURVE",
"656 509 OFFCURVE",
"595 509 CURVE SMOOTH",
"404 509 LINE",
"404 434 LINE",
"595 434 LINE SMOOTH",
"676 434 OFFCURVE",
"730 480 OFFCURVE",
"730 552 CURVE SMOOTH",
"730 607 OFFCURVE",
"699 648 OFFCURVE",
"656 664 CURVE"
);
}
);
width = 1099;
},
{
associatedMasterId = "034236B8-3FA8-43DA-9EDA-EFF269A687EC";
background = {
paths = (
{
closed = 1;
nodes = (
"383 339 OFFCURVE",
"284 450 OFFCURVE",
"209 450 CURVE SMOOTH",
"178 450 OFFCURVE",
"161 433 OFFCURVE",
"161 413 CURVE SMOOTH",
"161 393 OFFCURVE",
"171 378 OFFCURVE",
"197 378 CURVE",
"283 362 OFFCURVE",
"347 292 OFFCURVE",
"347 213 CURVE SMOOTH",
"347 136 OFFCURVE",
"287 79 OFFCURVE",
"213 79 CURVE",
"154 79 OFFCURVE",
"94 124 OFFCURVE",
"77 163 CURVE",
"56 102 LINE",
"84 52 OFFCURVE",
"158 -14 OFFCURVE",
"223 -14 CURVE",
"332 -14 OFFCURVE",
"383 93 OFFCURVE",
"383 203 CURVE SMOOTH"
);
}
);
};
layerId = "CC23B812-8F97-44EF-8D0E-01E21B7BC2CA";
name = "Regular Nov 3 15, 12:19";
paths = (
{
closed = 1;
nodes = (
"574 567 LINE",
"598 552 OFFCURVE",
"606 530 OFFCURVE",
"606 511 CURVE SMOOTH",
"606 475 OFFCURVE",
"579 450 OFFCURVE",
"534 450 CURVE SMOOTH",
"366 450 LINE",
"366 378 LINE",
"534 378 LINE SMOOTH",
"603 378 OFFCURVE",
"652 426 OFFCURVE",
"652 486 CURVE SMOOTH",
"652 525 OFFCURVE",
"632 561 OFFCURVE",
"587 585 CURVE"
);
},
{
closed = 1;
nodes = (
"623 339 OFFCURVE",
"524 450 OFFCURVE",
"449 450 CURVE SMOOTH",
"418 450 OFFCURVE",
"401 433 OFFCURVE",
"401 413 CURVE SMOOTH",
"401 393 OFFCURVE",
"411 378 OFFCURVE",
"437 378 CURVE",
"523 362 OFFCURVE",
"587 292 OFFCURVE",
"587 213 CURVE SMOOTH",
"587 136 OFFCURVE",
"527 79 OFFCURVE",
"453 79 CURVE",
"394 79 OFFCURVE",
"334 124 OFFCURVE",
"317 163 CURVE",
"296 102 LINE",
"324 52 OFFCURVE",
"398 -14 OFFCURVE",
"463 -14 CURVE",
"572 -14 OFFCURVE",
"623 93 OFFCURVE",
"623 203 CURVE SMOOTH"
);
},
{
closed = 1;
nodes = (
"917 339 OFFCURVE",
"818 450 OFFCURVE",
"743 450 CURVE SMOOTH",
"712 450 OFFCURVE",
"695 433 OFFCURVE",
"695 413 CURVE SMOOTH",
"695 398 OFFCURVE",
"704 385 OFFCURVE",
"716 379 CURVE SMOOTH",
"729 372 OFFCURVE",
"749 376 OFFCURVE",
"777 370 CURVE SMOOTH",
"830 359 OFFCURVE",
"881 286 OFFCURVE",
"881 213 CURVE",
"881 136 OFFCURVE",
"821 79 OFFCURVE",
"747 79 CURVE",
"688 79 OFFCURVE",
"628 124 OFFCURVE",
"611 163 CURVE",
"590 102 LINE",
"618 52 OFFCURVE",
"692 -14 OFFCURVE",
"757 -14 CURVE",
"866 -14 OFFCURVE",
"917 93 OFFCURVE",
"917 203 CURVE"
);
},
{
closed = 1;
nodes = (
"323 343 OFFCURVE",
"231 450 OFFCURVE",
"150 450 CURVE SMOOTH",
"89 450 OFFCURVE",
"66 404 OFFCURVE",
"66 347 CURVE SMOOTH",
"66 290 OFFCURVE",
"94 244 OFFCURVE",
"140 244 CURVE SMOOTH",
"182 244 OFFCURVE",
"218 275 OFFCURVE",
"218 338 CURVE SMOOTH",
"218 370 OFFCURVE",
"211 398 OFFCURVE",
"200 417 CURVE",
"179 413 LINE",
"188 403 OFFCURVE",
"192 382 OFFCURVE",
"192 362 CURVE SMOOTH",
"192 322 OFFCURVE",
"168 306 OFFCURVE",
"140 306 CURVE SMOOTH",
"108 306 OFFCURVE",
"92 324 OFFCURVE",
"92 347 CURVE SMOOTH",
"92 381 OFFCURVE",
"113 397 OFFCURVE",
"155 397 CURVE SMOOTH",
"222 397 OFFCURVE",
"287 295 OFFCURVE",
"287 214 CURVE",
"287 111 OFFCURVE",
"222 39 OFFCURVE",
"155 39 CURVE SMOOTH",
"113 39 OFFCURVE",
"92 55 OFFCURVE",
"92 89 CURVE SMOOTH",
"92 112 OFFCURVE",
"108 130 OFFCURVE",
"140 130 CURVE SMOOTH",
"168 130 OFFCURVE",
"192 114 OFFCURVE",
"192 74 CURVE SMOOTH",
"192 54 OFFCURVE",
"188 33 OFFCURVE",
"179 23 CURVE",
"200 19 LINE",
"211 38 OFFCURVE",
"218 66 OFFCURVE",
"218 98 CURVE SMOOTH",
"218 161 OFFCURVE",
"182 192 OFFCURVE",
"140 192 CURVE SMOOTH",
"94 192 OFFCURVE",
"66 146 OFFCURVE",
"66 89 CURVE SMOOTH",
"66 32 OFFCURVE",
"89 -14 OFFCURVE",
"150 -14 CURVE SMOOTH",
"231 -14 OFFCURVE",
"323 91 OFFCURVE",
"323 207 CURVE"
);
}
);
width = 962;
}
);
rightMetricsKey = "=knA";
unicode = 0C8B;
},
{
color = 3;
glyphname = knvRR;
lastChange = "2015-11-30 19:01:20 +0000";
layers = (
{
layerId = "034236B8-3FA8-43DA-9EDA-EFF269A687EC";
rightMetricsKey = "=knA";
name = Regular;
paths = (
{
closed = 1;
nodes = (
"1059 519 OFFCURVE",
"961 456 OFFCURVE",
"961 273 CURVE SMOOTH",
"961 117 OFFCURVE",
"925 71 OFFCURVE",
"852 71 CURVE SMOOTH",
"784 71 OFFCURVE",
"725 145 OFFCURVE",
"706 189 CURVE",
"682 119 LINE",
"714 62 OFFCURVE",
"800 -14 OFFCURVE",
"874 -14 CURVE SMOOTH",
"983 -14 OFFCURVE",
"1008 103 OFFCURVE",
"1008 274 CURVE SMOOTH",
"1008 416 OFFCURVE",
"1078 454 OFFCURVE",
"1163 454 CURVE SMOOTH",
"1256 454 OFFCURVE",
"1341 373 OFFCURVE",
"1341 217 CURVE SMOOTH",
"1341 125 OFFCURVE",
"1294 50 OFFCURVE",
"1212 50 CURVE SMOOTH",
"1169 50 OFFCURVE",
"1134 79 OFFCURVE",
"1134 116 CURVE",
"1134 132 OFFCURVE",
"1141 155 OFFCURVE",
"1154 155 CURVE SMOOTH",
"1156 155 OFFCURVE",
"1157 154 OFFCURVE",
"1157 148 CURVE SMOOTH",
"1157 118 OFFCURVE",
"1175 97 OFFCURVE",
"1202 97 CURVE SMOOTH",
"1230 97 OFFCURVE",
"1251 120 OFFCURVE",
"1251 149 CURVE SMOOTH",
"1251 176 OFFCURVE",
"1226 206 OFFCURVE",
"1183 206 CURVE SMOOTH",
"1123 206 OFFCURVE",
"1093 153 OFFCURVE",
"1093 99 CURVE",
"1093 36 OFFCURVE",
"1144 -14 OFFCURVE",
"1205 -14 CURVE SMOOTH",
"1304 -14 OFFCURVE",
"1383 77 OFFCURVE",
"1383 252 CURVE SMOOTH",
"1383 438 OFFCURVE",
"1269 519 OFFCURVE",
"1152 519 CURVE"
);
},
{
closed = 1;
nodes = (
"96 519 OFFCURVE",
"60 457 OFFCURVE",
"60 391 CURVE SMOOTH",
"60 325 OFFCURVE",
"102 283 OFFCURVE",
"165 283 CURVE SMOOTH",
"223 283 OFFCURVE",
"265 308 OFFCURVE",
"265 381 CURVE SMOOTH",
"265 394 OFFCURVE",
"264 407 OFFCURVE",
"261 429 CURVE",
"231 450 LINE",
"234 440 OFFCURVE",
"235 419 OFFCURVE",
"235 408 CURVE SMOOTH",
"235 362 OFFCURVE",
"207 354 OFFCURVE",
"165 354 CURVE SMOOTH",
"118 354 OFFCURVE",
"90 375 OFFCURVE",
"90 407 CURVE SMOOTH",
"90 440 OFFCURVE",
"119 454 OFFCURVE",
"157 454 CURVE",
"239 454 OFFCURVE",
"324 361 OFFCURVE",
"324 248 CURVE",
"324 100 OFFCURVE",
"239 51 OFFCURVE",
"161 51 CURVE",
"120 51 OFFCURVE",
"90 65 OFFCURVE",
"90 96 CURVE SMOOTH",
"90 130 OFFCURVE",
"118 151 OFFCURVE",
"165 151 CURVE SMOOTH",
"207 151 OFFCURVE",
"235 132 OFFCURVE",
"235 97 CURVE SMOOTH",
"235 86 OFFCURVE",
"233 67 OFFCURVE",
"225 55 CURVE",
"257 70 LINE",
"263 87 OFFCURVE",
"265 111 OFFCURVE",
"265 124 CURVE SMOOTH",
"265 197 OFFCURVE",
"225 222 OFFCURVE",
"165 222 CURVE SMOOTH",
"102 222 OFFCURVE",
"60 180 OFFCURVE",
"60 114 CURVE SMOOTH",
"60 48 OFFCURVE",
"96 -14 OFFCURVE",
"167 -14 CURVE",
"260 -14 OFFCURVE",
"366 77 OFFCURVE",
"366 240 CURVE",
"366 416 OFFCURVE",
"260 519 OFFCURVE",
"167 519 CURVE"
);
},
{
closed = 1;
nodes = (
"475 508 OFFCURVE",
"456 488 OFFCURVE",
"456 465 CURVE SMOOTH",
"456 442 OFFCURVE",
"467 434 OFFCURVE",
"497 434 CURVE",
"596 434 OFFCURVE",
"669 358 OFFCURVE",
"669 247 CURVE SMOOTH",
"669 158 OFFCURVE",
"600 71 OFFCURVE",
"515 71 CURVE SMOOTH",
"428 71 OFFCURVE",
"379 145 OFFCURVE",
"359 189 CURVE",
"335 119 LINE",
"367 62 OFFCURVE",
"432 -14 OFFCURVE",
"527 -14 CURVE SMOOTH",
"652 -14 OFFCURVE",
"711 109 OFFCURVE",
"711 235 CURVE SMOOTH",
"711 392 OFFCURVE",
"597 508 OFFCURVE",
"511 508 CURVE SMOOTH"
);
},
{
closed = 1;
nodes = (
"641 644 LINE",
"665 635 OFFCURVE",
"687 610 OFFCURVE",
"687 576 CURVE SMOOTH",
"687 536 OFFCURVE",
"656 509 OFFCURVE",
"595 509 CURVE SMOOTH",
"404 509 LINE",
"404 434 LINE",
"595 434 LINE SMOOTH",
"676 434 OFFCURVE",
"730 480 OFFCURVE",
"730 552 CURVE SMOOTH",
"730 607 OFFCURVE",
"699 648 OFFCURVE",
"656 664 CURVE"
);
}
);
width = 1433;
}
);
rightMetricsKey = "=knA";
unicode = 0CE0;
},
{
color = 3;
glyphname = knvL;
lastChange = "2015-11-30 14:37:17 +0000";
layers = (
{
background = {
paths = (
{
closed = 1;
nodes = (
"638 242 LINE",
"658 254 LINE",
"658 391 OFFCURVE",
"597 519 OFFCURVE",
"484 519 CURVE SMOOTH",
"415 519 OFFCURVE",
"347 461 OFFCURVE",
"324 377 CURVE",
"322 377 LINE",
"299 461 OFFCURVE",
"230 519 OFFCURVE",
"161 519 CURVE",
"72 519 OFFCURVE",
"10 431 OFFCURVE",
"10 350 CURVE",
"41 330 LINE",
"58 377 OFFCURVE",
"84 444 OFFCURVE",
"164 444 CURVE SMOOTH",
"249 444 OFFCURVE",
"305 358 OFFCURVE",
"319 283 CURVE",
"328 283 LINE",
"340 357 OFFCURVE",
"396 444 OFFCURVE",
"480 444 CURVE SMOOTH",
"569 444 OFFCURVE",
"616 370 OFFCURVE",
"616 254 CURVE"
);
}
);
};
guideLines = (
{
position = "{55, 453}";
}
);
layerId = "034236B8-3FA8-43DA-9EDA-EFF269A687EC";
rightMetricsKey = "=knA";
name = Regular;
paths = (
{
closed = 1;
nodes = (
"916 372 OFFCURVE",
"813 509 OFFCURVE",
"726 509 CURVE SMOOTH",
"691 509 OFFCURVE",
"671 496 OFFCURVE",
"671 473 CURVE SMOOTH",
"671 456 OFFCURVE",
"682 444 OFFCURVE",
"695 437 CURVE SMOOTH",
"710 429 OFFCURVE",
"733 435 OFFCURVE",
"766 427 CURVE SMOOTH",
"815 414 OFFCURVE",
"874 306 OFFCURVE",
"874 215 CURVE",
"874 135 OFFCURVE",
"816 71 OFFCURVE",
"728 71 CURVE SMOOTH",
"559 71 LINE SMOOTH",
"496 71 OFFCURVE",
"464 113 OFFCURVE",
"464 155 CURVE SMOOTH",
"464 236 OFFCURVE",
"607 252 OFFCURVE",
"607 371 CURVE SMOOTH",
"607 461 OFFCURVE",
"548 519 OFFCURVE",
"484 519 CURVE SMOOTH",
"415 519 OFFCURVE",
"347 461 OFFCURVE",
"324 377 CURVE",
"322 377 LINE",
"299 461 OFFCURVE",
"230 519 OFFCURVE",
"161 519 CURVE SMOOTH",
"85 519 OFFCURVE",
"26 456 OFFCURVE",
"26 377 CURVE SMOOTH",
"26 347 OFFCURVE",
"34 321 OFFCURVE",
"56 296 CURVE",
"87 317 LINE",
"80 325 OFFCURVE",
"74 340 OFFCURVE",
"74 354 CURVE SMOOTH",
"74 392 OFFCURVE",
"105 444 OFFCURVE",
"164 444 CURVE SMOOTH",
"249 444 OFFCURVE",
"304 358 OFFCURVE",
"318 283 CURVE",
"327 283 LINE",
"340 358 OFFCURVE",
"396 444 OFFCURVE",
"479 444 CURVE SMOOTH",
"532 444 OFFCURVE",
"560 416 OFFCURVE",
"560 372 CURVE SMOOTH",
"560 269 OFFCURVE",
"417 275 OFFCURVE",
"417 140 CURVE SMOOTH",
"417 55 OFFCURVE",
"470 0 OFFCURVE",
"536 0 CURVE SMOOTH",
"728 0 LINE SMOOTH",
"846 0 OFFCURVE",
"916 73 OFFCURVE",
"916 194 CURVE"
);
}
);
width = 966;
}
);
rightMetricsKey = "=knA";
unicode = 0C8C;
},
{
color = 3;
glyphname = knvLL;
lastChange = "2015-11-30 14:37:50 +0000";
layers = (
{
background = {
paths = (
{
closed = 0;
nodes = (
"417 140 LINE SMOOTH",
"417 55 OFFCURVE",
"470 0 OFFCURVE",
"536 0 CURVE SMOOTH",
"728 0 LINE SMOOTH",
"846 0 OFFCURVE",
"916 73 OFFCURVE",
"916 194 CURVE"
);
},
{
closed = 0;
nodes = (
"874 215 LINE",
"874 135 OFFCURVE",
"816 71 OFFCURVE",
"728 71 CURVE SMOOTH",
"559 71 LINE SMOOTH",
"496 71 OFFCURVE",
"464 113 OFFCURVE",
"464 155 CURVE SMOOTH"
);
}
);
};
layerId = "034236B8-3FA8-43DA-9EDA-EFF269A687EC";
name = Regular;
paths = (
{
closed = 1;
nodes = (
"797 421 OFFCURVE",
"874 335 OFFCURVE",
"874 215 CURVE",
"874 135 OFFCURVE",
"816 71 OFFCURVE",
"728 71 CURVE SMOOTH",
"559 71 LINE SMOOTH",
"496 71 OFFCURVE",
"464 114 OFFCURVE",
"464 161 CURVE SMOOTH",
"464 232 OFFCURVE",
"607 242 OFFCURVE",
"607 371 CURVE SMOOTH",
"607 461 OFFCURVE",
"548 519 OFFCURVE",
"484 519 CURVE SMOOTH",
"415 519 OFFCURVE",
"347 461 OFFCURVE",
"324 377 CURVE",
"322 377 LINE",
"299 461 OFFCURVE",
"230 519 OFFCURVE",
"161 519 CURVE SMOOTH",
"85 519 OFFCURVE",
"26 456 OFFCURVE",
"26 377 CURVE SMOOTH",
"26 347 OFFCURVE",
"34 321 OFFCURVE",
"56 296 CURVE",
"87 317 LINE",
"80 325 OFFCURVE",
"74 340 OFFCURVE",
"74 354 CURVE SMOOTH",
"74 392 OFFCURVE",
"105 444 OFFCURVE",
"164 444 CURVE SMOOTH",
"249 444 OFFCURVE",
"304 358 OFFCURVE",
"318 283 CURVE",
"327 283 LINE",
"340 358 OFFCURVE",
"396 444 OFFCURVE",
"479 444 CURVE SMOOTH",
"532 444 OFFCURVE",
"560 416 OFFCURVE",
"560 372 CURVE SMOOTH",
"560 269 OFFCURVE",
"417 275 OFFCURVE",
"417 140 CURVE SMOOTH",
"417 55 OFFCURVE",
"470 0 OFFCURVE",
"536 0 CURVE SMOOTH",
"728 0 LINE SMOOTH",
"846 0 OFFCURVE",
"916 73 OFFCURVE",
"916 194 CURVE",
"916 306 OFFCURVE",
"875 391 OFFCURVE",
"817 444 CURVE",
"1081 444 LINE SMOOTH",
"1174 444 OFFCURVE",
"1259 373 OFFCURVE",
"1259 217 CURVE SMOOTH",
"1259 125 OFFCURVE",
"1212 50 OFFCURVE",
"1130 50 CURVE SMOOTH",
"1087 50 OFFCURVE",
"1052 79 OFFCURVE",
"1052 116 CURVE",
"1052 132 OFFCURVE",
"1059 155 OFFCURVE",
"1072 155 CURVE SMOOTH",
"1074 155 OFFCURVE",
"1075 154 OFFCURVE",
"1075 148 CURVE SMOOTH",
"1075 118 OFFCURVE",
"1093 97 OFFCURVE",
"1120 97 CURVE SMOOTH",
"1148 97 OFFCURVE",
"1169 120 OFFCURVE",
"1169 149 CURVE SMOOTH",
"1169 176 OFFCURVE",
"1144 206 OFFCURVE",
"1101 206 CURVE SMOOTH",
"1041 206 OFFCURVE",
"1011 153 OFFCURVE",
"1011 99 CURVE",
"1011 36 OFFCURVE",
"1062 -14 OFFCURVE",
"1123 -14 CURVE SMOOTH",
"1222 -14 OFFCURVE",
"1301 77 OFFCURVE",
"1301 252 CURVE SMOOTH",
"1301 438 OFFCURVE",
"1187 509 OFFCURVE",
"1070 509 CURVE",
"750 509 LINE",
"737 469 LINE"
);
}
);
width = 1479;
},
{
associatedMasterId = "034236B8-3FA8-43DA-9EDA-EFF269A687EC";
layerId = "5ACBC9B8-96C0-4446-975D-7682D443440F";
name = "Regular Nov 4 15, 19:09";
paths = (
{
closed = 1;
nodes = (
"781 282 OFFCURVE",
"781 185 CURVE",
"781 116 OFFCURVE",
"731 79 OFFCURVE",
"654 79 CURVE SMOOTH",
"507 79 LINE SMOOTH",
"453 79 OFFCURVE",
"425 102 OFFCURVE",
"425 138 CURVE SMOOTH",
"425 217 OFFCURVE",
"549 200 OFFCURVE",
"549 321 CURVE SMOOTH",
"549 399 OFFCURVE",
"498 450 OFFCURVE",
"445 450 CURVE SMOOTH",
"377 450 OFFCURVE",
"322 399 OFFCURVE",
"303 326 CURVE",
"301 326 LINE",
"281 399 OFFCURVE",
"221 450 OFFCURVE",
"161 450 CURVE SMOOTH",
"95 450 OFFCURVE",
"44 395 OFFCURVE",
"44 326 CURVE SMOOTH",
"44 300 OFFCURVE",
"51 277 OFFCURVE",
"70 256 CURVE",
"97 274 LINE",
"91 281 OFFCURVE",
"86 294 OFFCURVE",
"86 306 CURVE SMOOTH",
"86 339 OFFCURVE",
"113 357 OFFCURVE",
"154 357 CURVE SMOOTH",
"225 357 OFFCURVE",
"286 310 OFFCURVE",
"298 244 CURVE",
"306 244 LINE",
"317 310 OFFCURVE",
"376 357 OFFCURVE",
"432 357 CURVE SMOOTH",
"478 357 OFFCURVE",
"508 334 OFFCURVE",
"508 296 CURVE SMOOTH",
"508 232 OFFCURVE",
"384 237 OFFCURVE",
"384 120 CURVE SMOOTH",
"384 46 OFFCURVE",
"430 -14 OFFCURVE",
"487 -14 CURVE SMOOTH",
"654 -14 LINE SMOOTH",
"757 -14 OFFCURVE",
"818 62 OFFCURVE",
"818 167 CURVE",
"818 257 OFFCURVE",
"787 331 OFFCURVE",
"747 378 CURVE",
"945 378 LINE",
"1007 378 OFFCURVE",
"1100 313 OFFCURVE",
"1100 217 CURVE SMOOTH",
"1100 107 OFFCURVE",
"1049 42 OFFCURVE",
"987 42 CURVE SMOOTH",
"950 42 OFFCURVE",
"920 67 OFFCURVE",
"920 99 CURVE",
"920 113 OFFCURVE",
"926 133 OFFCURVE",
"937 133 CURVE SMOOTH",
"939 133 OFFCURVE",
"940 132 OFFCURVE",
"940 127 CURVE SMOOTH",
"940 101 OFFCURVE",
"955 83 OFFCURVE",
"979 83 CURVE SMOOTH",
"1003 83 OFFCURVE",
"1021 103 OFFCURVE",
"1021 128 CURVE SMOOTH",
"1021 151 OFFCURVE",
"1000 177 OFFCURVE",
"962 177 CURVE SMOOTH",
"910 177 OFFCURVE",
"884 131 OFFCURVE",
"884 84 CURVE",
"884 30 OFFCURVE",
"928 -14 OFFCURVE",
"981 -14 CURVE SMOOTH",
"1067 -14 OFFCURVE",
"1136 65 OFFCURVE",
"1136 217 CURVE SMOOTH",
"1136 379 OFFCURVE",
"1037 450 OFFCURVE",
"935 450 CURVE",
"618 450 LINE",
"700 382 OFFCURVE"
);
}
);
width = 1180;
}
);
unicode = 0CE1;
},
{
color = 3;
glyphname = knE;
lastChange = "2015-11-30 18:00:34 +0000";
layers = (
{
background = {
paths = (
{
closed = 1;
nodes = (
"602 154 LINE",
"572 154 LINE",
"572 116 OFFCURVE",
"539 71 OFFCURVE",
"491 71 CURVE SMOOTH",
"418 71 OFFCURVE",
"352 146 OFFCURVE",
"339 221 CURVE",
"330 221 LINE",
"316 145 OFFCURVE",
"251 71 OFFCURVE",
"178 71 CURVE SMOOTH",
"125 71 OFFCURVE",
"98 114 OFFCURVE",
"98 156 CURVE",
"63 156 LINE",
"47 125 LINE",
"47 38 OFFCURVE",
"108 -14 OFFCURVE",
"175 -14 CURVE SMOOTH",
"243 -14 OFFCURVE",
"311 43 OFFCURVE",
"334 126 CURVE",
"336 126 LINE",
"359 43 OFFCURVE",
"427 -14 OFFCURVE",
"495 -14 CURVE SMOOTH",
"561 -14 OFFCURVE",
"622 38 OFFCURVE",
"622 125 CURVE"
);
}
);
};
layerId = "034236B8-3FA8-43DA-9EDA-EFF269A687EC";
name = Regular;
paths = (
{
closed = 1;
nodes = (
"418 71 OFFCURVE",
"352 146 OFFCURVE",
"339 221 CURVE",
"330 221 LINE",
"316 145 OFFCURVE",
"251 71 OFFCURVE",
"178 71 CURVE SMOOTH",
"125 71 OFFCURVE",
"93 114 OFFCURVE",
"93 156 CURVE",
"93 203 OFFCURVE",
"119 227 OFFCURVE",
"156 227 CURVE SMOOTH",
"186 227 OFFCURVE",
"211 217 OFFCURVE",
"222 193 CURVE",
"238 208 LINE",
"225 250 OFFCURVE",
"201 287 OFFCURVE",
"153 287 CURVE SMOOTH",
"93 287 OFFCURVE",
"50 232 OFFCURVE",
"50 143 CURVE",
"50 56 OFFCURVE",
"84 -14 OFFCURVE",
"173 -14 CURVE SMOOTH",
"243 -14 OFFCURVE",
"311 43 OFFCURVE",
"334 126 CURVE",
"336 126 LINE",
"359 43 OFFCURVE",
"427 -14 OFFCURVE",
"497 -14 CURVE",
"608 -14 OFFCURVE",
"670 78 OFFCURVE",
"670 224 CURVE SMOOTH",
"670 426 OFFCURVE",
"476 519 OFFCURVE",
"343 519 CURVE SMOOTH",
"308 519 OFFCURVE",
"288 500 OFFCURVE",
"288 477 CURVE SMOOTH",
"288 460 OFFCURVE",
"297 444 OFFCURVE",
"312 438 CURVE SMOOTH",
"334 430 OFFCURVE",
"354 439 OFFCURVE",
"383 439 CURVE SMOOTH",
"512 439 OFFCURVE",
"629 362 OFFCURVE",
"629 237 CURVE SMOOTH",
"629 168 OFFCURVE",
"589 71 OFFCURVE",
"491 71 CURVE"
);
}
);
width = 725;
}
);
unicode = 0C8E;
},
{
color = 3;
glyphname = knEE;
lastChange = "2015-11-30 18:02:43 +0000";
layers = (
{
background = {
paths = (
{
closed = 1;
nodes = (
"418 71 OFFCURVE",
"352 146 OFFCURVE",
"339 221 CURVE",
"330 221 LINE",
"316 145 OFFCURVE",
"251 71 OFFCURVE",
"178 71 CURVE SMOOTH",
"125 71 OFFCURVE",
"93 114 OFFCURVE",
"93 156 CURVE",
"93 203 OFFCURVE",
"119 227 OFFCURVE",
"156 227 CURVE SMOOTH",
"186 227 OFFCURVE",
"211 217 OFFCURVE",
"222 193 CURVE",
"238 208 LINE",
"225 250 OFFCURVE",
"201 287 OFFCURVE",
"153 287 CURVE SMOOTH",
"93 287 OFFCURVE",
"50 232 OFFCURVE",
"50 143 CURVE",
"50 56 OFFCURVE",
"84 -14 OFFCURVE",
"173 -14 CURVE SMOOTH",
"243 -14 OFFCURVE",
"311 43 OFFCURVE",
"334 126 CURVE",
"336 126 LINE",
"359 43 OFFCURVE",
"427 -14 OFFCURVE",
"497 -14 CURVE",
"608 -14 OFFCURVE",
"670 78 OFFCURVE",
"670 224 CURVE SMOOTH",
"670 426 OFFCURVE",
"476 519 OFFCURVE",
"343 519 CURVE SMOOTH",
"308 519 OFFCURVE",
"288 500 OFFCURVE",
"288 477 CURVE SMOOTH",
"288 460 OFFCURVE",
"297 444 OFFCURVE",
"312 438 CURVE SMOOTH",
"334 430 OFFCURVE",
"354 439 OFFCURVE",
"383 439 CURVE SMOOTH",
"512 439 OFFCURVE",
"629 362 OFFCURVE",
"629 237 CURVE SMOOTH",
"629 168 OFFCURVE",
"589 71 OFFCURVE",
"491 71 CURVE"
);
}
);
};
layerId = "034236B8-3FA8-43DA-9EDA-EFF269A687EC";
name = Regular;
paths = (
{
closed = 1;
nodes = (
"608 -14 OFFCURVE",
"670 78 OFFCURVE",
"670 224 CURVE",
"670 391 OFFCURVE",
"547 532 OFFCURVE",
"373 532 CURVE",
"349 480 OFFCURVE",
"318 457 OFFCURVE",
"273 457 CURVE SMOOTH",
"217 457 OFFCURVE",
"174 506 OFFCURVE",
"190 581 CURVE",
"169 594 LINE",
"104 500 OFFCURVE",
"152 378 OFFCURVE",
"265 378 CURVE SMOOTH",
"330 378 OFFCURVE",
"369 420 OFFCURVE",
"394 476 CURVE",
"522 459 OFFCURVE",
"629 370 OFFCURVE",
"629 237 CURVE",
"629 151 OFFCURVE",
"578 71 OFFCURVE",
"490 71 CURVE",
"417 71 OFFCURVE",
"352 146 OFFCURVE",
"339 221 CURVE",
"330 221 LINE",
"316 145 OFFCURVE",
"250 71 OFFCURVE",
"177 71 CURVE SMOOTH",
"124 71 OFFCURVE",
"93 114 OFFCURVE",
"93 156 CURVE",
"93 203 OFFCURVE",
"120 227 OFFCURVE",
"157 227 CURVE SMOOTH",
"187 227 OFFCURVE",
"212 217 OFFCURVE",
"223 193 CURVE",
"239 208 LINE",
"226 250 OFFCURVE",
"202 287 OFFCURVE",
"154 287 CURVE SMOOTH",
"93 287 OFFCURVE",
"50 232 OFFCURVE",
"50 145 CURVE",
"50 56 OFFCURVE",
"84 -14 OFFCURVE",
"174 -14 CURVE SMOOTH",
"242 -14 OFFCURVE",
"311 43 OFFCURVE",
"334 126 CURVE",
"336 126 LINE",
"359 43 OFFCURVE",
"426 -14 OFFCURVE",
"498 -14 CURVE"
);
}
);
width = 724;
}
);
unicode = 0C8F;
},
{
color = 3;
glyphname = knAI;
lastChange = "2015-11-30 18:03:47 +0000";
layers = (
{
background = {
paths = (
{
closed = 0;
nodes = (
"647 237 LINE",
"647 151 OFFCURVE",
"596 71 OFFCURVE",
"508 71 CURVE",
"435 71 OFFCURVE",
"370 146 OFFCURVE",
"357 221 CURVE",
"348 221 LINE",
"334 145 OFFCURVE",
"268 71 OFFCURVE",
"195 71 CURVE SMOOTH",
"142 71 OFFCURVE",
"111 114 OFFCURVE",
"111 156 CURVE",
"111 203 OFFCURVE",
"138 227 OFFCURVE",
"175 227 CURVE SMOOTH",
"205 227 OFFCURVE",
"230 217 OFFCURVE",
"241 193 CURVE",
"257 208 LINE",
"244 250 OFFCURVE",
"220 287 OFFCURVE",
"172 287 CURVE SMOOTH",
"111 287 OFFCURVE",
"68 232 OFFCURVE",
"68 145 CURVE",
"68 56 OFFCURVE",
"102 -14 OFFCURVE",
"192 -14 CURVE SMOOTH",
"260 -14 OFFCURVE",
"329 43 OFFCURVE",
"352 126 CURVE",
"354 126 LINE",
"377 43 OFFCURVE",
"444 -14 OFFCURVE",
"516 -14 CURVE",
"626 -14 OFFCURVE",
"688 78 OFFCURVE",
"688 224 CURVE"
);
}
);
};
guideLines = (
{
position = "{37, 368}";
}
);
layerId = "034236B8-3FA8-43DA-9EDA-EFF269A687EC";
name = Regular;
paths = (
{
closed = 1;
nodes = (
"444 519 OFFCURVE",
"377 461 OFFCURVE",
"354 377 CURVE",
"352 377 LINE",
"329 461 OFFCURVE",
"259 519 OFFCURVE",
"190 519 CURVE SMOOTH",
"102 519 OFFCURVE",
"40 431 OFFCURVE",
"40 350 CURVE",
"71 330 LINE",
"88 377 OFFCURVE",
"114 444 OFFCURVE",
"194 444 CURVE SMOOTH",
"279 444 OFFCURVE",
"335 358 OFFCURVE",
"349 283 CURVE",
"358 283 LINE",
"370 357 OFFCURVE",
"426 444 OFFCURVE",
"509 444 CURVE SMOOTH",
"599 444 OFFCURVE",
"646 370 OFFCURVE",
"646 254 CURVE SMOOTH",
"646 151 OFFCURVE",
"595 71 OFFCURVE",
"509 71 CURVE SMOOTH",
"435 71 OFFCURVE",
"370 146 OFFCURVE",
"357 221 CURVE",
"348 221 LINE",
"334 145 OFFCURVE",
"269 71 OFFCURVE",
"196 71 CURVE SMOOTH",
"143 71 OFFCURVE",
"111 114 OFFCURVE",
"111 156 CURVE SMOOTH",
"111 203 OFFCURVE",
"138 227 OFFCURVE",
"174 227 CURVE SMOOTH",
"205 227 OFFCURVE",
"230 217 OFFCURVE",
"241 193 CURVE",
"257 208 LINE",
"244 250 OFFCURVE",
"220 287 OFFCURVE",
"172 287 CURVE SMOOTH",
"111 287 OFFCURVE",
"68 232 OFFCURVE",
"68 145 CURVE SMOOTH",
"68 56 OFFCURVE",
"102 -14 OFFCURVE",
"193 -14 CURVE SMOOTH",
"260 -14 OFFCURVE",
"329 43 OFFCURVE",
"352 126 CURVE",
"354 126 LINE",
"377 43 OFFCURVE",
"445 -14 OFFCURVE",
"513 -14 CURVE SMOOTH",
"623 -14 OFFCURVE",
"687 77 OFFCURVE",
"687 254 CURVE SMOOTH",
"687 391 OFFCURVE",
"627 519 OFFCURVE",
"513 519 CURVE SMOOTH"
);
}
);
width = 742;
}
);
unicode = 0C90;
},
{
color = 3;
glyphname = knO;
lastChange = "2015-11-30 15:20:38 +0000";
layers = (
{
background = {
paths = (
{
closed = 0;
nodes = (
"608 154 LINE",
"608 116 OFFCURVE",
"575 71 OFFCURVE",
"527 71 CURVE SMOOTH",
"454 71 OFFCURVE",
"388 146 OFFCURVE",
"375 221 CURVE",
"366 221 LINE",
"352 145 OFFCURVE",
"287 71 OFFCURVE",
"214 71 CURVE SMOOTH",
"161 71 OFFCURVE",
"134 114 OFFCURVE",
"134 156 CURVE"
);
},
{
closed = 0;
nodes = (
"83 125 LINE",
"83 38 OFFCURVE",
"144 -14 OFFCURVE",
"211 -14 CURVE SMOOTH",
"279 -14 OFFCURVE",
"347 43 OFFCURVE",
"370 126 CURVE",
"372 126 LINE",
"395 43 OFFCURVE",
"463 -14 OFFCURVE",
"531 -14 CURVE SMOOTH",
"597 -14 OFFCURVE",
"658 38 OFFCURVE",
"658 125 CURVE"
);
}
);
};
layerId = "034236B8-3FA8-43DA-9EDA-EFF269A687EC";
name = Regular;
paths = (
{
closed = 1;
nodes = (
"658 185 OFFCURVE",
"631 220 OFFCURVE",
"600 250 CURVE",
"574 233 LINE",
"596 209 OFFCURVE",
"608 184 OFFCURVE",
"608 154 CURVE",
"608 116 OFFCURVE",
"585 71 OFFCURVE",
"527 71 CURVE SMOOTH",
"454 71 OFFCURVE",
"388 146 OFFCURVE",
"375 221 CURVE",
"366 221 LINE",
"352 145 OFFCURVE",
"287 71 OFFCURVE",
"214 71 CURVE SMOOTH",
"161 71 OFFCURVE",
"134 114 OFFCURVE",
"134 156 CURVE",
"134 187 OFFCURVE",
"164 219 OFFCURVE",
"196 253 CURVE SMOOTH",
"236 294 OFFCURVE",
"281 340 OFFCURVE",
"281 399 CURVE SMOOTH",
"281 473 OFFCURVE",
"223 519 OFFCURVE",
"157 519 CURVE SMOOTH",
"99 519 OFFCURVE",
"40 485 OFFCURVE",
"40 416 CURVE SMOOTH",
"40 384 OFFCURVE",
"51 352 OFFCURVE",
"72 330 CURVE",
"103 350 LINE",
"95 365 OFFCURVE",
"93 377 OFFCURVE",
"93 388 CURVE SMOOTH",
"93 425 OFFCURVE",
"118 452 OFFCURVE",
"157 452 CURVE SMOOTH",
"194 452 OFFCURVE",
"228 427 OFFCURVE",
"228 385 CURVE SMOOTH",
"228 344 OFFCURVE",
"197 311 OFFCURVE",
"165 278 CURVE SMOOTH",
"126 238 OFFCURVE",
"83 193 OFFCURVE",
"83 125 CURVE",
"83 38 OFFCURVE",
"144 -14 OFFCURVE",
"211 -14 CURVE SMOOTH",
"279 -14 OFFCURVE",
"347 43 OFFCURVE",
"370 126 CURVE",
"372 126 LINE",
"395 43 OFFCURVE",
"463 -14 OFFCURVE",
"531 -14 CURVE SMOOTH",
"597 -14 OFFCURVE",
"658 38 OFFCURVE",
"658 125 CURVE"
);
}
);
width = 698;
}
);
unicode = 0C92;
},
{
color = 3;
glyphname = knOO;
lastChange = "2015-11-30 15:05:24 +0000";
layers = (
{
layerId = "034236B8-3FA8-43DA-9EDA-EFF269A687EC";
leftMetricsKey = "=knO";
rightMetricsKey = "=knO";
name = Regular;
paths = (
{
closed = 1;
nodes = (
"172 532 OFFCURVE",
"159 562 OFFCURVE",
"159 592 CURVE SMOOTH",
"159 625 OFFCURVE",
"181 657 OFFCURVE",
"222 672 CURVE",
"204 694 LINE",
"139 682 OFFCURVE",
"101 641 OFFCURVE",
"101 598 CURVE SMOOTH",
"101 553 OFFCURVE",
"130 519 OFFCURVE",
"186 495 CURVE",
"207 510 LINE"
);
},
{
closed = 1;
nodes = (
"658 185 OFFCURVE",
"631 220 OFFCURVE",
"600 250 CURVE",
"574 233 LINE",
"596 209 OFFCURVE",
"608 184 OFFCURVE",
"608 154 CURVE",
"608 116 OFFCURVE",
"575 71 OFFCURVE",
"527 71 CURVE SMOOTH",
"454 71 OFFCURVE",
"388 146 OFFCURVE",
"375 221 CURVE",
"366 221 LINE",
"352 145 OFFCURVE",
"287 71 OFFCURVE",
"214 71 CURVE SMOOTH",
"161 71 OFFCURVE",
"134 114 OFFCURVE",
"134 156 CURVE",
"134 187 OFFCURVE",
"164 219 OFFCURVE",
"196 253 CURVE SMOOTH",
"236 294 OFFCURVE",
"281 340 OFFCURVE",
"281 399 CURVE SMOOTH",
"281 473 OFFCURVE",
"223 519 OFFCURVE",
"157 519 CURVE SMOOTH",
"99 519 OFFCURVE",
"40 485 OFFCURVE",
"40 416 CURVE SMOOTH",
"40 384 OFFCURVE",
"51 352 OFFCURVE",
"72 330 CURVE",
"103 350 LINE",
"95 365 OFFCURVE",
"93 377 OFFCURVE",
"93 388 CURVE SMOOTH",
"93 425 OFFCURVE",
"118 452 OFFCURVE",
"157 452 CURVE SMOOTH",
"194 452 OFFCURVE",
"228 427 OFFCURVE",
"228 385 CURVE SMOOTH",
"228 344 OFFCURVE",
"197 311 OFFCURVE",
"165 278 CURVE SMOOTH",
"126 238 OFFCURVE",
"83 193 OFFCURVE",
"83 125 CURVE",
"83 38 OFFCURVE",
"144 -14 OFFCURVE",
"211 -14 CURVE SMOOTH",
"279 -14 OFFCURVE",
"347 43 OFFCURVE",
"370 126 CURVE",
"372 126 LINE",
"395 43 OFFCURVE",
"463 -14 OFFCURVE",
"531 -14 CURVE SMOOTH",
"597 -14 OFFCURVE",
"658 38 OFFCURVE",
"658 125 CURVE"
);
}
);
width = 698;
}
);
leftMetricsKey = "=o-kannada";
rightMetricsKey = "=o-kannada";
unicode = 0C93;
},
{
color = 3;
glyphname = knAU;
lastChange = "2015-11-30 15:06:52 +0000";
layers = (
{
layerId = "034236B8-3FA8-43DA-9EDA-EFF269A687EC";
leftMetricsKey = "=knO";
name = Regular;
paths = (
{
closed = 1;
nodes = (
"658 185 OFFCURVE",
"631 220 OFFCURVE",
"600 250 CURVE",
"574 233 LINE",
"596 209 OFFCURVE",
"608 184 OFFCURVE",
"608 156 CURVE",
"623 127 LINE",
"658 127 LINE"
);
},
{
closed = 1;
nodes = (
"393 485 OFFCURVE",
"413 500 OFFCURVE",
"431 500 CURVE SMOOTH",
"435 500 OFFCURVE",
"436 499 OFFCURVE",
"436 493 CURVE SMOOTH",
"436 463 OFFCURVE",
"454 442 OFFCURVE",
"481 442 CURVE SMOOTH",
"509 442 OFFCURVE",
"530 465 OFFCURVE",
"530 494 CURVE SMOOTH",
"530 521 OFFCURVE",
"505 551 OFFCURVE",
"462 551 CURVE SMOOTH",
"402 551 OFFCURVE",
"348 498 OFFCURVE",
"348 419 CURVE",
"348 341 OFFCURVE",
"413 287 OFFCURVE",
"487 287 CURVE SMOOTH",
"573 287 OFFCURVE",
"635 364 OFFCURVE",
"635 467 CURVE SMOOTH",
"635 602 OFFCURVE",
"543 698 OFFCURVE",
"394 698 CURVE SMOOTH",
"44 698 LINE",
"44 626 LINE",
"271 626 LINE",
"272 623 OFFCURVE",
"273 618 OFFCURVE",
"273 614 CURVE SMOOTH",
"273 599 OFFCURVE",
"265 578 OFFCURVE",
"237 578 CURVE SMOOTH",
"44 578 LINE",
"44 508 LINE",
"198 508 LINE",
"219 508 LINE",
"273 508 OFFCURVE",
"313 541 OFFCURVE",
"313 586 CURVE SMOOTH",
"313 599 OFFCURVE",
"310 613 OFFCURVE",
"303 626 CURVE",
"394 626 LINE SMOOTH",
"521 626 OFFCURVE",
"596 561 OFFCURVE",
"596 467 CURVE SMOOTH",
"596 399 OFFCURVE",
"553 349 OFFCURVE",
"487 349 CURVE SMOOTH",
"434 349 OFFCURVE",
"393 386 OFFCURVE",
"393 446 CURVE"
);
},
{
closed = 1;
nodes = (
"134 189 OFFCURVE",
"164 219 OFFCURVE",
"196 253 CURVE SMOOTH",
"236 294 OFFCURVE",
"281 340 OFFCURVE",
"281 399 CURVE SMOOTH",
"281 473 OFFCURVE",
"223 519 OFFCURVE",
"157 519 CURVE SMOOTH",
"99 519 OFFCURVE",
"40 485 OFFCURVE",
"40 416 CURVE SMOOTH",
"40 384 OFFCURVE",
"51 352 OFFCURVE",
"72 330 CURVE",
"103 350 LINE",
"95 365 OFFCURVE",
"93 377 OFFCURVE",
"93 388 CURVE SMOOTH",
"93 425 OFFCURVE",
"118 452 OFFCURVE",
"157 452 CURVE SMOOTH",
"194 452 OFFCURVE",
"228 427 OFFCURVE",
"228 385 CURVE SMOOTH",
"228 344 OFFCURVE",
"197 311 OFFCURVE",
"165 278 CURVE SMOOTH",
"126 238 OFFCURVE",
"83 195 OFFCURVE",
"83 127 CURVE",
"126 127 LINE",
"134 158 LINE"
);
},
{
closed = 1;
nodes = (
"658 185 OFFCURVE",
"631 220 OFFCURVE",
"600 250 CURVE",
"574 233 LINE",
"596 209 OFFCURVE",
"608 184 OFFCURVE",
"608 154 CURVE",
"608 116 OFFCURVE",
"575 71 OFFCURVE",
"527 71 CURVE SMOOTH",
"454 71 OFFCURVE",
"388 146 OFFCURVE",
"375 221 CURVE",
"366 221 LINE",
"352 145 OFFCURVE",
"287 71 OFFCURVE",
"214 71 CURVE SMOOTH",
"161 71 OFFCURVE",
"134 114 OFFCURVE",
"134 156 CURVE",
"134 187 OFFCURVE",
"164 219 OFFCURVE",
"196 253 CURVE SMOOTH",
"236 294 OFFCURVE",
"281 340 OFFCURVE",
"281 399 CURVE SMOOTH",
"281 473 OFFCURVE",
"223 519 OFFCURVE",
"157 519 CURVE SMOOTH",
"99 519 OFFCURVE",
"40 485 OFFCURVE",
"40 416 CURVE SMOOTH",
"40 384 OFFCURVE",
"51 352 OFFCURVE",
"72 330 CURVE",
"103 350 LINE",
"95 365 OFFCURVE",
"93 377 OFFCURVE",
"93 388 CURVE SMOOTH",
"93 425 OFFCURVE",
"118 452 OFFCURVE",
"157 452 CURVE SMOOTH",
"194 452 OFFCURVE",
"228 427 OFFCURVE",
"228 385 CURVE SMOOTH",
"228 344 OFFCURVE",
"197 311 OFFCURVE",
"165 278 CURVE SMOOTH",
"126 238 OFFCURVE",
"83 193 OFFCURVE",
"83 125 CURVE",
"83 38 OFFCURVE",
"144 -14 OFFCURVE",
"211 -14 CURVE SMOOTH",
"279 -14 OFFCURVE",
"347 43 OFFCURVE",
"370 126 CURVE",
"372 126 LINE",
"395 43 OFFCURVE",
"463 -14 OFFCURVE",
"531 -14 CURVE SMOOTH",
"597 -14 OFFCURVE",
"658 38 OFFCURVE",
"658 125 CURVE"
);
}
);
width = 713;
}
);
leftMetricsKey = "=o-kannada";
unicode = 0C94;
},
{
color = 3;
glyphname = knmAA;
lastChange = "2015-11-28 16:12:07 +0000";
layers = (
{
layerId = "034236B8-3FA8-43DA-9EDA-EFF269A687EC";
name = Regular;
paths = (
{
closed = 1;
nodes = (
"261 426 OFFCURVE",
"364 366 OFFCURVE",
"364 227 CURVE SMOOTH",
"364 132 OFFCURVE",
"315 66 OFFCURVE",
"226 66 CURVE SMOOTH",
"152 66 OFFCURVE",
"109 113 OFFCURVE",
"109 170 CURVE",
"109 212 OFFCURVE",
"118 238 OFFCURVE",
"131 238 CURVE SMOOTH",
"135 238 OFFCURVE",
"137 233 OFFCURVE",
"137 228 CURVE SMOOTH",
"137 192 OFFCURVE",
"158 166 OFFCURVE",
"192 166 CURVE SMOOTH",
"226 166 OFFCURVE",
"252 195 OFFCURVE",
"252 231 CURVE SMOOTH",
"252 263 OFFCURVE",
"226 300 OFFCURVE",
"173 300 CURVE SMOOTH",
"94 300 OFFCURVE",
"57 234 OFFCURVE",
"57 156 CURVE",
"57 57 OFFCURVE",
"120 -13 OFFCURVE",
"207 -13 CURVE SMOOTH",
"317 -13 OFFCURVE",
"403 83 OFFCURVE",
"403 239 CURVE SMOOTH",
"403 402 OFFCURVE",
"280 509 OFFCURVE",
"85 509 CURVE",
"-200 509 LINE",
"-200 426 LINE",
"106 426 LINE"
);
}
);
width = 443;
}
);
unicode = 0CBE;
},
{
color = 3;
glyphname = knmI;
lastChange = "2015-11-28 16:12:13 +0000";
layers = (
{
layerId = "034236B8-3FA8-43DA-9EDA-EFF269A687EC";
name = Regular;
paths = (
{
closed = 1;
nodes = (
"116 266 OFFCURVE",
"231 293 OFFCURVE",
"231 394 CURVE",
"231 484 OFFCURVE",
"147 533 OFFCURVE",
"93 533 CURVE SMOOTH",
"49 533 OFFCURVE",
"28 507 OFFCURVE",
"28 475 CURVE SMOOTH",
"28 438 OFFCURVE",
"60 404 OFFCURVE",
"100 404 CURVE SMOOTH",
"145 404 OFFCURVE",
"153 432 OFFCURVE",
"153 468 CURVE SMOOTH",
"153 507 OFFCURVE",
"129 534 OFFCURVE",
"99 560 CURVE",
"154 556 LINE",
"180 533 OFFCURVE",
"199 506 OFFCURVE",
"199 460 CURVE",
"199 414 OFFCURVE",
"177 370 OFFCURVE",
"118 370 CURVE SMOOTH",
"54 370 OFFCURVE",
"0 425 OFFCURVE",
"0 494 CURVE SMOOTH",
"0 552 OFFCURVE",
"35 593 OFFCURVE",
"96 593 CURVE SMOOTH",
"188 593 OFFCURVE",
"257 486 OFFCURVE",
"257 395 CURVE SMOOTH",
"257 295 OFFCURVE",
"211 222 OFFCURVE",
"68 213 CURVE",
"40 266 LINE"
);
}
);
width = 357;
}
);
unicode = 0CBF;
},
{
color = 3;
glyphname = knmII;
lastChange = "2015-11-28 16:12:15 +0000";
layers = (
{
background = {
paths = (
{
closed = 1;
nodes = (
"-83 591 OFFCURVE",
"-115 655 OFFCURVE",
"-184 655 CURVE SMOOTH",
"-230 655 OFFCURVE",
"-252 623 OFFCURVE",
"-252 595 CURVE SMOOTH",
"-252 564 OFFCURVE",
"-230 539 OFFCURVE",
"-200 539 CURVE SMOOTH",
"-171 539 OFFCURVE",
"-152 561 OFFCURVE",
"-152 593 CURVE SMOOTH",
"-152 600 OFFCURVE",
"-151 601 OFFCURVE",
"-147 601 CURVE SMOOTH",
"-136 601 OFFCURVE",
"-117 583 OFFCURVE",
"-117 543 CURVE",
"-117 482 OFFCURVE",
"-177 450 OFFCURVE",
"-321 450 CURVE",
"-321 378 LINE",
"-160 378 OFFCURVE",
"-83 421 OFFCURVE",
"-83 533 CURVE"
);
}
);
};
layerId = "034236B8-3FA8-43DA-9EDA-EFF269A687EC";
name = Regular;
paths = (
{
closed = 1;
nodes = (
"-365 605 OFFCURVE",
"-400 563 OFFCURVE",
"-400 506 CURVE SMOOTH",
"-400 437 OFFCURVE",
"-346 382 OFFCURVE",
"-282 382 CURVE SMOOTH",
"-223 382 OFFCURVE",
"-201 425 OFFCURVE",
"-201 471 CURVE SMOOTH",
"-201 480 OFFCURVE",
"-202 487 OFFCURVE",
"-203 495 CURVE",
"-183 472 OFFCURVE",
"-169 442 OFFCURVE",
"-169 406 CURVE SMOOTH",
"-169 305 OFFCURVE",
"-284 278 OFFCURVE",
"-360 278 CURVE",
"-332 225 LINE",
"-189 233 OFFCURVE",
"-143 307 OFFCURVE",
"-143 407 CURVE SMOOTH",
"-143 498 OFFCURVE",
"-212 605 OFFCURVE",
"-304 605 CURVE SMOOTH"
);
},
{
closed = 1;
nodes = (
"-340 416 OFFCURVE",
"-371 449 OFFCURVE",
"-371 486 CURVE SMOOTH",
"-371 518 OFFCURVE",
"-351 545 OFFCURVE",
"-307 545 CURVE SMOOTH",
"-295 545 OFFCURVE",
"-282 543 OFFCURVE",
"-268 538 CURVE",
"-255 521 OFFCURVE",
"-247 502 OFFCURVE",
"-247 479 CURVE SMOOTH",
"-247 444 OFFCURVE",
"-255 416 OFFCURVE",
"-300 416 CURVE SMOOTH"
);
},
{
closed = 1;
nodes = (
"275 229 OFFCURVE",
"331 269 OFFCURVE",
"331 345 CURVE SMOOTH",
"331 421 OFFCURVE",
"294 476 OFFCURVE",
"230 476 CURVE SMOOTH",
"139 476 OFFCURVE",
"89 363 OFFCURVE",
"89 248 CURVE SMOOTH",
"89 151 OFFCURVE",
"127 60 OFFCURVE",
"196 -14 CURVE",
"278 -14 LINE",
"181 71 OFFCURVE",
"124 161 OFFCURVE",
"124 240 CURVE SMOOTH",
"124 310 OFFCURVE",
"143 361 OFFCURVE",
"176 388 CURVE",
"169 369 OFFCURVE",
"162 348 OFFCURVE",
"162 325 CURVE SMOOTH",
"162 267 OFFCURVE",
"190 229 OFFCURVE",
"238 229 CURVE SMOOTH"
);
},
{
closed = 1;
nodes = (
"275 408 OFFCURVE",
"304 386 OFFCURVE",
"304 347 CURVE SMOOTH",
"304 317 OFFCURVE",
"278 287 OFFCURVE",
"239 287 CURVE SMOOTH",
"205 287 OFFCURVE",
"186 314 OFFCURVE",
"186 347 CURVE SMOOTH",
"186 367 OFFCURVE",
"191 385 OFFCURVE",
"200 402 CURVE",
"212 406 OFFCURVE",
"224 408 OFFCURVE",
"237 408 CURVE SMOOTH"
);
}
);
width = 351;
},
{
associatedMasterId = "034236B8-3FA8-43DA-9EDA-EFF269A687EC";
layerId = "22EAF33D-C426-4B70-83E5-F92CACEADDA1";
name = "Regular Nov 7 15, 13:02";
paths = (
{
closed = 1;
nodes = (
"270 341 OFFCURVE",
"256 314 OFFCURVE",
"256 283 CURVE SMOOTH",
"256 232 OFFCURVE",
"280 199 OFFCURVE",
"322 199 CURVE SMOOTH",
"354 199 OFFCURVE",
"403 234 OFFCURVE",
"403 300 CURVE SMOOTH",
"403 366 OFFCURVE",
"371 414 OFFCURVE",
"315 414 CURVE SMOOTH",
"236 414 OFFCURVE",
"192 316 OFFCURVE",
"192 216 CURVE SMOOTH",
"192 131 OFFCURVE",
"225 52 OFFCURVE",
"285 -12 CURVE",
"357 -12 LINE",
"272 62 OFFCURVE",
"223 140 OFFCURVE",
"223 209 CURVE",
"223 301 OFFCURVE",
"260 355 OFFCURVE",
"321 355 CURVE SMOOTH",
"354 355 OFFCURVE",
"379 336 OFFCURVE",
"379 302 CURVE SMOOTH",
"379 276 OFFCURVE",
"357 250 OFFCURVE",
"323 250 CURVE SMOOTH",
"293 250 OFFCURVE",
"277 273 OFFCURVE",
"277 302 CURVE SMOOTH",
"277 331 OFFCURVE",
"289 355 OFFCURVE",
"312 381 CURVE",
"279 365 LINE"
);
},
{
closed = 1;
nodes = (
"-32 381 OFFCURVE",
"68 404 OFFCURVE",
"68 492 CURVE",
"68 570 OFFCURVE",
"-5 613 OFFCURVE",
"-52 613 CURVE SMOOTH",
"-90 613 OFFCURVE",
"-108 590 OFFCURVE",
"-108 562 CURVE SMOOTH",
"-108 530 OFFCURVE",
"-81 501 OFFCURVE",
"-46 501 CURVE SMOOTH",
"-7 501 OFFCURVE",
"0 525 OFFCURVE",
"0 556 CURVE SMOOTH",
"0 590 OFFCURVE",
"-21 614 OFFCURVE",
"-47 636 CURVE",
"1 633 LINE",
"24 613 OFFCURVE",
"40 589 OFFCURVE",
"40 549 CURVE",
"40 509 OFFCURVE",
"21 471 OFFCURVE",
"-30 471 CURVE SMOOTH",
"-86 471 OFFCURVE",
"-133 519 OFFCURVE",
"-133 579 CURVE SMOOTH",
"-133 629 OFFCURVE",
"-102 665 OFFCURVE",
"-49 665 CURVE SMOOTH",
"31 665 OFFCURVE",
"91 572 OFFCURVE",
"91 493 CURVE SMOOTH",
"91 406 OFFCURVE",
"51 342 OFFCURVE",
"-74 335 CURVE",
"-98 381 LINE"
);
}
);
width = 466;
}
);
unicode = 0CC0;
},
{
color = 3;
glyphname = knmU;
lastChange = "2015-11-28 16:12:31 +0000";
layers = (
{
layerId = "034236B8-3FA8-43DA-9EDA-EFF269A687EC";
name = Regular;
paths = (
{
closed = 1;
nodes = (
"-57 45 OFFCURVE",
"11 -14 OFFCURVE",
"83 -14 CURVE SMOOTH",
"189 -14 OFFCURVE",
"254 78 OFFCURVE",
"254 224 CURVE SMOOTH",
"254 392 OFFCURVE",
"140 514 OFFCURVE",
"54 514 CURVE SMOOTH",
"18 514 OFFCURVE",
"-2 494 OFFCURVE",
"-2 471 CURVE SMOOTH",
"-2 454 OFFCURVE",
"9 439 OFFCURVE",
"22 432 CURVE SMOOTH",
"37 424 OFFCURVE",
"60 427 OFFCURVE",
"93 422 CURVE SMOOTH",
"165 409 OFFCURVE",
"212 339 OFFCURVE",
"212 237 CURVE SMOOTH",
"212 168 OFFCURVE",
"173 93 OFFCURVE",
"72 93 CURVE SMOOTH",
"3 93 OFFCURVE",
"-64 148 OFFCURVE",
"-76 223 CURVE",
"-80 128 LINE"
);
}
);
width = 309;
}
);
unicode = 0CC1;
},
{
color = 3;
glyphname = knmUU;
lastChange = "2015-11-28 16:12:36 +0000";
layers = (
{
background = {
paths = (
{
closed = 1;
nodes = (
"488 378 OFFCURVE",
"578 316 OFFCURVE",
"578 195 CURVE SMOOTH",
"578 112 OFFCURVE",
"535 55 OFFCURVE",
"458 55 CURVE SMOOTH",
"393 55 OFFCURVE",
"356 96 OFFCURVE",
"356 145 CURVE",
"356 182 OFFCURVE",
"364 204 OFFCURVE",
"375 204 CURVE SMOOTH",
"379 204 OFFCURVE",
"380 200 OFFCURVE",
"380 196 CURVE SMOOTH",
"380 164 OFFCURVE",
"399 142 OFFCURVE",
"428 142 CURVE SMOOTH",
"458 142 OFFCURVE",
"480 167 OFFCURVE",
"480 198 CURVE SMOOTH",
"480 226 OFFCURVE",
"458 258 OFFCURVE",
"412 258 CURVE SMOOTH",
"343 258 OFFCURVE",
"311 201 OFFCURVE",
"311 133 CURVE",
"311 47 OFFCURVE",
"366 -14 OFFCURVE",
"441 -14 CURVE SMOOTH",
"537 -14 OFFCURVE",
"612 70 OFFCURVE",
"612 205 CURVE SMOOTH",
"612 347 OFFCURVE",
"505 450 OFFCURVE",
"335 450 CURVE",
"87 450 LINE",
"87 378 LINE",
"353 378 LINE"
);
}
);
};
layerId = "034236B8-3FA8-43DA-9EDA-EFF269A687EC";
name = Regular;
paths = (
{
closed = 1;
nodes = (
"614 140 OFFCURVE",
"564 65 OFFCURVE",
"476 65 CURVE SMOOTH",
"401 65 OFFCURVE",
"359 112 OFFCURVE",
"359 169 CURVE",
"359 211 OFFCURVE",
"368 237 OFFCURVE",
"380 237 CURVE SMOOTH",
"385 237 OFFCURVE",
"386 232 OFFCURVE",
"386 227 CURVE SMOOTH",
"386 191 OFFCURVE",
"408 165 OFFCURVE",
"441 165 CURVE SMOOTH",
"476 165 OFFCURVE",
"501 194 OFFCURVE",
"501 230 CURVE SMOOTH",
"501 262 OFFCURVE",
"476 299 OFFCURVE",
"423 299 CURVE SMOOTH",
"344 299 OFFCURVE",
"307 233 OFFCURVE",
"307 155 CURVE",
"307 56 OFFCURVE",
"370 -14 OFFCURVE",
"456 -14 CURVE SMOOTH",
"567 -14 OFFCURVE",
"653 82 OFFCURVE",
"653 238 CURVE",
"653 424 OFFCURVE",
"515 519 OFFCURVE",
"398 519 CURVE",
"305 519 OFFCURVE",
"184 456 OFFCURVE",
"184 293 CURVE",
"184 177 OFFCURVE",
"168 93 OFFCURVE",
"85 93 CURVE",
"17 93 OFFCURVE",
"-52 145 OFFCURVE",
"-71 189 CURVE",
"-96 119 LINE",
"-63 62 OFFCURVE",
"23 -14 OFFCURVE",
"96 -14 CURVE",
"206 -14 OFFCURVE",
"231 103 OFFCURVE",
"231 294 CURVE",
"231 416 OFFCURVE",
"320 437 OFFCURVE",
"398 437 CURVE SMOOTH",
"492 437 OFFCURVE",
"614 357 OFFCURVE",
"614 235 CURVE"
);
}
);
width = 661;
}
);
unicode = 0CC2;
},
{
color = 3;
glyphname = knmvR;
lastChange = "2015-11-28 16:12:45 +0000";
layers = (
{
layerId = "034236B8-3FA8-43DA-9EDA-EFF269A687EC";
name = Regular;
paths = (
{
closed = 1;
nodes = (
"-42 -89 OFFCURVE",
"-48 -108 OFFCURVE",
"-48 -123 CURVE SMOOTH",
"-48 -145 OFFCURVE",
"-35 -160 OFFCURVE",
"-17 -160 CURVE SMOOTH",
"2 -160 OFFCURVE",
"13 -144 OFFCURVE",
"13 -124 CURVE SMOOTH",
"13 -105 OFFCURVE",
"-2 -91 OFFCURVE",
"-21 -91 CURVE SMOOTH",
"-47 -91 OFFCURVE",
"-80 -115 OFFCURVE",
"-80 -166 CURVE SMOOTH",
"-80 -235 OFFCURVE",
"-31 -269 OFFCURVE",
"31 -269 CURVE SMOOTH",
"94 -269 OFFCURVE",
"136 -215 OFFCURVE",
"136 -155 CURVE SMOOTH",
"136 -84 OFFCURVE",
"107 -31 OFFCURVE",
"72 6 CURVE SMOOTH",
"41 37 OFFCURVE",
"28 55 OFFCURVE",
"28 71 CURVE SMOOTH",
"28 83 OFFCURVE",
"36 89 OFFCURVE",
"46 89 CURVE SMOOTH",
"56 89 OFFCURVE",
"64 85 OFFCURVE",
"76 68 CURVE SMOOTH",
"117 12 OFFCURVE",
"159 -73 OFFCURVE",
"159 -157 CURVE SMOOTH",
"159 -239 OFFCURVE",
"109 -308 OFFCURVE",
"33 -308 CURVE SMOOTH",
"-52 -308 OFFCURVE",
"-100 -235 OFFCURVE",
"-100 -176 CURVE SMOOTH",
"-100 -95 OFFCURVE",
"-59 -62 OFFCURVE",
"-26 -62 CURVE SMOOTH",
"0 -62 OFFCURVE",
"28 -78 OFFCURVE",
"28 -127 CURVE SMOOTH",
"28 -161 OFFCURVE",
"15 -188 OFFCURVE",
"-17 -188 CURVE SMOOTH",
"-44 -188 OFFCURVE",
"-64 -162 OFFCURVE",
"-64 -134 CURVE SMOOTH",
"-64 -108 OFFCURVE",
"-61 -93 OFFCURVE",
"-51 -77 CURVE",
"-28 -76 LINE"
);
}
);
width = 109;
}
);
unicode = 0CC3;
},
{
color = 3;
glyphname = knmvRR;
lastChange = "2015-11-28 16:12:48 +0000";
layers = (
{
background = {
paths = (
{
closed = 1;
nodes = (
"43 35 LINE",
"43 23 LINE",
"50 12 LINE",
"55 1 OFFCURVE",
"66 -12 OFFCURVE",
"84 -30 CURVE SMOOTH",
"115 -62 OFFCURVE",
"136 -108 OFFCURVE",
"136 -170 CURVE SMOOTH",
"136 -222 OFFCURVE",
"103 -269 OFFCURVE",
"49 -269 CURVE SMOOTH",
"-5 -269 OFFCURVE",
"-48 -239 OFFCURVE",
"-48 -179 CURVE SMOOTH",
"-48 -159 OFFCURVE",
"-42 -143 OFFCURVE",
"-33 -133 CURVE",
"-34 -138 OFFCURVE",
"-34 -144 OFFCURVE",
"-34 -151 CURVE SMOOTH",
"-34 -176 OFFCURVE",
"-17 -198 OFFCURVE",
"7 -198 CURVE SMOOTH",
"35 -198 OFFCURVE",
"46 -175 OFFCURVE",
"46 -145 CURVE SMOOTH",
"46 -100 OFFCURVE",
"22 -89 OFFCURVE",
"-1 -89 CURVE SMOOTH",
"-30 -89 OFFCURVE",
"-65 -117 OFFCURVE",
"-65 -188 CURVE SMOOTH",
"-65 -239 OFFCURVE",
"-24 -303 OFFCURVE",
"50 -303 CURVE SMOOTH",
"116 -303 OFFCURVE",
"156 -243 OFFCURVE",
"156 -171 CURVE SMOOTH",
"156 -110 OFFCURVE",
"133 -48 OFFCURVE",
"105 -1 CURVE",
"218 -1 LINE SMOOTH",
"290 -1 OFFCURVE",
"338 -36 OFFCURVE",
"338 -102 CURVE SMOOTH",
"338 -146 OFFCURVE",
"316 -177 OFFCURVE",
"274 -177 CURVE SMOOTH",
"239 -177 OFFCURVE",
"219 -155 OFFCURVE",
"219 -129 CURVE SMOOTH",
"219 -108 OFFCURVE",
"223 -96 OFFCURVE",
"229 -96 CURVE SMOOTH",
"231 -96 OFFCURVE",
"231 -97 OFFCURVE",
"231 -101 CURVE SMOOTH",
"231 -118 OFFCURVE",
"242 -130 OFFCURVE",
"258 -130 CURVE SMOOTH",
"274 -130 OFFCURVE",
"286 -117 OFFCURVE",
"286 -99 CURVE SMOOTH",
"286 -85 OFFCURVE",
"274 -67 OFFCURVE",
"248 -67 CURVE SMOOTH",
"211 -67 OFFCURVE",
"195 -98 OFFCURVE",
"195 -135 CURVE SMOOTH",
"195 -182 OFFCURVE",
"224 -214 OFFCURVE",
"265 -214 CURVE SMOOTH",
"317 -214 OFFCURVE",
"358 -169 OFFCURVE",
"358 -96 CURVE SMOOTH",
"358 -20 OFFCURVE",
"300 35 OFFCURVE",
"212 35 CURVE SMOOTH"
);
},
{
closed = 1;
nodes = (
"20 -114 OFFCURVE",
"33 -126 OFFCURVE",
"33 -143 CURVE SMOOTH",
"33 -160 OFFCURVE",
"23 -174 OFFCURVE",
"7 -174 CURVE SMOOTH",
"-9 -174 OFFCURVE",
"-20 -161 OFFCURVE",
"-20 -142 CURVE SMOOTH",
"-20 -135 OFFCURVE",
"-18 -126 OFFCURVE",
"-15 -118 CURVE",
"-9 -115 OFFCURVE",
"-3 -114 OFFCURVE",
"3 -114 CURVE SMOOTH"
);
}
);
};
layerId = "034236B8-3FA8-43DA-9EDA-EFF269A687EC";
name = Regular;
paths = (
{
closed = 1;
nodes = (
"24 60 LINE",
"24 46 LINE",
"70 -3 OFFCURVE",
"131 -77 OFFCURVE",
"131 -175 CURVE SMOOTH",
"131 -235 OFFCURVE",
"93 -289 OFFCURVE",
"31 -289 CURVE SMOOTH",
"-31 -289 OFFCURVE",
"-81 -255 OFFCURVE",
"-81 -186 CURVE SMOOTH",
"-81 -163 OFFCURVE",
"-74 -145 OFFCURVE",
"-64 -133 CURVE",
"-64 -139 OFFCURVE",
"-65 -146 OFFCURVE",
"-65 -154 CURVE SMOOTH",
"-65 -182 OFFCURVE",
"-45 -208 OFFCURVE",
"-18 -208 CURVE SMOOTH",
"15 -208 OFFCURVE",
"27 -181 OFFCURVE",
"27 -147 CURVE SMOOTH",
"27 -95 OFFCURVE",
"0 -82 OFFCURVE",
"-27 -82 CURVE SMOOTH",
"-60 -82 OFFCURVE",
"-100 -115 OFFCURVE",
"-100 -196 CURVE SMOOTH",
"-100 -255 OFFCURVE",
"-53 -328 OFFCURVE",
"32 -328 CURVE SMOOTH",
"108 -328 OFFCURVE",
"154 -259 OFFCURVE",
"154 -177 CURVE SMOOTH",
"154 -102 OFFCURVE",
"119 -32 OFFCURVE",
"80 19 CURVE",
"225 19 LINE SMOOTH",
"308 19 OFFCURVE",
"363 -21 OFFCURVE",
"363 -97 CURVE SMOOTH",
"363 -148 OFFCURVE",
"338 -184 OFFCURVE",
"289 -184 CURVE SMOOTH",
"249 -184 OFFCURVE",
"226 -158 OFFCURVE",
"226 -128 CURVE SMOOTH",
"226 -104 OFFCURVE",
"231 -90 OFFCURVE",
"238 -90 CURVE SMOOTH",
"240 -90 OFFCURVE",
"240 -92 OFFCURVE",
"240 -96 CURVE SMOOTH",
"240 -116 OFFCURVE",
"253 -129 OFFCURVE",
"271 -129 CURVE SMOOTH",
"289 -129 OFFCURVE",
"303 -115 OFFCURVE",
"303 -94 CURVE SMOOTH",
"303 -78 OFFCURVE",
"289 -57 OFFCURVE",
"259 -57 CURVE SMOOTH",
"217 -57 OFFCURVE",
"199 -93 OFFCURVE",
"199 -135 CURVE SMOOTH",
"199 -189 OFFCURVE",
"232 -226 OFFCURVE",
"279 -226 CURVE SMOOTH",
"339 -226 OFFCURVE",
"386 -174 OFFCURVE",
"386 -90 CURVE SMOOTH",
"386 -3 OFFCURVE",
"319 60 OFFCURVE",
"218 60 CURVE SMOOTH"
);
},
{
closed = 1;
nodes = (
"-3 -111 OFFCURVE",
"12 -125 OFFCURVE",
"12 -144 CURVE SMOOTH",
"12 -164 OFFCURVE",
"1 -180 OFFCURVE",
"-18 -180 CURVE SMOOTH",
"-36 -180 OFFCURVE",
"-49 -165 OFFCURVE",
"-49 -143 CURVE SMOOTH",
"-49 -135 OFFCURVE",
"-47 -125 OFFCURVE",
"-43 -116 CURVE",
"-36 -113 OFFCURVE",
"-29 -111 OFFCURVE",
"-22 -111 CURVE SMOOTH"
);
}
);
width = 336;
}
);
unicode = 0CC4;
},
{
color = 3;
glyphname = knmvL;
lastChange = "2015-11-28 16:12:58 +0000";
layers = (
{
anchors = (
{
name = _bottom;
position = "{-11, 0}";
}
);
layerId = "034236B8-3FA8-43DA-9EDA-EFF269A687EC";
name = Regular;
paths = (
{
closed = 1;
nodes = (
"235 -243 OFFCURVE",
"229 -220 OFFCURVE",
"221 -207 CURVE",
"203 -217 LINE",
"206 -228 OFFCURVE",
"208 -239 OFFCURVE",
"208 -258 CURVE",
"208 -301 OFFCURVE",
"190 -328 OFFCURVE",
"136 -328 CURVE SMOOTH",
"91 -328 OFFCURVE",
"72 -310 OFFCURVE",
"72 -285 CURVE SMOOTH",
"72 -228 OFFCURVE",
"161 -240 OFFCURVE",
"161 -152 CURVE SMOOTH",
"161 -95 OFFCURVE",
"125 -59 OFFCURVE",
"85 -59 CURVE SMOOTH",
"36 -59 OFFCURVE",
"-3 -95 OFFCURVE",
"-17 -148 CURVE",
"-18 -148 LINE",
"-33 -95 OFFCURVE",
"-77 -59 OFFCURVE",
"-120 -59 CURVE SMOOTH",
"-168 -59 OFFCURVE",
"-204 -99 OFFCURVE",
"-204 -148 CURVE SMOOTH",
"-204 -168 OFFCURVE",
"-200 -184 OFFCURVE",
"-186 -199 CURVE",
"-166 -186 LINE",
"-171 -182 OFFCURVE",
"-174 -171 OFFCURVE",
"-174 -163 CURVE SMOOTH",
"-174 -139 OFFCURVE",
"-155 -126 OFFCURVE",
"-125 -126 CURVE SMOOTH",
"-73 -126 OFFCURVE",
"-30 -160 OFFCURVE",
"-20 -208 CURVE",
"-15 -208 LINE",
"-7 -160 OFFCURVE",
"36 -126 OFFCURVE",
"76 -126 CURVE SMOOTH",
"110 -126 OFFCURVE",
"131 -143 OFFCURVE",
"131 -170 CURVE SMOOTH",
"131 -216 OFFCURVE",
"42 -213 OFFCURVE",
"42 -298 CURVE SMOOTH",
"42 -352 OFFCURVE",
"75 -394 OFFCURVE",
"137 -394 CURVE SMOOTH",
"214 -394 OFFCURVE",
"235 -333 OFFCURVE",
"235 -275 CURVE"
);
}
);
width = 65;
}
);
unicode = 0CE2;
},
{
color = 3;
glyphname = knmvLL;
lastChange = "2015-11-28 16:13:07 +0000";
layers = (
{
anchors = (
{
name = _bottom;
position = "{50, 0}";
}
);
background = {
paths = (
{
closed = 1;
nodes = (
"228 -211 OFFCURVE",
"223 -191 OFFCURVE",
"216 -180 CURVE",
"200 -189 LINE",
"203 -198 OFFCURVE",
"205 -208 OFFCURVE",
"205 -224 CURVE",
"205 -262 OFFCURVE",
"189 -285 OFFCURVE",
"142 -285 CURVE SMOOTH",
"103 -285 OFFCURVE",
"86 -270 OFFCURVE",
"86 -248 CURVE SMOOTH",
"86 -198 OFFCURVE",
"164 -209 OFFCURVE",
"164 -132 CURVE SMOOTH",
"164 -83 OFFCURVE",
"132 -51 OFFCURVE",
"98 -51 CURVE SMOOTH",
"55 -51 OFFCURVE",
"21 -83 OFFCURVE",
"9 -129 CURVE",
"8 -129 LINE",
"-5 -83 OFFCURVE",
"-43 -51 OFFCURVE",
"-81 -51 CURVE SMOOTH",
"-122 -51 OFFCURVE",
"-154 -86 OFFCURVE",
"-154 -129 CURVE SMOOTH",
"-154 -146 OFFCURVE",
"-150 -160 OFFCURVE",
"-138 -173 CURVE",
"-121 -162 LINE",
"-125 -158 OFFCURVE",
"-128 -149 OFFCURVE",
"-128 -142 CURVE SMOOTH",
"-128 -121 OFFCURVE",
"-111 -110 OFFCURVE",
"-85 -110 CURVE SMOOTH",
"-40 -110 OFFCURVE",
"-2 -139 OFFCURVE",
"6 -181 CURVE",
"11 -181 LINE",
"18 -139 OFFCURVE",
"55 -110 OFFCURVE",
"90 -110 CURVE SMOOTH",
"119 -110 OFFCURVE",
"138 -124 OFFCURVE",
"138 -148 CURVE SMOOTH",
"138 -188 OFFCURVE",
"60 -185 OFFCURVE",
"60 -259 CURVE SMOOTH",
"60 -306 OFFCURVE",
"89 -343 OFFCURVE",
"143 -343 CURVE SMOOTH",
"210 -343 OFFCURVE",
"228 -290 OFFCURVE",
"228 -239 CURVE"
);
}
);
};
layerId = "034236B8-3FA8-43DA-9EDA-EFF269A687EC";
name = Regular;
paths = (
{
closed = 1;
nodes = (
"264 -394 OFFCURVE",
"310 -353 OFFCURVE",
"310 -248 CURVE",
"310 -191 OFFCURVE",
"292 -145 OFFCURVE",
"261 -112 CURVE",
"374 -112 LINE",
"450 -112 OFFCURVE",
"530 -159 OFFCURVE",
"530 -235 CURVE SMOOTH",
"530 -306 OFFCURVE",
"493 -353 OFFCURVE",
"450 -353 CURVE SMOOTH",
"421 -353 OFFCURVE",
"400 -336 OFFCURVE",
"400 -313 CURVE",
"400 -302 OFFCURVE",
"405 -289 OFFCURVE",
"413 -289 CURVE SMOOTH",
"414 -289 OFFCURVE",
"415 -289 OFFCURVE",
"415 -291 CURVE SMOOTH",
"415 -312 OFFCURVE",
"425 -324 OFFCURVE",
"441 -324 CURVE SMOOTH",
"461 -324 OFFCURVE",
"473 -309 OFFCURVE",
"473 -291 CURVE SMOOTH",
"473 -275 OFFCURVE",
"459 -256 OFFCURVE",
"430 -256 CURVE SMOOTH",
"392 -256 OFFCURVE",
"372 -289 OFFCURVE",
"372 -323 CURVE",
"372 -363 OFFCURVE",
"405 -394 OFFCURVE",
"444 -394 CURVE SMOOTH",
"506 -394 OFFCURVE",
"558 -337 OFFCURVE",
"558 -235 CURVE SMOOTH",
"558 -110 OFFCURVE",
"470 -59 OFFCURVE",
"382 -59 CURVE",
"224 -59 LINE",
"200 -91 LINE",
"241 -130 OFFCURVE",
"284 -179 OFFCURVE",
"284 -236 CURVE",
"284 -299 OFFCURVE",
"255 -328 OFFCURVE",
"160 -328 CURVE",
"92 -328 OFFCURVE",
"72 -310 OFFCURVE",
"72 -285 CURVE SMOOTH",
"72 -228 OFFCURVE",
"162 -240 OFFCURVE",
"162 -152 CURVE SMOOTH",
"162 -95 OFFCURVE",
"125 -59 OFFCURVE",
"86 -59 CURVE SMOOTH",
"37 -59 OFFCURVE",
"-2 -95 OFFCURVE",
"-16 -148 CURVE",
"-17 -148 LINE",
"-32 -95 OFFCURVE",
"-76 -59 OFFCURVE",
"-120 -59 CURVE SMOOTH",
"-167 -59 OFFCURVE",
"-204 -99 OFFCURVE",
"-204 -148 CURVE SMOOTH",
"-204 -168 OFFCURVE",
"-199 -184 OFFCURVE",
"-185 -199 CURVE",
"-166 -186 LINE",
"-170 -182 OFFCURVE",
"-174 -171 OFFCURVE",
"-174 -163 CURVE SMOOTH",
"-174 -139 OFFCURVE",
"-154 -126 OFFCURVE",
"-124 -126 CURVE SMOOTH",
"-73 -126 OFFCURVE",
"-29 -160 OFFCURVE",
"-20 -208 CURVE",
"-14 -208 LINE",
"-6 -160 OFFCURVE",
"37 -126 OFFCURVE",
"77 -126 CURVE SMOOTH",
"110 -126 OFFCURVE",
"132 -143 OFFCURVE",
"132 -170 CURVE SMOOTH",
"132 -216 OFFCURVE",
"42 -213 OFFCURVE",
"42 -298 CURVE SMOOTH",
"42 -352 OFFCURVE",
"76 -394 OFFCURVE",
"172 -394 CURVE"
);
}
);
width = 358;
}
);
unicode = 0CE3;
},
{
color = 3;
glyphname = knmE;
lastChange = "2015-11-28 16:13:16 +0000";
layers = (
{
background = {
paths = (
{
closed = 1;
nodes = (
"60 541 OFFCURVE",
"4 590 OFFCURVE",
"-68 590 CURVE",
"-67 567 LINE",
"-21 566 OFFCURVE",
"14 543 OFFCURVE",
"14 501 CURVE",
"60 476 LINE"
);
}
);
};
layerId = "034236B8-3FA8-43DA-9EDA-EFF269A687EC";
name = Regular;
paths = (
{
closed = 1;
nodes = (
"-182 662 OFFCURVE",
"-207 625 OFFCURVE",
"-207 593 CURVE SMOOTH",
"-207 557 OFFCURVE",
"-182 528 OFFCURVE",
"-147 528 CURVE SMOOTH",
"-109 528 OFFCURVE",
"-92 554 OFFCURVE",
"-92 591 CURVE",
"-93 618 OFFCURVE",
"-90 625 OFFCURVE",
"-74 625 CURVE SMOOTH",
"-44 625 OFFCURVE",
"-18 571 OFFCURVE",
"-18 531 CURVE SMOOTH",
"-18 484 OFFCURVE",
"-48 456 OFFCURVE",
"-101 456 CURVE",
"-101 373 LINE",
"-22 373 OFFCURVE",
"35 428 OFFCURVE",
"35 497 CURVE SMOOTH",
"35 593 OFFCURVE",
"-36 662 OFFCURVE",
"-106 662 CURVE SMOOTH"
);
}
);
width = 110;
}
);
unicode = 0CC6;
},
{
color = 3;
glyphname = knmEE;
lastChange = "2015-11-28 16:13:19 +0000";
layers = (
{
layerId = "034236B8-3FA8-43DA-9EDA-EFF269A687EC";
name = Regular;
paths = (
{
closed = 1;
nodes = (
"173 392 OFFCURVE",
"163 361 OFFCURVE",
"163 325 CURVE SMOOTH",
"163 267 OFFCURVE",
"190 229 OFFCURVE",
"238 229 CURVE SMOOTH",
"275 229 OFFCURVE",
"332 269 OFFCURVE",
"332 345 CURVE SMOOTH",
"332 421 OFFCURVE",
"295 476 OFFCURVE",
"230 476 CURVE SMOOTH",
"140 476 OFFCURVE",
"89 363 OFFCURVE",
"89 248 CURVE SMOOTH",
"89 151 OFFCURVE",
"127 59 OFFCURVE",
"196 -15 CURVE",
"249 -15 LINE",
"248 14 LINE",
"169 91 OFFCURVE",
"125 170 OFFCURVE",
"125 240 CURVE",
"125 346 OFFCURVE",
"167 408 OFFCURVE",
"237 408 CURVE SMOOTH",
"275 408 OFFCURVE",
"304 386 OFFCURVE",
"304 347 CURVE SMOOTH",
"304 317 OFFCURVE",
"279 287 OFFCURVE",
"240 287 CURVE SMOOTH",
"205 287 OFFCURVE",
"187 314 OFFCURVE",
"187 347 CURVE SMOOTH",
"187 381 OFFCURVE",
"200 408 OFFCURVE",
"227 438 CURVE",
"183 420 LINE"
);
},
{
closed = 1;
nodes = (
"-39 497 LINE",
"-39 593 OFFCURVE",
"-109 662 OFFCURVE",
"-179 662 CURVE SMOOTH",
"-255 662 OFFCURVE",
"-280 625 OFFCURVE",
"-280 593 CURVE SMOOTH",
"-280 557 OFFCURVE",
"-255 528 OFFCURVE",
"-220 528 CURVE SMOOTH",
"-182 528 OFFCURVE",
"-165 554 OFFCURVE",
"-165 591 CURVE",
"-166 618 OFFCURVE",
"-163 625 OFFCURVE",
"-147 625 CURVE SMOOTH",
"-117 625 OFFCURVE",
"-92 571 OFFCURVE",
"-92 531 CURVE SMOOTH",
"-92 520 LINE"
);
}
);
width = 352;
}
);
unicode = 0CC7;
},
{
color = 3;
glyphname = knmAI;
lastChange = "2015-11-28 16:13:40 +0000";
layers = (
{
layerId = "034236B8-3FA8-43DA-9EDA-EFF269A687EC";
name = Regular;
paths = (
{
closed = 1;
nodes = (
"19 -105 LINE",
"55 -121 OFFCURVE",
"93 -155 OFFCURVE",
"93 -208 CURVE SMOOTH",
"93 -263 OFFCURVE",
"50 -301 OFFCURVE",
"-10 -301 CURVE SMOOTH",
"-84 -301 OFFCURVE",
"-128 -260 OFFCURVE",
"-128 -200 CURVE SMOOTH",
"-128 -182 OFFCURVE",
"-123 -159 OFFCURVE",
"-109 -144 CURVE",
"-111 -149 OFFCURVE",
"-112 -158 OFFCURVE",
"-112 -162 CURVE SMOOTH",
"-112 -199 OFFCURVE",
"-89 -220 OFFCURVE",
"-65 -220 CURVE SMOOTH",
"-37 -220 OFFCURVE",
"-20 -191 OFFCURVE",
"-20 -159 CURVE SMOOTH",
"-20 -124 OFFCURVE",
"-35 -97 OFFCURVE",
"-69 -97 CURVE SMOOTH",
"-115 -97 OFFCURVE",
"-148 -154 OFFCURVE",
"-148 -210 CURVE SMOOTH",
"-148 -277 OFFCURVE",
"-105 -342 OFFCURVE",
"-16 -342 CURVE SMOOTH",
"71 -342 OFFCURVE",
"116 -290 OFFCURVE",
"116 -213 CURVE SMOOTH",
"116 -140 OFFCURVE",
"57 -99 OFFCURVE",
"22 -94 CURVE"
);
},
{
closed = 1;
nodes = (
"-51 -126 OFFCURVE",
"-36 -138 OFFCURVE",
"-36 -159 CURVE SMOOTH",
"-36 -171 OFFCURVE",
"-45 -182 OFFCURVE",
"-65 -182 CURVE SMOOTH",
"-79 -182 OFFCURVE",
"-94 -172 OFFCURVE",
"-94 -149 CURVE SMOOTH",
"-94 -144 OFFCURVE",
"-94 -138 OFFCURVE",
"-93 -133 CURVE",
"-89 -130 OFFCURVE",
"-81 -126 OFFCURVE",
"-71 -126 CURVE SMOOTH"
);
},
{
closed = 1;
nodes = (
"23 43 LINE",
"50 31 OFFCURVE",
"71 5 OFFCURVE",
"71 -23 CURVE SMOOTH",
"71 -56 OFFCURVE",
"45 -84 OFFCURVE",
"22 -94 CURVE",
"36 -106 LINE",
"71 -91 OFFCURVE",
"106 -66 OFFCURVE",
"106 -24 CURVE SMOOTH",
"106 15 OFFCURVE",
"68 41 OFFCURVE",
"31 55 CURVE"
);
},
{
closed = 1;
nodes = (
"-250 712 OFFCURVE",
"-275 675 OFFCURVE",
"-275 643 CURVE SMOOTH",
"-275 607 OFFCURVE",
"-250 578 OFFCURVE",
"-215 578 CURVE SMOOTH",
"-177 578 OFFCURVE",
"-160 604 OFFCURVE",
"-160 641 CURVE",
"-161 668 OFFCURVE",
"-158 675 OFFCURVE",
"-142 675 CURVE SMOOTH",
"-112 675 OFFCURVE",
"-86 621 OFFCURVE",
"-86 581 CURVE SMOOTH",
"-86 534 OFFCURVE",
"-116 506 OFFCURVE",
"-169 506 CURVE",
"-169 423 LINE",
"-90 423 OFFCURVE",
"-33 478 OFFCURVE",
"-33 547 CURVE SMOOTH",
"-33 643 OFFCURVE",
"-104 712 OFFCURVE",
"-174 712 CURVE SMOOTH"
);
}
);
width = 101;
}
);
unicode = 0CC8;
},
{
color = 3;
glyphname = knmO;
lastChange = "2015-11-28 16:13:45 +0000";
layers = (
{
layerId = "034236B8-3FA8-43DA-9EDA-EFF269A687EC";
leftMetricsKey = "=knUUmatra";
name = Regular;
paths = (
{
closed = 1;
nodes = (
"562 140 OFFCURVE",
"512 65 OFFCURVE",
"424 65 CURVE SMOOTH",
"349 65 OFFCURVE",
"307 112 OFFCURVE",
"307 169 CURVE",
"307 211 OFFCURVE",
"316 237 OFFCURVE",
"328 237 CURVE SMOOTH",
"333 237 OFFCURVE",
"334 232 OFFCURVE",
"334 227 CURVE SMOOTH",
"334 191 OFFCURVE",
"356 165 OFFCURVE",
"389 165 CURVE SMOOTH",
"424 165 OFFCURVE",
"449 194 OFFCURVE",
"449 230 CURVE SMOOTH",
"449 262 OFFCURVE",
"424 299 OFFCURVE",
"371 299 CURVE SMOOTH",
"292 299 OFFCURVE",
"255 233 OFFCURVE",
"255 155 CURVE",
"255 56 OFFCURVE",
"318 -14 OFFCURVE",
"404 -14 CURVE SMOOTH",
"515 -14 OFFCURVE",
"601 82 OFFCURVE",
"601 238 CURVE",
"601 424 OFFCURVE",
"463 519 OFFCURVE",
"346 519 CURVE",
"253 519 OFFCURVE",
"132 456 OFFCURVE",
"132 293 CURVE",
"132 177 OFFCURVE",
"116 93 OFFCURVE",
"33 93 CURVE",
"-35 93 OFFCURVE",
"-104 145 OFFCURVE",
"-123 189 CURVE",
"-148 119 LINE",
"-115 62 OFFCURVE",
"-29 -14 OFFCURVE",
"44 -14 CURVE",
"154 -14 OFFCURVE",
"179 103 OFFCURVE",
"179 294 CURVE",
"179 416 OFFCURVE",
"268 437 OFFCURVE",
"346 437 CURVE SMOOTH",
"440 437 OFFCURVE",
"562 357 OFFCURVE",
"562 235 CURVE"
);
},
{
closed = 1;
nodes = (
"-338 714 OFFCURVE",
"-364 677 OFFCURVE",
"-364 645 CURVE SMOOTH",
"-364 609 OFFCURVE",
"-338 580 OFFCURVE",
"-304 580 CURVE SMOOTH",
"-266 580 OFFCURVE",
"-249 606 OFFCURVE",
"-249 643 CURVE",
"-250 670 OFFCURVE",
"-246 677 OFFCURVE",
"-230 677 CURVE SMOOTH",
"-200 677 OFFCURVE",
"-175 623 OFFCURVE",
"-175 583 CURVE SMOOTH",
"-175 536 OFFCURVE",
"-205 508 OFFCURVE",
"-258 508 CURVE",
"-258 425 LINE",
"-179 425 OFFCURVE",
"-122 480 OFFCURVE",
"-122 549 CURVE SMOOTH",
"-122 645 OFFCURVE",
"-192 714 OFFCURVE",
"-263 714 CURVE SMOOTH"
);
}
);
width = 671;
},
{
associatedMasterId = "034236B8-3FA8-43DA-9EDA-EFF269A687EC";
layerId = "CD0E6DFA-EC3B-4ACF-B72C-A107C9C8004F";
name = "Regular Nov 20 15, 18:29";
paths = (
{
closed = 1;
nodes = (
"-45 591 OFFCURVE",
"-77 655 OFFCURVE",
"-146 655 CURVE SMOOTH",
"-192 655 OFFCURVE",
"-214 623 OFFCURVE",
"-214 595 CURVE SMOOTH",
"-214 564 OFFCURVE",
"-192 539 OFFCURVE",
"-162 539 CURVE SMOOTH",
"-133 539 OFFCURVE",
"-114 561 OFFCURVE",
"-114 593 CURVE SMOOTH",
"-114 600 OFFCURVE",
"-113 601 OFFCURVE",
"-109 601 CURVE SMOOTH",
"-98 601 OFFCURVE",
"-79 583 OFFCURVE",
"-79 543 CURVE",
"-79 482 OFFCURVE",
"-139 450 OFFCURVE",
"-283 450 CURVE",
"-283 378 LINE",
"-122 378 OFFCURVE",
"-45 421 OFFCURVE",
"-45 533 CURVE"
);
},
{
closed = 1;
nodes = (
"182 -14 OFFCURVE",
"204 88 OFFCURVE",
"204 254 CURVE",
"204 360 OFFCURVE",
"291 378 OFFCURVE",
"339 378 CURVE SMOOTH",
"411 378 OFFCURVE",
"494 313 OFFCURVE",
"494 207 CURVE SMOOTH",
"494 107 OFFCURVE",
"443 42 OFFCURVE",
"381 42 CURVE SMOOTH",
"344 42 OFFCURVE",
"314 67 OFFCURVE",
"314 99 CURVE",
"314 113 OFFCURVE",
"320 133 OFFCURVE",
"331 133 CURVE SMOOTH",
"333 133 OFFCURVE",
"334 132 OFFCURVE",
"334 127 CURVE SMOOTH",
"334 101 OFFCURVE",
"349 83 OFFCURVE",
"373 83 CURVE SMOOTH",
"397 83 OFFCURVE",
"415 103 OFFCURVE",
"415 128 CURVE SMOOTH",
"415 151 OFFCURVE",
"394 177 OFFCURVE",
"356 177 CURVE SMOOTH",
"304 177 OFFCURVE",
"278 131 OFFCURVE",
"278 84 CURVE",
"278 30 OFFCURVE",
"322 -14 OFFCURVE",
"375 -14 CURVE SMOOTH",
"461 -14 OFFCURVE",
"530 65 OFFCURVE",
"530 217 CURVE SMOOTH",
"530 379 OFFCURVE",
"431 450 OFFCURVE",
"329 450 CURVE",
"248 450 OFFCURVE",
"163 395 OFFCURVE",
"163 253 CURVE",
"163 152 OFFCURVE",
"149 79 OFFCURVE",
"77 79 CURVE",
"18 79 OFFCURVE",
"-42 124 OFFCURVE",
"-59 163 CURVE",
"-80 102 LINE",
"-52 52 OFFCURVE",
"23 -14 OFFCURVE",
"87 -14 CURVE"
);
}
);
width = 574;
}
);
leftMetricsKey = "=uuMatra-kannada";
unicode = 0CCA;
},
{
color = 3;
glyphname = knmOO;
lastChange = "2015-11-28 16:14:01 +0000";
layers = (
{
layerId = "034236B8-3FA8-43DA-9EDA-EFF269A687EC";
leftMetricsKey = "=knUUmatra";
rightMetricsKey = "=knmEE";
name = Regular;
paths = (
{
closed = 1;
nodes = (
"795 394 OFFCURVE",
"785 363 OFFCURVE",
"785 327 CURVE SMOOTH",
"785 269 OFFCURVE",
"812 231 OFFCURVE",
"861 231 CURVE SMOOTH",
"897 231 OFFCURVE",
"954 271 OFFCURVE",
"954 347 CURVE SMOOTH",
"954 423 OFFCURVE",
"917 478 OFFCURVE",
"853 478 CURVE SMOOTH",
"762 478 OFFCURVE",
"711 365 OFFCURVE",
"711 250 CURVE SMOOTH",
"711 153 OFFCURVE",
"749 61 OFFCURVE",
"818 -13 CURVE",
"871 -13 LINE",
"870 16 LINE",
"792 93 OFFCURVE",
"747 172 OFFCURVE",
"747 242 CURVE",
"747 348 OFFCURVE",
"789 410 OFFCURVE",
"860 410 CURVE SMOOTH",
"897 410 OFFCURVE",
"926 388 OFFCURVE",
"926 349 CURVE SMOOTH",
"926 319 OFFCURVE",
"901 289 OFFCURVE",
"862 289 CURVE SMOOTH",
"827 289 OFFCURVE",
"809 316 OFFCURVE",
"809 349 CURVE SMOOTH",
"809 383 OFFCURVE",
"823 410 OFFCURVE",
"849 440 CURVE",
"805 422 LINE"
);
},
{
closed = 1;
nodes = (
"562 140 OFFCURVE",
"512 65 OFFCURVE",
"424 65 CURVE SMOOTH",
"349 65 OFFCURVE",
"306 112 OFFCURVE",
"306 169 CURVE",
"306 211 OFFCURVE",
"316 237 OFFCURVE",
"328 237 CURVE SMOOTH",
"333 237 OFFCURVE",
"334 232 OFFCURVE",
"334 227 CURVE SMOOTH",
"334 191 OFFCURVE",
"356 165 OFFCURVE",
"389 165 CURVE SMOOTH",
"424 165 OFFCURVE",
"449 194 OFFCURVE",
"449 230 CURVE SMOOTH",
"449 262 OFFCURVE",
"424 299 OFFCURVE",
"371 299 CURVE SMOOTH",
"291 299 OFFCURVE",
"255 233 OFFCURVE",
"255 155 CURVE",
"255 56 OFFCURVE",
"318 -14 OFFCURVE",
"404 -14 CURVE SMOOTH",
"515 -14 OFFCURVE",
"601 82 OFFCURVE",
"601 238 CURVE",
"601 424 OFFCURVE",
"463 519 OFFCURVE",
"345 519 CURVE",
"252 519 OFFCURVE",
"132 456 OFFCURVE",
"132 293 CURVE",
"132 177 OFFCURVE",
"115 93 OFFCURVE",
"33 93 CURVE",
"-35 93 OFFCURVE",
"-104 145 OFFCURVE",
"-124 189 CURVE",
"-148 119 LINE",
"-116 62 OFFCURVE",
"-29 -14 OFFCURVE",
"44 -14 CURVE",
"153 -14 OFFCURVE",
"179 103 OFFCURVE",
"179 294 CURVE",
"179 416 OFFCURVE",
"267 437 OFFCURVE",
"345 437 CURVE SMOOTH",
"440 437 OFFCURVE",
"562 357 OFFCURVE",
"562 235 CURVE"
);
},
{
closed = 1;
nodes = (
"-339 714 OFFCURVE",
"-364 677 OFFCURVE",
"-364 645 CURVE SMOOTH",
"-364 609 OFFCURVE",
"-339 580 OFFCURVE",
"-304 580 CURVE SMOOTH",
"-266 580 OFFCURVE",
"-249 606 OFFCURVE",
"-249 643 CURVE",
"-250 670 OFFCURVE",
"-247 677 OFFCURVE",
"-231 677 CURVE SMOOTH",
"-201 677 OFFCURVE",
"-175 623 OFFCURVE",
"-175 583 CURVE SMOOTH",
"-175 536 OFFCURVE",
"-205 508 OFFCURVE",
"-258 508 CURVE",
"-258 425 LINE",
"-179 425 OFFCURVE",
"-123 480 OFFCURVE",
"-123 549 CURVE SMOOTH",
"-123 645 OFFCURVE",
"-193 714 OFFCURVE",
"-263 714 CURVE SMOOTH"
);
}
);
width = 974;
},
{
associatedMasterId = "034236B8-3FA8-43DA-9EDA-EFF269A687EC";
layerId = "D117E8D1-7E84-4CE2-983C-EDDF3C1B6C05";
name = "Regular Nov 20 15, 18:29";
paths = (
{
closed = 1;
nodes = (
"105 591 OFFCURVE",
"73 655 OFFCURVE",
"4 655 CURVE SMOOTH",
"-42 655 OFFCURVE",
"-64 623 OFFCURVE",
"-64 595 CURVE SMOOTH",
"-64 564 OFFCURVE",
"-42 539 OFFCURVE",
"-12 539 CURVE SMOOTH",
"17 539 OFFCURVE",
"36 561 OFFCURVE",
"36 593 CURVE SMOOTH",
"36 600 OFFCURVE",
"37 601 OFFCURVE",
"41 601 CURVE SMOOTH",
"52 601 OFFCURVE",
"71 583 OFFCURVE",
"71 543 CURVE",
"71 482 OFFCURVE",
"11 450 OFFCURVE",
"-133 450 CURVE",
"-133 378 LINE",
"28 378 OFFCURVE",
"105 421 OFFCURVE",
"105 533 CURVE"
);
},
{
closed = 1;
nodes = (
"182 -14 OFFCURVE",
"204 88 OFFCURVE",
"204 254 CURVE",
"204 360 OFFCURVE",
"291 378 OFFCURVE",
"339 378 CURVE SMOOTH",
"411 378 OFFCURVE",
"494 313 OFFCURVE",
"494 207 CURVE SMOOTH",
"494 107 OFFCURVE",
"443 42 OFFCURVE",
"381 42 CURVE SMOOTH",
"344 42 OFFCURVE",
"314 67 OFFCURVE",
"314 99 CURVE",
"314 113 OFFCURVE",
"320 133 OFFCURVE",
"331 133 CURVE SMOOTH",
"333 133 OFFCURVE",
"334 132 OFFCURVE",
"334 127 CURVE SMOOTH",
"334 101 OFFCURVE",
"349 83 OFFCURVE",
"373 83 CURVE SMOOTH",
"397 83 OFFCURVE",
"415 103 OFFCURVE",
"415 128 CURVE SMOOTH",
"415 151 OFFCURVE",
"394 177 OFFCURVE",
"356 177 CURVE SMOOTH",
"304 177 OFFCURVE",
"278 131 OFFCURVE",
"278 84 CURVE",
"278 30 OFFCURVE",
"322 -14 OFFCURVE",
"375 -14 CURVE SMOOTH",
"461 -14 OFFCURVE",
"530 65 OFFCURVE",
"530 217 CURVE SMOOTH",
"530 379 OFFCURVE",
"431 450 OFFCURVE",
"329 450 CURVE",
"248 450 OFFCURVE",
"163 395 OFFCURVE",
"163 253 CURVE",
"163 152 OFFCURVE",
"149 79 OFFCURVE",
"77 79 CURVE",
"18 79 OFFCURVE",
"-42 124 OFFCURVE",
"-59 163 CURVE",
"-80 102 LINE",
"-52 52 OFFCURVE",
"23 -14 OFFCURVE",
"87 -14 CURVE"
);
},
{
closed = 1;
nodes = (
"680 341 OFFCURVE",
"666 314 OFFCURVE",
"666 283 CURVE SMOOTH",
"666 232 OFFCURVE",
"690 199 OFFCURVE",
"732 199 CURVE SMOOTH",
"764 199 OFFCURVE",
"813 234 OFFCURVE",
"813 300 CURVE SMOOTH",
"813 366 OFFCURVE",
"781 414 OFFCURVE",
"725 414 CURVE SMOOTH",
"646 414 OFFCURVE",
"602 316 OFFCURVE",
"602 216 CURVE SMOOTH",
"602 131 OFFCURVE",
"635 52 OFFCURVE",
"695 -12 CURVE",
"767 -12 LINE",
"682 62 OFFCURVE",
"633 140 OFFCURVE",
"633 209 CURVE",
"633 301 OFFCURVE",
"670 355 OFFCURVE",
"731 355 CURVE SMOOTH",
"764 355 OFFCURVE",
"789 336 OFFCURVE",
"789 302 CURVE SMOOTH",
"789 276 OFFCURVE",
"767 250 OFFCURVE",
"733 250 CURVE SMOOTH",
"703 250 OFFCURVE",
"687 273 OFFCURVE",
"687 302 CURVE SMOOTH",
"687 331 OFFCURVE",
"699 355 OFFCURVE",
"722 381 CURVE",
"689 365 LINE"
);
}
);
width = 857;
}
);
leftMetricsKey = "=uuMatra-kannada";
rightMetricsKey = "=eeMatra-kannada";
unicode = 0CCB;
},
{
color = 3;
glyphname = knmAU;
lastChange = "2015-11-28 16:14:13 +0000";
layers = (
{
layerId = "034236B8-3FA8-43DA-9EDA-EFF269A687EC";
name = Regular;
paths = (
{
closed = 1;
nodes = (
"-217 620 LINE",
"-217 548 LINE",
"49 548 LINE",
"184 548 OFFCURVE",
"274 486 OFFCURVE",
"274 365 CURVE SMOOTH",
"274 282 OFFCURVE",
"231 225 OFFCURVE",
"154 225 CURVE SMOOTH",
"89 225 OFFCURVE",
"52 266 OFFCURVE",
"52 322 CURVE",
"52 352 OFFCURVE",
"60 374 OFFCURVE",
"71 374 CURVE SMOOTH",
"75 374 OFFCURVE",
"76 373 OFFCURVE",
"76 366 CURVE SMOOTH",
"76 334 OFFCURVE",
"95 312 OFFCURVE",
"124 312 CURVE SMOOTH",
"154 312 OFFCURVE",
"176 337 OFFCURVE",
"176 368 CURVE SMOOTH",
"176 396 OFFCURVE",
"154 428 OFFCURVE",
"108 428 CURVE SMOOTH",
"39 428 OFFCURVE",
"7 371 OFFCURVE",
"7 303 CURVE",
"7 217 OFFCURVE",
"62 156 OFFCURVE",
"137 156 CURVE SMOOTH",
"233 156 OFFCURVE",
"308 240 OFFCURVE",
"308 375 CURVE SMOOTH",
"308 517 OFFCURVE",
"201 620 OFFCURVE",
"41 620 CURVE"
);
},
{
closed = 1;
nodes = (
"-143 557 LINE",
"-119 542 OFFCURVE",
"-111 520 OFFCURVE",
"-111 501 CURVE SMOOTH",
"-111 465 OFFCURVE",
"-138 440 OFFCURVE",
"-183 440 CURVE SMOOTH",
"-224 440 LINE",
"-225 368 LINE",
"-183 368 LINE",
"-114 368 OFFCURVE",
"-65 416 OFFCURVE",
"-65 476 CURVE SMOOTH",
"-65 515 OFFCURVE",
"-85 551 OFFCURVE",
"-130 575 CURVE"
);
}
);
width = 318;
}
);
unicode = 0CCC;
},
{
color = 3;
glyphname = knLengthmark;
lastChange = "2015-11-28 16:14:24 +0000";
layers = (
{
layerId = "034236B8-3FA8-43DA-9EDA-EFF269A687EC";
rightMetricsKey = "=knmEE";
name = Regular;
paths = (
{
closed = 1;
nodes = (
"140 391 OFFCURVE",
"124 360 OFFCURVE",
"124 324 CURVE SMOOTH",
"124 266 OFFCURVE",
"152 228 OFFCURVE",
"200 228 CURVE SMOOTH",
"237 228 OFFCURVE",
"293 268 OFFCURVE",
"293 344 CURVE SMOOTH",
"293 420 OFFCURVE",
"256 475 OFFCURVE",
"192 475 CURVE SMOOTH",
"101 475 OFFCURVE",
"50 362 OFFCURVE",
"50 247 CURVE SMOOTH",
"50 150 OFFCURVE",
"88 59 OFFCURVE",
"157 -15 CURVE",
"240 -15 LINE",
"142 70 OFFCURVE",
"86 160 OFFCURVE",
"86 239 CURVE",
"86 345 OFFCURVE",
"129 407 OFFCURVE",
"199 407 CURVE SMOOTH",
"237 407 OFFCURVE",
"265 385 OFFCURVE",
"265 346 CURVE SMOOTH",
"265 316 OFFCURVE",
"240 286 OFFCURVE",
"201 286 CURVE SMOOTH",
"167 286 OFFCURVE",
"148 313 OFFCURVE",
"148 346 CURVE SMOOTH",
"148 380 OFFCURVE",
"162 407 OFFCURVE",
"188 437 CURVE",
"150 419 LINE"
);
}
);
width = 313;
}
);
rightMetricsKey = "=eeMatra-kannada";
unicode = 0CD5;
},
{
color = 3;
glyphname = knAIlengthmark;
lastChange = "2015-11-28 16:14:43 +0000";
layers = (
{
layerId = "034236B8-3FA8-43DA-9EDA-EFF269A687EC";
name = Regular;
paths = (
{
closed = 1;
nodes = (
"115 -110 OFFCURVE",
"56 -69 OFFCURVE",
"20 -64 CURVE",
"18 -75 LINE",
"54 -91 OFFCURVE",
"92 -125 OFFCURVE",
"92 -178 CURVE SMOOTH",
"92 -233 OFFCURVE",
"49 -271 OFFCURVE",
"-12 -271 CURVE SMOOTH",
"-85 -271 OFFCURVE",
"-129 -230 OFFCURVE",
"-129 -170 CURVE SMOOTH",
"-129 -152 OFFCURVE",
"-124 -129 OFFCURVE",
"-111 -114 CURVE",
"-112 -119 OFFCURVE",
"-113 -128 OFFCURVE",
"-113 -132 CURVE SMOOTH",
"-113 -169 OFFCURVE",
"-90 -190 OFFCURVE",
"-66 -190 CURVE SMOOTH",
"-38 -190 OFFCURVE",
"-21 -161 OFFCURVE",
"-21 -129 CURVE SMOOTH",
"-21 -94 OFFCURVE",
"-36 -67 OFFCURVE",
"-70 -67 CURVE SMOOTH",
"-116 -67 OFFCURVE",
"-150 -124 OFFCURVE",
"-150 -180 CURVE SMOOTH",
"-150 -247 OFFCURVE",
"-106 -312 OFFCURVE",
"-17 -312 CURVE SMOOTH",
"70 -312 OFFCURVE",
"115 -260 OFFCURVE",
"115 -183 CURVE SMOOTH"
);
},
{
closed = 1;
nodes = (
"-37 -141 OFFCURVE",
"-46 -152 OFFCURVE",
"-66 -152 CURVE SMOOTH",
"-81 -152 OFFCURVE",
"-96 -142 OFFCURVE",
"-96 -119 CURVE SMOOTH",
"-96 -114 OFFCURVE",
"-96 -108 OFFCURVE",
"-95 -103 CURVE",
"-90 -100 OFFCURVE",
"-82 -96 OFFCURVE",
"-73 -96 CURVE SMOOTH",
"-52 -96 OFFCURVE",
"-37 -108 OFFCURVE",
"-37 -129 CURVE SMOOTH"
);
},
{
closed = 1;
nodes = (
"34 -76 LINE",
"70 -61 OFFCURVE",
"104 -36 OFFCURVE",
"104 6 CURVE SMOOTH",
"104 45 OFFCURVE",
"66 71 OFFCURVE",
"30 85 CURVE",
"22 73 LINE",
"49 61 OFFCURVE",
"70 35 OFFCURVE",
"70 7 CURVE SMOOTH",
"70 -26 OFFCURVE",
"43 -54 OFFCURVE",
"20 -64 CURVE"
);
}
);
width = 105;
}
);
unicode = 0CD6;
},
{
color = 3;
glyphname = knKA;
lastChange = "2015-11-30 18:58:57 +0000";
layers = (
{
background = {
paths = (
{
closed = 1;
nodes = (
"312 72 OFFCURVE",
"364 124 OFFCURVE",
"364 187 CURVE SMOOTH",
"364 251 OFFCURVE",
"312 303 OFFCURVE",
"247 303 CURVE SMOOTH",
"183 303 OFFCURVE",
"131 251 OFFCURVE",
"131 187 CURVE SMOOTH",
"131 124 OFFCURVE",
"183 72 OFFCURVE",
"247 72 CURVE SMOOTH"
);
},
{
closed = 1;
nodes = (
"151 -14 OFFCURVE",
"74 64 OFFCURVE",
"74 158 CURVE SMOOTH",
"74 253 OFFCURVE",
"151 330 OFFCURVE",
"247 330 CURVE SMOOTH",
"343 330 OFFCURVE",
"420 253 OFFCURVE",
"420 158 CURVE SMOOTH",
"420 64 OFFCURVE",
"343 -14 OFFCURVE",
"247 -14 CURVE SMOOTH"
);
}
);
};
guideLines = (
{
angle = 90;
position = "{295, 488}";
},
{
angle = 270;
position = "{40, -78}";
}
);
layerId = "034236B8-3FA8-43DA-9EDA-EFF269A687EC";
name = Regular;
paths = (
{
closed = 1;
nodes = (
"151 327 OFFCURVE",
"74 248 OFFCURVE",
"74 158 CURVE SMOOTH",
"74 64 OFFCURVE",
"151 -14 OFFCURVE",
"248 -14 CURVE SMOOTH",
"342 -14 OFFCURVE",
"419 64 OFFCURVE",
"419 158 CURVE SMOOTH",
"419 248 OFFCURVE",
"342 327 OFFCURVE",
"248 327 CURVE SMOOTH"
);
},
{
closed = 1;
nodes = (
"310 303 OFFCURVE",
"363 251 OFFCURVE",
"363 185 CURVE SMOOTH",
"363 117 OFFCURVE",
"312 71 OFFCURVE",
"248 71 CURVE SMOOTH",
"183 71 OFFCURVE",
"132 117 OFFCURVE",
"132 185 CURVE SMOOTH",
"132 251 OFFCURVE",
"185 303 OFFCURVE",
"248 303 CURVE"
);
},
{
closed = 1;
nodes = (
"40 365 LINE",
"40 294 LINE",
"192 294 LINE",
"248 306 LINE SMOOTH",
"307 294 LINE",
"472 294 LINE",
"472 365 LINE"
);
},
{
closed = 1;
nodes = (
"383 644 LINE",
"407 635 OFFCURVE",
"429 610 OFFCURVE",
"429 576 CURVE SMOOTH",
"429 536 OFFCURVE",
"398 509 OFFCURVE",
"337 509 CURVE SMOOTH",
"40 509 LINE",
"40 434 LINE",
"337 434 LINE SMOOTH",
"418 434 OFFCURVE",
"472 480 OFFCURVE",
"472 552 CURVE SMOOTH",
"472 607 OFFCURVE",
"441 648 OFFCURVE",
"398 664 CURVE"
);
},
{
closed = 1;
nodes = (
"275 438 OFFCURVE",
"258 471 OFFCURVE",
"218 488 CURVE",
"203 465 LINE",
"227 453 OFFCURVE",
"239 430 OFFCURVE",
"239 401 CURVE SMOOTH",
"239 372 OFFCURVE",
"227 349 OFFCURVE",
"203 337 CURVE",
"218 314 LINE",
"258 331 OFFCURVE",
"275 364 OFFCURVE",
"275 401 CURVE SMOOTH"
);
}
);
width = 502;
}
);
unicode = 0C95;
},
{
color = 3;
glyphname = knKHA;
lastChange = "2015-11-30 18:15:03 +0000";
layers = (
{
background = {
paths = (
{
closed = 0;
nodes = (
"526 -15 LINE SMOOTH",
"680 -15 OFFCURVE",
"768 169 OFFCURVE",
"768 279 CURVE",
"768 445 OFFCURVE",
"689 520 OFFCURVE",
"590 520 CURVE SMOOTH"
);
},
{
closed = 0;
nodes = (
"597 455 LINE SMOOTH",
"668 455 OFFCURVE",
"727 397 OFFCURVE",
"727 287 CURVE",
"727 159 OFFCURVE",
"658 71 OFFCURVE",
"531 71 CURVE SMOOTH"
);
}
);
};
layerId = "034236B8-3FA8-43DA-9EDA-EFF269A687EC";
name = Regular;
paths = (
{
closed = 1;
nodes = (
"382 71 OFFCURVE",
"335 229 OFFCURVE",
"180 229 CURVE SMOOTH",
"94 229 OFFCURVE",
"40 181 OFFCURVE",
"40 109 CURVE",
"40 39 OFFCURVE",
"109 -14 OFFCURVE",
"195 -14 CURVE SMOOTH",
"349 -14 OFFCURVE",
"437 169 OFFCURVE",
"437 279 CURVE",
"437 445 OFFCURVE",
"358 520 OFFCURVE",
"259 520 CURVE SMOOTH",
"198 520 OFFCURVE",
"147 469 OFFCURVE",
"147 407 CURVE",
"147 353 OFFCURVE",
"177 300 OFFCURVE",
"237 300 CURVE SMOOTH",
"281 300 OFFCURVE",
"305 330 OFFCURVE",
"305 356 CURVE SMOOTH",
"305 385 OFFCURVE",
"284 408 OFFCURVE",
"257 408 CURVE SMOOTH",
"229 408 OFFCURVE",
"212 387 OFFCURVE",
"212 357 CURVE SMOOTH",
"212 352 OFFCURVE",
"211 351 OFFCURVE",
"208 351 CURVE SMOOTH",
"196 351 OFFCURVE",
"189 374 OFFCURVE",
"189 390 CURVE",
"189 426 OFFCURVE",
"223 455 OFFCURVE",
"266 455 CURVE SMOOTH",
"337 455 OFFCURVE",
"396 397 OFFCURVE",
"396 287 CURVE",
"396 159 OFFCURVE",
"327 71 OFFCURVE",
"200 71 CURVE SMOOTH",
"137 71 OFFCURVE",
"112 98 OFFCURVE",
"112 127 CURVE",
"112 167 OFFCURVE",
"143 193 OFFCURVE",
"200 193 CURVE SMOOTH",
"346 193 OFFCURVE",
"373 -14 OFFCURVE",
"529 -14 CURVE SMOOTH",
"689 -14 OFFCURVE",
"768 115 OFFCURVE",
"768 282 CURVE",
"768 415 OFFCURVE",
"681 513 OFFCURVE",
"610 513 CURVE SMOOTH",
"579 513 OFFCURVE",
"562 493 OFFCURVE",
"562 470 CURVE SMOOTH",
"562 451 OFFCURVE",
"574 435 OFFCURVE",
"590 430 CURVE SMOOTH",
"613 423 OFFCURVE",
"634 428 OFFCURVE",
"658 420 CURVE SMOOTH",
"695 407 OFFCURVE",
"727 364 OFFCURVE",
"727 292 CURVE",
"727 159 OFFCURVE",
"658 71 OFFCURVE",
"531 71 CURVE SMOOTH"
);
}
);
width = 823;
},
{
associatedMasterId = "034236B8-3FA8-43DA-9EDA-EFF269A687EC";
layerId = "D6E0259D-88FF-445B-AE63-115C229FBC8F";
name = "Regular Nov 2 15, 17:16";
paths = (
{
closed = 1;
nodes = (
"698 92 OFFCURVE",
"626 -14 OFFCURVE",
"503 -14 CURVE SMOOTH",
"387 -14 OFFCURVE",
"326 167 OFFCURVE",
"209 167 CURVE SMOOTH",
"161 167 OFFCURVE",
"122 144 OFFCURVE",
"122 118 CURVE",
"122 93 OFFCURVE",
"154 79 OFFCURVE",
"194 79 CURVE SMOOTH",
"310 79 OFFCURVE",
"369 137 OFFCURVE",
"369 254 CURVE SMOOTH",
"369 344 OFFCURVE",
"318 409 OFFCURVE",
"256 409 CURVE SMOOTH",
"219 409 OFFCURVE",
"189 384 OFFCURVE",
"189 352 CURVE SMOOTH",
"189 323 OFFCURVE",
"203 301 OFFCURVE",
"220 301 CURVE",
"211 308 OFFCURVE",
"206 319 OFFCURVE",
"206 331 CURVE SMOOTH",
"206 351 OFFCURVE",
"224 367 OFFCURVE",
"245 367 CURVE SMOOTH",
"269 367 OFFCURVE",
"286 350 OFFCURVE",
"286 326 CURVE SMOOTH",
"286 301 OFFCURVE",
"262 280 OFFCURVE",
"230 280 CURVE SMOOTH",
"188 280 OFFCURVE",
"153 319 OFFCURVE",
"153 367 CURVE SMOOTH",
"153 421 OFFCURVE",
"197 465 OFFCURVE",
"250 465 CURVE SMOOTH",
"336 465 OFFCURVE",
"405 386 OFFCURVE",
"405 244 CURVE SMOOTH",
"405 146 OFFCURVE",
"328 -14 OFFCURVE",
"194 -14 CURVE SMOOTH",
"120 -14 OFFCURVE",
"60 33 OFFCURVE",
"60 89 CURVE",
"60 148 OFFCURVE",
"127 198 OFFCURVE",
"209 198 CURVE SMOOTH",
"316 198 OFFCURVE",
"383 79 OFFCURVE",
"503 79 CURVE SMOOTH",
"582 79 OFFCURVE",
"657 124 OFFCURVE",
"657 243 CURVE",
"657 383 OFFCURVE",
"576 512 OFFCURVE",
"474 512 CURVE SMOOTH",
"465 512 OFFCURVE",
"457 509 OFFCURVE",
"450 506 CURVE SMOOTH",
"444 504 OFFCURVE",
"438 501 OFFCURVE",
"431 501 CURVE SMOOTH",
"419 501 OFFCURVE",
"410 511 OFFCURVE",
"410 522 CURVE SMOOTH",
"410 546 OFFCURVE",
"438 563 OFFCURVE",
"472 563 CURVE SMOOTH",
"550 563 OFFCURVE",
"698 444 OFFCURVE",
"698 223 CURVE"
);
}
);
width = 698;
},
{
associatedMasterId = "034236B8-3FA8-43DA-9EDA-EFF269A687EC";
layerId = "16A2C33D-AFAE-47CB-AF6F-98191B6DF76D";
name = "Regular Nov 18 15, 11:36";
paths = (
{
closed = 1;
nodes = (
"385 146 OFFCURVE",
"308 -14 OFFCURVE",
"174 -14 CURVE SMOOTH",
"100 -14 OFFCURVE",
"40 33 OFFCURVE",
"40 94 CURVE",
"40 148 OFFCURVE",
"87 198 OFFCURVE",
"179 198 CURVE SMOOTH",
"296 198 OFFCURVE",
"363 79 OFFCURVE",
"483 79 CURVE SMOOTH",
"562 79 OFFCURVE",
"637 124 OFFCURVE",
"637 243 CURVE",
"637 383 OFFCURVE",
"556 512 OFFCURVE",
"454 512 CURVE SMOOTH",
"445 512 OFFCURVE",
"437 509 OFFCURVE",
"430 506 CURVE SMOOTH",
"424 504 OFFCURVE",
"418 501 OFFCURVE",
"411 501 CURVE SMOOTH",
"399 501 OFFCURVE",
"390 511 OFFCURVE",
"390 522 CURVE SMOOTH",
"390 546 OFFCURVE",
"418 563 OFFCURVE",
"452 563 CURVE SMOOTH",
"530 563 OFFCURVE",
"678 444 OFFCURVE",
"678 243 CURVE",
"678 92 OFFCURVE",
"606 -14 OFFCURVE",
"483 -14 CURVE SMOOTH",
"367 -14 OFFCURVE",
"306 167 OFFCURVE",
"179 167 CURVE SMOOTH",
"129 167 OFFCURVE",
"102 144 OFFCURVE",
"102 118 CURVE",
"102 93 OFFCURVE",
"124 79 OFFCURVE",
"179 79 CURVE SMOOTH",
"289 79 OFFCURVE",
"349 137 OFFCURVE",
"349 254 CURVE",
"349 344 OFFCURVE",
"298 409 OFFCURVE",
"236 409 CURVE SMOOTH",
"199 409 OFFCURVE",
"169 384 OFFCURVE",
"169 352 CURVE",
"169 338 OFFCURVE",
"175 318 OFFCURVE",
"186 318 CURVE SMOOTH",
"188 318 OFFCURVE",
"189 319 OFFCURVE",
"189 324 CURVE SMOOTH",
"189 350 OFFCURVE",
"204 368 OFFCURVE",
"228 368 CURVE SMOOTH",
"252 368 OFFCURVE",
"270 348 OFFCURVE",
"270 323 CURVE SMOOTH",
"270 300 OFFCURVE",
"249 274 OFFCURVE",
"211 274 CURVE SMOOTH",
"159 274 OFFCURVE",
"133 320 OFFCURVE",
"133 367 CURVE",
"133 421 OFFCURVE",
"177 465 OFFCURVE",
"230 465 CURVE SMOOTH",
"316 465 OFFCURVE",
"385 386 OFFCURVE",
"385 244 CURVE"
);
}
);
width = 728;
}
);
unicode = 0C96;
},
{
color = 3;
glyphname = knGA;
lastChange = "2015-11-30 18:58:33 +0000";
layers = (
{
background = {
paths = (
{
closed = 1;
nodes = (
"443 641 LINE",
"471 623 OFFCURVE",
"480 598 OFFCURVE",
"480 576 CURVE SMOOTH",
"480 535 OFFCURVE",
"449 506 OFFCURVE",
"397 506 CURVE SMOOTH",
"77 506 LINE",
"77 423 LINE",
"397 423 LINE",
"477 423 OFFCURVE",
"533 478 OFFCURVE",
"533 547 CURVE SMOOTH",
"533 592 OFFCURVE",
"510 634 OFFCURVE",
"458 661 CURVE"
);
}
);
};
guideLines = (
{
angle = 270;
position = "{40, -78}";
}
);
layerId = "034236B8-3FA8-43DA-9EDA-EFF269A687EC";
name = Regular;
paths = (
{
closed = 1;
nodes = (
"231 449 LINE",
"128 388 OFFCURVE",
"65 247 OFFCURVE",
"65 71 CURVE SMOOTH",
"65 0 LINE",
"148 0 LINE",
"148 118 LINE SMOOTH",
"148 317 OFFCURVE",
"217 438 OFFCURVE",
"302 438 CURVE SMOOTH",
"387 438 OFFCURVE",
"456 317 OFFCURVE",
"456 118 CURVE SMOOTH",
"456 0 LINE",
"539 0 LINE",
"539 71 LINE SMOOTH",
"539 247 OFFCURVE",
"476 388 OFFCURVE",
"373 449 CURVE",
"302 465 LINE"
);
},
{
closed = 1;
nodes = (
"444 644 LINE",
"468 635 OFFCURVE",
"490 610 OFFCURVE",
"490 576 CURVE SMOOTH",
"490 536 OFFCURVE",
"459 509 OFFCURVE",
"398 509 CURVE SMOOTH",
"77 509 LINE",
"77 434 LINE",
"237 434 LINE",
"302 444 LINE",
"368 434 LINE",
"398 434 LINE SMOOTH",
"479 434 OFFCURVE",
"533 480 OFFCURVE",
"533 552 CURVE SMOOTH",
"533 607 OFFCURVE",
"502 648 OFFCURVE",
"459 664 CURVE"
);
}
);
width = 604;
}
);
unicode = 0C97;
},
{
color = 3;
glyphname = knGHA;
lastChange = "2015-11-30 19:15:37 +0000";
layers = (
{
background = {
paths = (
{
closed = 1;
nodes = (
"613 -14 OFFCURVE",
"650 84 OFFCURVE",
"650 179 CURVE SMOOTH",
"650 271 OFFCURVE",
"628 392 OFFCURVE",
"576 392 CURVE SMOOTH",
"551 392 OFFCURVE",
"534 375 OFFCURVE",
"534 352 CURVE SMOOTH",
"534 304 OFFCURVE",
"612 339 OFFCURVE",
"612 202 CURVE SMOOTH",
"612 141 OFFCURVE",
"584 71 OFFCURVE",
"508 71 CURVE",
"443 71 OFFCURVE",
"378 145 OFFCURVE",
"364 221 CURVE",
"355 221 LINE",
"341 145 OFFCURVE",
"276 71 OFFCURVE",
"201 71 CURVE",
"150 71 OFFCURVE",
"118 114 OFFCURVE",
"118 156 CURVE SMOOTH",
"118 203 OFFCURVE",
"144 227 OFFCURVE",
"181 227 CURVE SMOOTH",
"211 227 OFFCURVE",
"236 217 OFFCURVE",
"247 193 CURVE",
"263 208 LINE",
"250 250 OFFCURVE",
"226 287 OFFCURVE",
"178 287 CURVE",
"118 287 OFFCURVE",
"75 232 OFFCURVE",
"75 143 CURVE SMOOTH",
"75 56 OFFCURVE",
"109 -14 OFFCURVE",
"198 -14 CURVE",
"266 -14 OFFCURVE",
"336 43 OFFCURVE",
"359 126 CURVE",
"361 126 LINE",
"384 43 OFFCURVE",
"453 -14 OFFCURVE",
"518 -14 CURVE"
);
}
);
};
guideLines = (
{
angle = 270;
position = "{75, -78}";
}
);
layerId = "034236B8-3FA8-43DA-9EDA-EFF269A687EC";
leftMetricsKey = "=knSSA";
name = Regular;
paths = (
{
closed = 1;
nodes = (
"324 390 OFFCURVE",
"299 363 OFFCURVE",
"299 331 CURVE SMOOTH",
"299 298 OFFCURVE",
"324 271 OFFCURVE",
"358 271 CURVE SMOOTH",
"391 271 OFFCURVE",
"418 298 OFFCURVE",
"418 331 CURVE SMOOTH",
"418 363 OFFCURVE",
"391 390 OFFCURVE",
"358 390 CURVE SMOOTH"
);
},
{
closed = 1;
nodes = (
"706 472 LINE",
"741 447 OFFCURVE",
"772 401 OFFCURVE",
"772 358 CURVE SMOOTH",
"772 321 OFFCURVE",
"753 294 OFFCURVE",
"719 294 CURVE SMOOTH",
"668 294 OFFCURVE",
"616 368 OFFCURVE",
"600 390 CURVE",
"577 372 LINE",
"614 288 OFFCURVE",
"682 211 OFFCURVE",
"738 211 CURVE SMOOTH",
"794 211 OFFCURVE",
"821 253 OFFCURVE",
"821 323 CURVE SMOOTH",
"821 401 OFFCURVE",
"776 457 OFFCURVE",
"721 490 CURVE"
);
},
{
closed = 1;
nodes = (
"341 145 OFFCURVE",
"276 71 OFFCURVE",
"201 71 CURVE",
"150 71 OFFCURVE",
"118 114 OFFCURVE",
"118 156 CURVE SMOOTH",
"118 203 OFFCURVE",
"144 227 OFFCURVE",
"181 227 CURVE SMOOTH",
"211 227 OFFCURVE",
"236 217 OFFCURVE",
"247 193 CURVE",
"263 208 LINE",
"250 250 OFFCURVE",
"226 287 OFFCURVE",
"178 287 CURVE",
"118 287 OFFCURVE",
"75 232 OFFCURVE",
"75 143 CURVE SMOOTH",
"75 56 OFFCURVE",
"109 -14 OFFCURVE",
"198 -14 CURVE",
"266 -14 OFFCURVE",
"336 43 OFFCURVE",
"359 126 CURVE",
"361 126 LINE",
"384 43 OFFCURVE",
"453 -14 OFFCURVE",
"521 -14 CURVE SMOOTH",
"613 -14 OFFCURVE",
"650 84 OFFCURVE",
"650 174 CURVE SMOOTH",
"650 252 OFFCURVE",
"633 355 OFFCURVE",
"600 390 CURVE",
"577 372 LINE",
"595 330 OFFCURVE",
"612 260 OFFCURVE",
"612 202 CURVE SMOOTH",
"612 141 OFFCURVE",
"584 71 OFFCURVE",
"508 71 CURVE SMOOTH",
"443 71 OFFCURVE",
"378 145 OFFCURVE",
"364 221 CURVE",
"355 221 LINE"
);
},
{
closed = 1;
nodes = (
"422 -90 OFFCURVE",
"380 -34 OFFCURVE",
"367 46 CURVE",
"349 46 LINE",
"337 -34 OFFCURVE",
"293 -90 OFFCURVE",
"293 -131 CURVE SMOOTH",
"293 -180 OFFCURVE",
"331 -200 OFFCURVE",
"358 -200 CURVE",
"382 -200 OFFCURVE",
"422 -184 OFFCURVE",
"422 -131 CURVE SMOOTH"
);
},
{
closed = 1;
nodes = (
"582 644 LINE",
"606 635 OFFCURVE",
"628 610 OFFCURVE",
"628 576 CURVE SMOOTH",
"628 536 OFFCURVE",
"597 509 OFFCURVE",
"536 509 CURVE SMOOTH",
"75 509 LINE",
"75 434 LINE",
"536 434 LINE SMOOTH",
"617 434 OFFCURVE",
"671 480 OFFCURVE",
"671 552 CURVE SMOOTH",
"671 607 OFFCURVE",
"640 648 OFFCURVE",
"597 664 CURVE"
);
}
);
width = 846;
}
);
leftMetricsKey = "=ssa-kannada";
unicode = 0C98;
},
{
color = 3;
glyphname = knNGA;
lastChange = "2015-11-30 19:03:24 +0000";
layers = (
{
background = {
paths = (
{
closed = 1;
nodes = (
"658 185 OFFCURVE",
"631 220 OFFCURVE",
"600 250 CURVE",
"574 233 LINE",
"596 209 OFFCURVE",
"608 184 OFFCURVE",
"608 154 CURVE",
"608 116 OFFCURVE",
"585 71 OFFCURVE",
"527 71 CURVE SMOOTH",
"454 71 OFFCURVE",
"388 146 OFFCURVE",
"375 221 CURVE",
"366 221 LINE",
"352 145 OFFCURVE",
"287 71 OFFCURVE",
"214 71 CURVE SMOOTH",
"161 71 OFFCURVE",
"134 114 OFFCURVE",
"134 156 CURVE",
"134 187 OFFCURVE",
"164 219 OFFCURVE",
"196 253 CURVE SMOOTH",
"236 294 OFFCURVE",
"281 340 OFFCURVE",
"281 399 CURVE SMOOTH",
"281 473 OFFCURVE",
"223 519 OFFCURVE",
"157 519 CURVE SMOOTH",
"99 519 OFFCURVE",
"40 485 OFFCURVE",
"40 416 CURVE SMOOTH",
"40 384 OFFCURVE",
"51 352 OFFCURVE",
"72 330 CURVE",
"103 350 LINE",
"95 365 OFFCURVE",
"93 377 OFFCURVE",
"93 388 CURVE SMOOTH",
"93 425 OFFCURVE",
"118 452 OFFCURVE",
"157 452 CURVE SMOOTH",
"194 452 OFFCURVE",
"228 427 OFFCURVE",
"228 385 CURVE SMOOTH",
"228 344 OFFCURVE",
"197 311 OFFCURVE",
"165 278 CURVE SMOOTH",
"126 238 OFFCURVE",
"83 193 OFFCURVE",
"83 125 CURVE",
"83 38 OFFCURVE",
"144 -14 OFFCURVE",
"211 -14 CURVE SMOOTH",
"279 -14 OFFCURVE",
"347 43 OFFCURVE",
"370 126 CURVE",
"372 126 LINE",
"395 43 OFFCURVE",
"463 -14 OFFCURVE",
"531 -14 CURVE SMOOTH",
"597 -14 OFFCURVE",
"658 38 OFFCURVE",
"658 125 CURVE"
);
}
);
};
layerId = "034236B8-3FA8-43DA-9EDA-EFF269A687EC";
leftMetricsKey = "=knBA";
name = Regular;
paths = (
{
closed = 1;
nodes = (
"349 371 OFFCURVE",
"372 395 OFFCURVE",
"402 395 CURVE SMOOTH",
"432 395 OFFCURVE",
"455 371 OFFCURVE",
"455 341 CURVE SMOOTH",
"455 312 OFFCURVE",
"432 288 OFFCURVE",
"402 288 CURVE SMOOTH",
"372 288 OFFCURVE",
"349 312 OFFCURVE",
"349 341 CURVE SMOOTH"
);
},
{
closed = 1;
nodes = (
"383 536 OFFCURVE",
"291 438 OFFCURVE",
"239 346 CURVE",
"244 307 LINE",
"310 393 OFFCURVE",
"388 467 OFFCURVE",
"485 467 CURVE SMOOTH",
"549 467 OFFCURVE",
"590 430 OFFCURVE",
"590 376 CURVE SMOOTH",
"590 355 OFFCURVE",
"584 337 OFFCURVE",
"570 324 CURVE",
"589 308 LINE",
"615 325 OFFCURVE",
"633 356 OFFCURVE",
"633 402 CURVE SMOOTH",
"633 472 OFFCURVE",
"584 536 OFFCURVE",
"500 536 CURVE SMOOTH"
);
},
{
closed = 1;
nodes = (
"658 185 OFFCURVE",
"631 220 OFFCURVE",
"600 250 CURVE",
"574 233 LINE",
"596 209 OFFCURVE",
"608 184 OFFCURVE",
"608 154 CURVE",
"608 116 OFFCURVE",
"585 71 OFFCURVE",
"527 71 CURVE SMOOTH",
"454 71 OFFCURVE",
"388 146 OFFCURVE",
"375 221 CURVE",
"366 221 LINE",
"352 145 OFFCURVE",
"287 71 OFFCURVE",
"214 71 CURVE SMOOTH",
"161 71 OFFCURVE",
"134 114 OFFCURVE",
"134 156 CURVE",
"134 187 OFFCURVE",
"164 219 OFFCURVE",
"196 253 CURVE SMOOTH",
"236 294 OFFCURVE",
"281 340 OFFCURVE",
"281 399 CURVE SMOOTH",
"281 473 OFFCURVE",
"223 519 OFFCURVE",
"157 519 CURVE SMOOTH",
"99 519 OFFCURVE",
"40 485 OFFCURVE",
"40 416 CURVE SMOOTH",
"40 384 OFFCURVE",
"51 352 OFFCURVE",
"72 330 CURVE",
"103 350 LINE",
"95 365 OFFCURVE",
"93 377 OFFCURVE",
"93 388 CURVE SMOOTH",
"93 425 OFFCURVE",
"118 452 OFFCURVE",
"157 452 CURVE SMOOTH",
"194 452 OFFCURVE",
"228 427 OFFCURVE",
"228 385 CURVE SMOOTH",
"228 344 OFFCURVE",
"197 311 OFFCURVE",
"165 278 CURVE SMOOTH",
"126 238 OFFCURVE",
"83 193 OFFCURVE",
"83 125 CURVE",
"83 38 OFFCURVE",
"144 -14 OFFCURVE",
"211 -14 CURVE SMOOTH",
"279 -14 OFFCURVE",
"347 43 OFFCURVE",
"370 126 CURVE",
"372 126 LINE",
"395 43 OFFCURVE",
"463 -14 OFFCURVE",
"531 -14 CURVE SMOOTH",
"597 -14 OFFCURVE",
"658 38 OFFCURVE",
"658 125 CURVE"
);
}
);
width = 708;
}
);
leftMetricsKey = "=ba-kannada";
unicode = 0C99;
},
{
color = 3;
glyphname = knCA;
lastChange = "2015-11-30 19:29:52 +0000";
layers = (
{
background = {
paths = (
{
closed = 1;
nodes = (
"636 -14 OFFCURVE",
"690 84 OFFCURVE",
"690 171 CURVE SMOOTH",
"690 360 OFFCURVE",
"547 474 OFFCURVE",
"411 474 CURVE",
"401 434 LINE",
"553 424 OFFCURVE",
"650 301 OFFCURVE",
"650 203 CURVE SMOOTH",
"650 121 OFFCURVE",
"603 71 OFFCURVE",
"527 71 CURVE",
"454 71 OFFCURVE",
"388 146 OFFCURVE",
"375 221 CURVE",
"366 221 LINE",
"352 145 OFFCURVE",
"287 71 OFFCURVE",
"214 71 CURVE SMOOTH",
"161 71 OFFCURVE",
"134 104 OFFCURVE",
"134 146 CURVE",
"134 187 OFFCURVE",
"164 217 OFFCURVE",
"196 251 CURVE SMOOTH",
"236 292 OFFCURVE",
"281 338 OFFCURVE",
"281 397 CURVE SMOOTH",
"281 471 OFFCURVE",
"222 519 OFFCURVE",
"157 519 CURVE SMOOTH",
"99 519 OFFCURVE",
"40 483 OFFCURVE",
"40 414 CURVE SMOOTH",
"40 382 OFFCURVE",
"51 350 OFFCURVE",
"72 328 CURVE",
"103 348 LINE",
"95 363 OFFCURVE",
"92 375 OFFCURVE",
"92 386 CURVE SMOOTH",
"92 423 OFFCURVE",
"118 450 OFFCURVE",
"157 450 CURVE SMOOTH",
"194 450 OFFCURVE",
"228 425 OFFCURVE",
"228 383 CURVE SMOOTH",
"228 342 OFFCURVE",
"197 309 OFFCURVE",
"165 276 CURVE SMOOTH",
"126 236 OFFCURVE",
"83 193 OFFCURVE",
"83 125 CURVE",
"83 38 OFFCURVE",
"144 -14 OFFCURVE",
"211 -14 CURVE SMOOTH",
"279 -14 OFFCURVE",
"347 43 OFFCURVE",
"370 126 CURVE",
"372 126 LINE",
"395 43 OFFCURVE",
"463 -14 OFFCURVE",
"534 -14 CURVE"
);
}
);
};
layerId = "034236B8-3FA8-43DA-9EDA-EFF269A687EC";
name = Regular;
paths = (
{
closed = 1;
nodes = (
"393 365 LINE",
"393 294 LINE",
"669 294 LINE",
"669 365 LINE"
);
},
{
closed = 1;
nodes = (
"513 448 LINE",
"566 425 OFFCURVE",
"566 365 OFFCURVE",
"513 342 CURVE",
"528 309 LINE",
"610 344 OFFCURVE",
"610 447 OFFCURVE",
"528 482 CURVE"
);
},
{
closed = 1;
nodes = (
"658 225 OFFCURVE",
"612 311 OFFCURVE",
"528 327 CURVE",
"509 310 LINE",
"569 287 OFFCURVE",
"608 244 OFFCURVE",
"608 167 CURVE SMOOTH",
"608 116 OFFCURVE",
"585 71 OFFCURVE",
"527 71 CURVE SMOOTH",
"454 71 OFFCURVE",
"388 146 OFFCURVE",
"375 221 CURVE",
"366 221 LINE",
"352 145 OFFCURVE",
"287 71 OFFCURVE",
"214 71 CURVE SMOOTH",
"161 71 OFFCURVE",
"134 104 OFFCURVE",
"134 146 CURVE",
"134 187 OFFCURVE",
"164 217 OFFCURVE",
"196 251 CURVE SMOOTH",
"236 292 OFFCURVE",
"281 338 OFFCURVE",
"281 399 CURVE SMOOTH",
"281 471 OFFCURVE",
"222 519 OFFCURVE",
"157 519 CURVE SMOOTH",
"99 519 OFFCURVE",
"40 483 OFFCURVE",
"40 416 CURVE SMOOTH",
"40 384 OFFCURVE",
"51 350 OFFCURVE",
"72 328 CURVE",
"103 348 LINE",
"95 363 OFFCURVE",
"92 376 OFFCURVE",
"92 387 CURVE SMOOTH",
"92 424 OFFCURVE",
"118 450 OFFCURVE",
"157 450 CURVE SMOOTH",
"194 450 OFFCURVE",
"228 427 OFFCURVE",
"228 385 CURVE SMOOTH",
"228 342 OFFCURVE",
"197 309 OFFCURVE",
"165 276 CURVE SMOOTH",
"126 236 OFFCURVE",
"83 194 OFFCURVE",
"83 125 CURVE",
"83 39 OFFCURVE",
"145 -14 OFFCURVE",
"211 -14 CURVE SMOOTH",
"280 -14 OFFCURVE",
"347 43 OFFCURVE",
"370 126 CURVE",
"372 126 LINE",
"395 43 OFFCURVE",
"464 -14 OFFCURVE",
"531 -14 CURVE SMOOTH",
"598 -14 OFFCURVE",
"658 38 OFFCURVE",
"658 145 CURVE SMOOTH"
);
},
{
closed = 1;
nodes = (
"591 644 LINE",
"615 635 OFFCURVE",
"637 610 OFFCURVE",
"637 576 CURVE SMOOTH",
"637 536 OFFCURVE",
"606 509 OFFCURVE",
"545 509 CURVE SMOOTH",
"393 509 LINE",
"393 434 LINE",
"545 434 LINE SMOOTH",
"626 434 OFFCURVE",
"680 480 OFFCURVE",
"680 552 CURVE SMOOTH",
"680 607 OFFCURVE",
"649 648 OFFCURVE",
"606 664 CURVE"
);
}
);
width = 719;
}
);
unicode = 0C9A;
},
{
color = 3;
glyphname = knCHA;
lastChange = "2015-11-30 19:35:17 +0000";
layers = (
{
background = {
paths = (
{
closed = 1;
nodes = (
"615 643 LINE",
"642 625 OFFCURVE",
"652 600 OFFCURVE",
"652 578 CURVE SMOOTH",
"652 537 OFFCURVE",
"621 508 OFFCURVE",
"569 508 CURVE SMOOTH",
"415 508 LINE",
"415 425 LINE",
"569 425 LINE",
"625 425 OFFCURVE",
"705 480 OFFCURVE",
"705 549 CURVE SMOOTH",
"705 594 OFFCURVE",
"682 636 OFFCURVE",
"630 663 CURVE"
);
},
{
closed = 1;
nodes = (
"111 372 OFFCURVE",
"154 459 OFFCURVE",
"231 459 CURVE SMOOTH",
"279 459 OFFCURVE",
"303 440 OFFCURVE",
"303 401 CURVE SMOOTH",
"303 375 OFFCURVE",
"285 354 OFFCURVE",
"248 354 CURVE SMOOTH",
"216 354 OFFCURVE",
"188 372 OFFCURVE",
"188 418 CURVE SMOOTH",
"188 441 OFFCURVE",
"193 465 OFFCURVE",
"203 477 CURVE",
"179 482 LINE",
"166 460 OFFCURVE",
"158 427 OFFCURVE",
"158 391 CURVE SMOOTH",
"158 318 OFFCURVE",
"200 283 OFFCURVE",
"248 283 CURVE SMOOTH",
"301 283 OFFCURVE",
"333 335 OFFCURVE",
"333 401 CURVE SMOOTH",
"333 467 OFFCURVE",
"307 519 OFFCURVE",
"236 519 CURVE SMOOTH",
"143 519 OFFCURVE",
"70 399 OFFCURVE",
"70 265 CURVE SMOOTH",
"70 77 OFFCURVE",
"130 -14 OFFCURVE",
"243 -14 CURVE SMOOTH",
"324 -14 OFFCURVE",
"380 45 OFFCURVE",
"403 128 CURVE",
"406 128 LINE",
"429 45 OFFCURVE",
"485 -14 OFFCURVE",
"565 -14 CURVE SMOOTH",
"675 -14 OFFCURVE",
"739 77 OFFCURVE",
"739 254 CURVE",
"739 391 OFFCURVE",
"667 508 OFFCURVE",
"565 508 CURVE SMOOTH",
"496 508 OFFCURVE",
"493 425 OFFCURVE",
"561 425 CURVE SMOOTH",
"640 425 OFFCURVE",
"698 370 OFFCURVE",
"698 254 CURVE",
"698 151 OFFCURVE",
"647 93 OFFCURVE",
"561 93 CURVE SMOOTH",
"487 93 OFFCURVE",
"422 148 OFFCURVE",
"409 223 CURVE",
"400 223 LINE",
"387 148 OFFCURVE",
"322 93 OFFCURVE",
"248 93 CURVE SMOOTH",
"157 93 OFFCURVE",
"111 151 OFFCURVE",
"111 265 CURVE SMOOTH"
);
}
);
};
layerId = "034236B8-3FA8-43DA-9EDA-EFF269A687EC";
name = Regular;
paths = (
{
closed = 1;
nodes = (
"123 519 OFFCURVE",
"51 374 OFFCURVE",
"51 253 CURVE",
"51 97 OFFCURVE",
"137 -14 OFFCURVE",
"243 -14 CURVE",
"313 -14 OFFCURVE",
"381 43 OFFCURVE",
"404 126 CURVE",
"406 126 LINE",
"429 43 OFFCURVE",
"497 -14 OFFCURVE",
"567 -14 CURVE",
"678 -14 OFFCURVE",
"740 78 OFFCURVE",
"740 224 CURVE SMOOTH",
"740 426 OFFCURVE",
"616 509 OFFCURVE",
"483 509 CURVE",
"523 434 LINE",
"652 434 OFFCURVE",
"699 362 OFFCURVE",
"699 237 CURVE SMOOTH",
"699 168 OFFCURVE",
"659 71 OFFCURVE",
"561 71 CURVE",
"488 71 OFFCURVE",
"422 146 OFFCURVE",
"409 221 CURVE",
"400 221 LINE",
"386 145 OFFCURVE",
"321 71 OFFCURVE",
"238 71 CURVE",
"142 71 OFFCURVE",
"99 178 OFFCURVE",
"99 264 CURVE",
"99 367 OFFCURVE",
"137 454 OFFCURVE",
"230 454 CURVE",
"268 454 OFFCURVE",
"302 440 OFFCURVE",
"302 401 CURVE SMOOTH",
"302 365 OFFCURVE",
"274 344 OFFCURVE",
"227 344 CURVE SMOOTH",
"185 344 OFFCURVE",
"157 362 OFFCURVE",
"157 408 CURVE SMOOTH",
"157 419 OFFCURVE",
"158 440 OFFCURVE",
"161 450 CURVE",
"172 475 OFFCURVE",
"167 481 OFFCURVE",
"152 477 CURVE",
"131 429 LINE",
"128 407 OFFCURVE",
"127 394 OFFCURVE",
"127 381 CURVE SMOOTH",
"127 308 OFFCURVE",
"169 273 OFFCURVE",
"227 273 CURVE SMOOTH",
"290 273 OFFCURVE",
"332 325 OFFCURVE",
"332 391 CURVE SMOOTH",
"332 457 OFFCURVE",
"296 519 OFFCURVE",
"225 519 CURVE SMOOTH"
);
},
{
closed = 1;
nodes = (
"395 46 LINE",
"384 -34 OFFCURVE",
"340 -90 OFFCURVE",
"340 -131 CURVE SMOOTH",
"340 -180 OFFCURVE",
"378 -200 OFFCURVE",
"404 -200 CURVE",
"429 -200 OFFCURVE",
"469 -184 OFFCURVE",
"469 -131 CURVE SMOOTH",
"469 -90 OFFCURVE",
"426 -34 OFFCURVE",
"414 46 CURVE"
);
},
{
closed = 1;
nodes = (
"652 644 LINE",
"676 635 OFFCURVE",
"698 610 OFFCURVE",
"698 576 CURVE SMOOTH",
"698 536 OFFCURVE",
"667 509 OFFCURVE",
"606 509 CURVE SMOOTH",
"445 509 LINE",
"445 434 LINE",
"606 434 LINE SMOOTH",
"687 434 OFFCURVE",
"741 480 OFFCURVE",
"741 552 CURVE SMOOTH",
"741 607 OFFCURVE",
"710 648 OFFCURVE",
"667 664 CURVE"
);
}
);
width = 804;
}
);
unicode = 0C9B;
},
{
color = 3;
glyphname = knJA;
lastChange = "2015-11-30 15:20:34 +0000";
layers = (
{
background = {
paths = (
{
closed = 1;
nodes = (
"658 185 OFFCURVE",
"631 220 OFFCURVE",
"600 250 CURVE",
"574 233 LINE",
"596 209 OFFCURVE",
"608 184 OFFCURVE",
"608 154 CURVE",
"608 116 OFFCURVE",
"575 71 OFFCURVE",
"527 71 CURVE SMOOTH",
"454 71 OFFCURVE",
"388 146 OFFCURVE",
"375 221 CURVE",
"366 221 LINE",
"352 145 OFFCURVE",
"287 71 OFFCURVE",
"214 71 CURVE SMOOTH",
"161 71 OFFCURVE",
"134 114 OFFCURVE",
"134 156 CURVE",
"134 187 OFFCURVE",
"164 219 OFFCURVE",
"196 253 CURVE SMOOTH",
"236 294 OFFCURVE",
"281 340 OFFCURVE",
"281 399 CURVE SMOOTH",
"281 473 OFFCURVE",
"223 519 OFFCURVE",
"157 519 CURVE SMOOTH",
"99 519 OFFCURVE",
"40 485 OFFCURVE",
"40 416 CURVE SMOOTH",
"40 384 OFFCURVE",
"51 352 OFFCURVE",
"72 330 CURVE",
"103 350 LINE",
"95 365 OFFCURVE",
"93 377 OFFCURVE",
"93 388 CURVE SMOOTH",
"93 425 OFFCURVE",
"118 452 OFFCURVE",
"157 452 CURVE SMOOTH",
"194 452 OFFCURVE",
"228 427 OFFCURVE",
"228 385 CURVE SMOOTH",
"228 344 OFFCURVE",
"197 311 OFFCURVE",
"165 278 CURVE SMOOTH",
"126 238 OFFCURVE",
"83 193 OFFCURVE",
"83 125 CURVE",
"83 38 OFFCURVE",
"144 -14 OFFCURVE",
"211 -14 CURVE SMOOTH",
"279 -14 OFFCURVE",
"347 43 OFFCURVE",
"370 126 CURVE",
"372 126 LINE",
"395 43 OFFCURVE",
"463 -14 OFFCURVE",
"531 -14 CURVE SMOOTH",
"597 -14 OFFCURVE",
"658 38 OFFCURVE",
"658 125 CURVE"
);
}
);
};
layerId = "034236B8-3FA8-43DA-9EDA-EFF269A687EC";
leftMetricsKey = "=knBA";
rightMetricsKey = "=knNGA";
name = Regular;
paths = (
{
closed = 1;
nodes = (
"547 287 OFFCURVE",
"600 350 OFFCURVE",
"600 432 CURVE SMOOTH",
"600 477 OFFCURVE",
"577 510 OFFCURVE",
"541 536 CURVE",
"522 519 LINE",
"547 500 OFFCURVE",
"557 480 OFFCURVE",
"557 452 CURVE SMOOTH",
"557 396 OFFCURVE",
"509 356 OFFCURVE",
"435 356 CURVE SMOOTH",
"362 356 OFFCURVE",
"288 410 OFFCURVE",
"209 480 CURVE",
"174 477 LINE",
"250 396 OFFCURVE",
"332 287 OFFCURVE",
"455 287 CURVE SMOOTH"
);
},
{
closed = 1;
nodes = (
"618 185 OFFCURVE",
"591 220 OFFCURVE",
"560 250 CURVE",
"534 233 LINE",
"556 209 OFFCURVE",
"568 184 OFFCURVE",
"568 154 CURVE",
"568 116 OFFCURVE",
"545 71 OFFCURVE",
"487 71 CURVE SMOOTH",
"414 71 OFFCURVE",
"348 146 OFFCURVE",
"335 221 CURVE",
"326 221 LINE",
"312 145 OFFCURVE",
"247 71 OFFCURVE",
"174 71 CURVE SMOOTH",
"121 71 OFFCURVE",
"94 114 OFFCURVE",
"94 156 CURVE",
"94 187 OFFCURVE",
"124 219 OFFCURVE",
"156 253 CURVE SMOOTH",
"196 294 OFFCURVE",
"241 340 OFFCURVE",
"241 399 CURVE SMOOTH",
"241 473 OFFCURVE",
"183 519 OFFCURVE",
"117 519 CURVE SMOOTH",
"59 519 OFFCURVE",
"0 485 OFFCURVE",
"0 416 CURVE SMOOTH",
"0 384 OFFCURVE",
"11 352 OFFCURVE",
"32 330 CURVE",
"63 350 LINE",
"55 365 OFFCURVE",
"53 377 OFFCURVE",
"53 388 CURVE SMOOTH",
"53 425 OFFCURVE",
"78 452 OFFCURVE",
"117 452 CURVE SMOOTH",
"154 452 OFFCURVE",
"188 427 OFFCURVE",
"188 385 CURVE SMOOTH",
"188 344 OFFCURVE",
"157 311 OFFCURVE",
"125 278 CURVE SMOOTH",
"86 238 OFFCURVE",
"43 193 OFFCURVE",
"43 125 CURVE",
"43 38 OFFCURVE",
"104 -14 OFFCURVE",
"171 -14 CURVE SMOOTH",
"239 -14 OFFCURVE",
"307 43 OFFCURVE",
"330 126 CURVE",
"332 126 LINE",
"355 43 OFFCURVE",
"423 -14 OFFCURVE",
"491 -14 CURVE SMOOTH",
"557 -14 OFFCURVE",
"618 38 OFFCURVE",
"618 125 CURVE"
);
}
);
width = 668;
}
);
leftMetricsKey = "=ba-kannada";
rightMetricsKey = "=nga-kannada";
unicode = 0C9C;
},
{
color = 3;
glyphname = knJHA;
lastChange = "2015-11-30 19:12:46 +0000";
layers = (
{
background = {
paths = (
{
closed = 1;
nodes = (
"831 392 OFFCURVE",
"717 509 OFFCURVE",
"631 509 CURVE SMOOTH",
"595 509 OFFCURVE",
"576 496 OFFCURVE",
"576 473 CURVE SMOOTH",
"576 450 OFFCURVE",
"587 434 OFFCURVE",
"617 434 CURVE",
"716 434 OFFCURVE",
"789 338 OFFCURVE",
"789 257 CURVE SMOOTH",
"789 158 OFFCURVE",
"720 71 OFFCURVE",
"635 71 CURVE",
"548 71 OFFCURVE",
"499 145 OFFCURVE",
"479 189 CURVE",
"455 139 LINE",
"467 82 OFFCURVE",
"542 -14 OFFCURVE",
"647 -14 CURVE",
"772 -14 OFFCURVE",
"831 109 OFFCURVE",
"831 245 CURVE SMOOTH"
);
},
{
closed = 1;
nodes = (
"141 519 OFFCURVE",
"50 402 OFFCURVE",
"50 250 CURVE SMOOTH",
"50 99 OFFCURVE",
"141 -14 OFFCURVE",
"280 -14 CURVE",
"419 -14 OFFCURVE",
"510 99 OFFCURVE",
"510 250 CURVE SMOOTH",
"510 402 OFFCURVE",
"419 519 OFFCURVE",
"280 519 CURVE SMOOTH"
);
},
{
closed = 1;
nodes = (
"381 434 OFFCURVE",
"456 361 OFFCURVE",
"456 261 CURVE SMOOTH",
"456 156 OFFCURVE",
"381 70 OFFCURVE",
"280 70 CURVE",
"179 70 OFFCURVE",
"104 156 OFFCURVE",
"104 261 CURVE SMOOTH",
"104 361 OFFCURVE",
"179 434 OFFCURVE",
"280 434 CURVE SMOOTH"
);
},
{
closed = 1;
nodes = (
"773 644 LINE",
"797 635 OFFCURVE",
"819 610 OFFCURVE",
"819 576 CURVE SMOOTH",
"819 536 OFFCURVE",
"788 509 OFFCURVE",
"727 509 CURVE SMOOTH",
"535 509 LINE",
"535 434 LINE",
"727 434 LINE SMOOTH",
"808 434 OFFCURVE",
"862 480 OFFCURVE",
"862 552 CURVE SMOOTH",
"862 607 OFFCURVE",
"831 648 OFFCURVE",
"788 664 CURVE"
);
},
{
closed = 1;
nodes = (
"888 71 OFFCURVE",
"839 145 OFFCURVE",
"819 189 CURVE",
"795 139 LINE",
"807 82 OFFCURVE",
"882 -14 OFFCURVE",
"978 -14 CURVE",
"1091 -14 OFFCURVE",
"1171 115 OFFCURVE",
"1171 242 CURVE",
"1171 415 OFFCURVE",
"1085 513 OFFCURVE",
"1014 513 CURVE SMOOTH",
"983 513 OFFCURVE",
"966 493 OFFCURVE",
"966 470 CURVE SMOOTH",
"966 451 OFFCURVE",
"978 435 OFFCURVE",
"994 430 CURVE SMOOTH",
"1017 423 OFFCURVE",
"1038 428 OFFCURVE",
"1062 420 CURVE SMOOTH",
"1099 407 OFFCURVE",
"1130 344 OFFCURVE",
"1130 255 CURVE",
"1130 159 OFFCURVE",
"1060 71 OFFCURVE",
"978 71 CURVE"
);
}
);
};
layerId = "034236B8-3FA8-43DA-9EDA-EFF269A687EC";
leftMetricsKey = "=knRA";
name = Regular;
paths = (
{
closed = 1;
nodes = (
"874 -90 OFFCURVE",
"832 -34 OFFCURVE",
"819 46 CURVE",
"801 46 LINE",
"789 -34 OFFCURVE",
"746 -90 OFFCURVE",
"746 -131 CURVE SMOOTH",
"746 -180 OFFCURVE",
"784 -200 OFFCURVE",
"810 -200 CURVE",
"834 -200 OFFCURVE",
"874 -184 OFFCURVE",
"874 -131 CURVE SMOOTH"
);
},
{
closed = 1;
nodes = (
"244 461 OFFCURVE",
"207 453 OFFCURVE",
"175 436 CURVE SMOOTH",
"101 398 OFFCURVE",
"55 315 OFFCURVE",
"55 226 CURVE SMOOTH",
"55 86 OFFCURVE",
"157 -14 OFFCURVE",
"285 -14 CURVE",
"413 -14 OFFCURVE",
"515 86 OFFCURVE",
"515 226 CURVE SMOOTH",
"515 315 OFFCURVE",
"469 398 OFFCURVE",
"395 436 CURVE SMOOTH",
"363 453 OFFCURVE",
"326 461 OFFCURVE",
"285 461 CURVE"
);
},
{
closed = 1;
nodes = (
"386 433 OFFCURVE",
"463 360 OFFCURVE",
"463 261 CURVE SMOOTH",
"463 161 OFFCURVE",
"396 71 OFFCURVE",
"285 71 CURVE",
"174 71 OFFCURVE",
"107 161 OFFCURVE",
"107 261 CURVE SMOOTH",
"107 360 OFFCURVE",
"184 433 OFFCURVE",
"285 433 CURVE"
);
},
{
closed = 1;
nodes = (
"426 644 LINE",
"450 635 OFFCURVE",
"472 610 OFFCURVE",
"472 576 CURVE SMOOTH",
"472 536 OFFCURVE",
"441 509 OFFCURVE",
"380 509 CURVE SMOOTH",
"55 509 LINE",
"55 434 LINE",
"218 434 LINE",
"284 451 LINE",
"348 434 LINE",
"380 434 LINE SMOOTH",
"461 434 OFFCURVE",
"515 480 OFFCURVE",
"515 552 CURVE SMOOTH",
"515 607 OFFCURVE",
"484 648 OFFCURVE",
"441 664 CURVE"
);
},
{
closed = 1;
nodes = (
"831 392 OFFCURVE",
"717 509 OFFCURVE",
"631 509 CURVE SMOOTH",
"595 509 OFFCURVE",
"576 496 OFFCURVE",
"576 473 CURVE SMOOTH",
"576 450 OFFCURVE",
"587 434 OFFCURVE",
"617 434 CURVE",
"716 434 OFFCURVE",
"789 338 OFFCURVE",
"789 257 CURVE SMOOTH",
"789 158 OFFCURVE",
"720 71 OFFCURVE",
"635 71 CURVE",
"548 71 OFFCURVE",
"499 145 OFFCURVE",
"479 189 CURVE",
"455 139 LINE",
"467 82 OFFCURVE",
"542 -14 OFFCURVE",
"647 -14 CURVE",
"772 -14 OFFCURVE",
"831 109 OFFCURVE",
"831 245 CURVE SMOOTH"
);
},
{
closed = 1;
nodes = (
"888 71 OFFCURVE",
"839 145 OFFCURVE",
"819 189 CURVE",
"795 139 LINE",
"807 82 OFFCURVE",
"882 -14 OFFCURVE",
"978 -14 CURVE",
"1091 -14 OFFCURVE",
"1171 115 OFFCURVE",
"1171 242 CURVE",
"1171 415 OFFCURVE",
"1085 513 OFFCURVE",
"1014 513 CURVE SMOOTH",
"983 513 OFFCURVE",
"966 493 OFFCURVE",
"966 470 CURVE SMOOTH",
"966 451 OFFCURVE",
"978 435 OFFCURVE",
"994 430 CURVE SMOOTH",
"1017 423 OFFCURVE",
"1038 428 OFFCURVE",
"1062 420 CURVE SMOOTH",
"1099 407 OFFCURVE",
"1130 344 OFFCURVE",
"1130 255 CURVE",
"1130 159 OFFCURVE",
"1060 71 OFFCURVE",
"978 71 CURVE"
);
}
);
width = 1204;
}
);
leftMetricsKey = "=ra-kannada";
unicode = 0C9D;
},
{
color = 3;
glyphname = knTTA;
lastChange = "2015-11-30 15:22:00 +0000";
layers = (
{
background = {
paths = (
{
closed = 1;
nodes = (
"192 455 OFFCURVE",
"205 459 OFFCURVE",
"219 459 CURVE SMOOTH",
"267 459 OFFCURVE",
"292 440 OFFCURVE",
"292 401 CURVE SMOOTH",
"292 375 OFFCURVE",
"273 354 OFFCURVE",
"236 354 CURVE SMOOTH",
"204 354 OFFCURVE",
"177 372 OFFCURVE",
"177 418 CURVE SMOOTH",
"177 429 OFFCURVE",
"178 440 OFFCURVE",
"180 451 CURVE"
);
},
{
closed = 0;
nodes = (
"107 294 LINE",
"107 354 OFFCURVE",
"123 400 OFFCURVE",
"150 429 CURVE",
"148 417 OFFCURVE",
"147 405 OFFCURVE",
"147 391 CURVE SMOOTH",
"147 318 OFFCURVE",
"188 283 OFFCURVE",
"236 283 CURVE SMOOTH",
"289 283 OFFCURVE",
"321 336 OFFCURVE",
"321 401 CURVE SMOOTH",
"321 467 OFFCURVE",
"295 519 OFFCURVE",
"225 519 CURVE SMOOTH",
"139 519 OFFCURVE",
"60 414 OFFCURVE",
"60 283 CURVE SMOOTH"
);
}
);
};
layerId = "034236B8-3FA8-43DA-9EDA-EFF269A687EC";
leftMetricsKey = "=knCHA";
rightMetricsKey = "=|knCHA";
name = Regular;
paths = (
{
closed = 1;
nodes = (
"192 530 OFFCURVE",
"180 560 OFFCURVE",
"180 590 CURVE SMOOTH",
"180 623 OFFCURVE",
"201 655 OFFCURVE",
"243 670 CURVE",
"224 692 LINE",
"160 680 OFFCURVE",
"122 639 OFFCURVE",
"122 596 CURVE SMOOTH",
"122 551 OFFCURVE",
"151 517 OFFCURVE",
"207 493 CURVE",
"228 508 LINE"
);
},
{
closed = 1;
nodes = (
"590 470 LINE",
"646 494 OFFCURVE",
"675 539 OFFCURVE",
"675 585 CURVE SMOOTH",
"675 639 OFFCURVE",
"637 680 OFFCURVE",
"573 692 CURVE",
"554 670 LINE",
"596 655 OFFCURVE",
"618 623 OFFCURVE",
"618 581 CURVE SMOOTH",
"618 549 OFFCURVE",
"605 507 OFFCURVE",
"569 485 CURVE"
);
},
{
closed = 1;
nodes = (
"566 465 LINE",
"657 421 OFFCURVE",
"698 352 OFFCURVE",
"698 263 CURVE SMOOTH",
"698 149 OFFCURVE",
"648 71 OFFCURVE",
"561 71 CURVE SMOOTH",
"488 71 OFFCURVE",
"422 146 OFFCURVE",
"410 221 CURVE",
"400 221 LINE",
"388 146 OFFCURVE",
"322 71 OFFCURVE",
"249 71 CURVE SMOOTH",
"158 71 OFFCURVE",
"112 149 OFFCURVE",
"112 263 CURVE SMOOTH",
"112 331 OFFCURVE",
"129 392 OFFCURVE",
"162 425 CURVE",
"160 414 OFFCURVE",
"159 401 OFFCURVE",
"159 389 CURVE SMOOTH",
"159 316 OFFCURVE",
"200 281 OFFCURVE",
"249 281 CURVE SMOOTH",
"302 281 OFFCURVE",
"334 333 OFFCURVE",
"334 399 CURVE SMOOTH",
"334 465 OFFCURVE",
"307 517 OFFCURVE",
"237 517 CURVE SMOOTH",
"144 517 OFFCURVE",
"70 397 OFFCURVE",
"70 263 CURVE SMOOTH",
"70 75 OFFCURVE",
"130 -14 OFFCURVE",
"244 -14 CURVE SMOOTH",
"313 -14 OFFCURVE",
"381 43 OFFCURVE",
"404 126 CURVE",
"406 126 LINE",
"429 43 OFFCURVE",
"497 -14 OFFCURVE",
"566 -14 CURVE SMOOTH",
"675 -14 OFFCURVE",
"740 75 OFFCURVE",
"740 240 CURVE SMOOTH",
"740 401 OFFCURVE",
"640 475 OFFCURVE",
"569 485 CURVE"
);
},
{
closed = 1;
nodes = (
"304 373 OFFCURVE",
"285 352 OFFCURVE",
"249 352 CURVE SMOOTH",
"216 352 OFFCURVE",
"189 370 OFFCURVE",
"189 416 CURVE SMOOTH",
"189 427 OFFCURVE",
"190 438 OFFCURVE",
"192 448 CURVE",
"204 453 OFFCURVE",
"218 457 OFFCURVE",
"231 457 CURVE SMOOTH",
"280 457 OFFCURVE",
"304 438 OFFCURVE",
"304 399 CURVE SMOOTH"
);
}
);
width = 810;
}
);
leftMetricsKey = "=cha-kannada";
rightMetricsKey = "=cha-kannada";
unicode = 0C9F;
},
{
color = 3;
glyphname = knTTHA;
lastChange = "2015-11-30 19:10:46 +0000";
layers = (
{
background = {
paths = (
{
closed = 1;
nodes = (
"219 300 OFFCURVE",
"248 329 OFFCURVE",
"285 329 CURVE SMOOTH",
"322 329 OFFCURVE",
"350 300 OFFCURVE",
"350 263 CURVE SMOOTH",
"350 226 OFFCURVE",
"322 199 OFFCURVE",
"285 199 CURVE SMOOTH",
"248 199 OFFCURVE",
"219 226 OFFCURVE",
"219 263 CURVE SMOOTH"
);
},
{
closed = 1;
nodes = (
"386 433 OFFCURVE",
"461 360 OFFCURVE",
"461 261 CURVE SMOOTH",
"461 161 OFFCURVE",
"386 89 OFFCURVE",
"285 89 CURVE",
"184 89 OFFCURVE",
"109 161 OFFCURVE",
"109 261 CURVE SMOOTH",
"109 360 OFFCURVE",
"184 433 OFFCURVE",
"285 433 CURVE"
);
},
{
closed = 1;
nodes = (
"433 643 LINE",
"461 625 OFFCURVE",
"470 600 OFFCURVE",
"470 578 CURVE SMOOTH",
"470 537 OFFCURVE",
"439 508 OFFCURVE",
"387 508 CURVE SMOOTH",
"55 508 LINE",
"55 425 LINE",
"218 425 LINE",
"285 444 LINE",
"349 425 LINE",
"387 425 LINE SMOOTH",
"466 425 OFFCURVE",
"523 480 OFFCURVE",
"523 549 CURVE SMOOTH",
"523 594 OFFCURVE",
"500 636 OFFCURVE",
"448 663 CURVE"
);
},
{
closed = 1;
nodes = (
"243 461 OFFCURVE",
"207 448 OFFCURVE",
"174 431 CURVE SMOOTH",
"101 393 OFFCURVE",
"55 315 OFFCURVE",
"55 226 CURVE SMOOTH",
"55 86 OFFCURVE",
"157 -14 OFFCURVE",
"285 -14 CURVE",
"412 -14 OFFCURVE",
"515 86 OFFCURVE",
"515 226 CURVE SMOOTH",
"515 315 OFFCURVE",
"469 393 OFFCURVE",
"395 431 CURVE SMOOTH",
"363 448 OFFCURVE",
"326 461 OFFCURVE",
"285 461 CURVE"
);
}
);
};
guideLines = (
{
angle = 270;
position = "{55, -78}";
}
);
layerId = "034236B8-3FA8-43DA-9EDA-EFF269A687EC";
leftMetricsKey = "=knRA";
rightMetricsKey = "=knRA";
name = Regular;
paths = (
{
closed = 1;
nodes = (
"244 461 OFFCURVE",
"207 453 OFFCURVE",
"175 436 CURVE SMOOTH",
"101 398 OFFCURVE",
"55 315 OFFCURVE",
"55 226 CURVE SMOOTH",
"55 86 OFFCURVE",
"157 -14 OFFCURVE",
"285 -14 CURVE",
"413 -14 OFFCURVE",
"515 86 OFFCURVE",
"515 226 CURVE SMOOTH",
"515 315 OFFCURVE",
"469 398 OFFCURVE",
"395 436 CURVE SMOOTH",
"363 453 OFFCURVE",
"326 461 OFFCURVE",
"285 461 CURVE"
);
},
{
closed = 1;
nodes = (
"386 433 OFFCURVE",
"463 360 OFFCURVE",
"463 261 CURVE SMOOTH",
"463 161 OFFCURVE",
"396 71 OFFCURVE",
"285 71 CURVE",
"174 71 OFFCURVE",
"107 161 OFFCURVE",
"107 261 CURVE SMOOTH",
"107 360 OFFCURVE",
"184 433 OFFCURVE",
"285 433 CURVE"
);
},
{
closed = 1;
nodes = (
"426 644 LINE",
"450 635 OFFCURVE",
"472 610 OFFCURVE",
"472 576 CURVE SMOOTH",
"472 536 OFFCURVE",
"441 509 OFFCURVE",
"380 509 CURVE SMOOTH",
"55 509 LINE",
"55 434 LINE",
"218 434 LINE",
"284 451 LINE",
"348 434 LINE",
"380 434 LINE SMOOTH",
"461 434 OFFCURVE",
"515 480 OFFCURVE",
"515 552 CURVE SMOOTH",
"515 607 OFFCURVE",
"484 648 OFFCURVE",
"441 664 CURVE"
);
},
{
closed = 1;
nodes = (
"219 300 OFFCURVE",
"248 329 OFFCURVE",
"285 329 CURVE SMOOTH",
"322 329 OFFCURVE",
"350 300 OFFCURVE",
"350 263 CURVE SMOOTH",
"350 226 OFFCURVE",
"322 199 OFFCURVE",
"285 199 CURVE SMOOTH",
"248 199 OFFCURVE",
"219 226 OFFCURVE",
"219 263 CURVE SMOOTH"
);
}
);
width = 596;
}
);
leftMetricsKey = "=ra-kannada";
rightMetricsKey = "=ra-kannada";
unicode = 0CA0;
},
{
color = 3;
glyphname = knDDA;
lastChange = "2015-11-30 19:34:42 +0000";
layers = (
{
background = {
paths = (
{
closed = 1;
nodes = (
"208 465 OFFCURVE",
"55 339 OFFCURVE",
"55 160 CURVE SMOOTH",
"55 33 OFFCURVE",
"117 -14 OFFCURVE",
"185 -14 CURVE SMOOTH",
"253 -14 OFFCURVE",
"321 43 OFFCURVE",
"344 126 CURVE",
"346 126 LINE",
"369 43 OFFCURVE",
"437 -14 OFFCURVE",
"505 -14 CURVE SMOOTH",
"572 -14 OFFCURVE",
"635 33 OFFCURVE",
"635 160 CURVE SMOOTH",
"635 339 OFFCURVE",
"482 465 OFFCURVE",
"345 465 CURVE"
);
},
{
closed = 1;
nodes = (
"477 441 OFFCURVE",
"584 300 OFFCURVE",
"584 192 CURVE SMOOTH",
"584 124 OFFCURVE",
"552 71 OFFCURVE",
"495 71 CURVE SMOOTH",
"429 71 OFFCURVE",
"364 145 OFFCURVE",
"350 221 CURVE SMOOTH",
"341 221 LINE",
"327 145 OFFCURVE",
"261 71 OFFCURVE",
"196 71 CURVE SMOOTH",
"138 71 OFFCURVE",
"106 124 OFFCURVE",
"106 192 CURVE SMOOTH",
"106 300 OFFCURVE",
"213 441 OFFCURVE",
"345 441 CURVE"
);
},
{
closed = 1;
nodes = (
"545 644 LINE",
"569 635 OFFCURVE",
"591 610 OFFCURVE",
"591 576 CURVE SMOOTH",
"591 536 OFFCURVE",
"560 509 OFFCURVE",
"499 509 CURVE SMOOTH",
"55 509 LINE",
"55 434 LINE",
"241 434 LINE",
"345 444 LINE",
"448 434 LINE",
"499 434 LINE SMOOTH",
"580 434 OFFCURVE",
"634 480 OFFCURVE",
"634 552 CURVE SMOOTH",
"634 607 OFFCURVE",
"603 648 OFFCURVE",
"560 664 CURVE"
);
}
);
};
layerId = "034236B8-3FA8-43DA-9EDA-EFF269A687EC";
leftMetricsKey = "=knDA";
name = Regular;
paths = (
{
closed = 1;
nodes = (
"466 441 OFFCURVE",
"544 355 OFFCURVE",
"544 299 CURVE SMOOTH",
"544 274 OFFCURVE",
"526 243 OFFCURVE",
"475 243 CURVE",
"438 243 OFFCURVE",
"417 262 OFFCURVE",
"417 285 CURVE SMOOTH",
"417 307 OFFCURVE",
"439 326 OFFCURVE",
"475 326 CURVE SMOOTH",
"536 326 OFFCURVE",
"583 254 OFFCURVE",
"584 174 CURVE",
"584 125 OFFCURVE",
"552 71 OFFCURVE",
"495 71 CURVE",
"429 71 OFFCURVE",
"364 145 OFFCURVE",
"350 221 CURVE SMOOTH",
"341 221 LINE",
"327 145 OFFCURVE",
"261 71 OFFCURVE",
"196 71 CURVE SMOOTH",
"138 71 OFFCURVE",
"106 124 OFFCURVE",
"106 192 CURVE SMOOTH",
"106 300 OFFCURVE",
"213 441 OFFCURVE",
"345 441 CURVE"
);
},
{
closed = 1;
nodes = (
"208 465 OFFCURVE",
"55 339 OFFCURVE",
"55 160 CURVE SMOOTH",
"55 33 OFFCURVE",
"117 -14 OFFCURVE",
"185 -14 CURVE SMOOTH",
"253 -14 OFFCURVE",
"321 43 OFFCURVE",
"344 126 CURVE",
"346 126 LINE",
"369 43 OFFCURVE",
"437 -14 OFFCURVE",
"505 -14 CURVE",
"572 -14 OFFCURVE",
"635 33 OFFCURVE",
"635 145 CURVE",
"635 218 OFFCURVE",
"575 355 OFFCURVE",
"468 355 CURVE",
"407 355 OFFCURVE",
"378 315 OFFCURVE",
"378 277 CURVE SMOOTH",
"378 229 OFFCURVE",
"420 185 OFFCURVE",
"476 185 CURVE SMOOTH",
"527 185 OFFCURVE",
"572 216 OFFCURVE",
"572 284 CURVE",
"572 397 OFFCURVE",
"450 465 OFFCURVE",
"345 465 CURVE"
);
},
{
closed = 1;
nodes = (
"448 434 LINE",
"499 434 LINE SMOOTH",
"580 434 OFFCURVE",
"634 480 OFFCURVE",
"634 552 CURVE SMOOTH",
"634 607 OFFCURVE",
"603 648 OFFCURVE",
"560 664 CURVE",
"545 644 LINE",
"569 635 OFFCURVE",
"591 610 OFFCURVE",
"591 576 CURVE SMOOTH",
"591 536 OFFCURVE",
"560 509 OFFCURVE",
"499 509 CURVE SMOOTH",
"55 509 LINE",
"55 434 LINE",
"241 434 LINE",
"345 444 LINE"
);
}
);
width = 689;
}
);
leftMetricsKey = "=da-kannada";
unicode = 0CA1;
},
{
color = 3;
glyphname = knDDHA;
lastChange = "2015-11-30 19:34:56 +0000";
layers = (
{
background = {
paths = (
{
closed = 1;
nodes = (
"208 465 OFFCURVE",
"55 339 OFFCURVE",
"55 160 CURVE SMOOTH",
"55 33 OFFCURVE",
"117 -14 OFFCURVE",
"185 -14 CURVE SMOOTH",
"253 -14 OFFCURVE",
"321 43 OFFCURVE",
"344 126 CURVE",
"346 126 LINE",
"369 43 OFFCURVE",
"437 -14 OFFCURVE",
"505 -14 CURVE SMOOTH",
"572 -14 OFFCURVE",
"635 33 OFFCURVE",
"635 160 CURVE SMOOTH",
"635 339 OFFCURVE",
"482 465 OFFCURVE",
"345 465 CURVE"
);
},
{
closed = 1;
nodes = (
"477 441 OFFCURVE",
"584 300 OFFCURVE",
"584 192 CURVE SMOOTH",
"584 124 OFFCURVE",
"552 71 OFFCURVE",
"495 71 CURVE SMOOTH",
"429 71 OFFCURVE",
"364 145 OFFCURVE",
"350 221 CURVE SMOOTH",
"341 221 LINE",
"327 145 OFFCURVE",
"261 71 OFFCURVE",
"196 71 CURVE SMOOTH",
"138 71 OFFCURVE",
"106 124 OFFCURVE",
"106 192 CURVE SMOOTH",
"106 300 OFFCURVE",
"213 441 OFFCURVE",
"345 441 CURVE"
);
},
{
closed = 1;
nodes = (
"545 644 LINE",
"569 635 OFFCURVE",
"591 610 OFFCURVE",
"591 576 CURVE SMOOTH",
"591 536 OFFCURVE",
"560 509 OFFCURVE",
"499 509 CURVE SMOOTH",
"55 509 LINE",
"55 434 LINE",
"241 434 LINE",
"345 444 LINE",
"448 434 LINE",
"499 434 LINE SMOOTH",
"580 434 OFFCURVE",
"634 480 OFFCURVE",
"634 552 CURVE SMOOTH",
"634 607 OFFCURVE",
"603 648 OFFCURVE",
"560 664 CURVE"
);
}
);
};
layerId = "034236B8-3FA8-43DA-9EDA-EFF269A687EC";
leftMetricsKey = "=knDA";
rightMetricsKey = "=knDDA";
name = Regular;
paths = (
{
closed = 1;
nodes = (
"466 441 OFFCURVE",
"544 355 OFFCURVE",
"544 299 CURVE SMOOTH",
"544 274 OFFCURVE",
"526 243 OFFCURVE",
"475 243 CURVE",
"438 243 OFFCURVE",
"417 262 OFFCURVE",
"417 285 CURVE SMOOTH",
"417 307 OFFCURVE",
"439 326 OFFCURVE",
"475 326 CURVE SMOOTH",
"536 326 OFFCURVE",
"583 254 OFFCURVE",
"584 174 CURVE",
"584 125 OFFCURVE",
"552 71 OFFCURVE",
"495 71 CURVE",
"429 71 OFFCURVE",
"364 145 OFFCURVE",
"350 221 CURVE SMOOTH",
"341 221 LINE",
"327 145 OFFCURVE",
"261 71 OFFCURVE",
"196 71 CURVE SMOOTH",
"138 71 OFFCURVE",
"106 124 OFFCURVE",
"106 192 CURVE SMOOTH",
"106 300 OFFCURVE",
"213 441 OFFCURVE",
"345 441 CURVE"
);
},
{
closed = 1;
nodes = (
"208 465 OFFCURVE",
"55 339 OFFCURVE",
"55 160 CURVE SMOOTH",
"55 33 OFFCURVE",
"117 -14 OFFCURVE",
"185 -14 CURVE SMOOTH",
"253 -14 OFFCURVE",
"321 43 OFFCURVE",
"344 126 CURVE",
"346 126 LINE",
"369 43 OFFCURVE",
"437 -14 OFFCURVE",
"505 -14 CURVE",
"572 -14 OFFCURVE",
"635 33 OFFCURVE",
"635 145 CURVE",
"635 218 OFFCURVE",
"575 355 OFFCURVE",
"468 355 CURVE",
"407 355 OFFCURVE",
"378 315 OFFCURVE",
"378 277 CURVE SMOOTH",
"378 229 OFFCURVE",
"420 185 OFFCURVE",
"476 185 CURVE SMOOTH",
"527 185 OFFCURVE",
"572 216 OFFCURVE",
"572 284 CURVE",
"572 397 OFFCURVE",
"450 465 OFFCURVE",
"345 465 CURVE"
);
},
{
closed = 1;
nodes = (
"448 434 LINE",
"499 434 LINE SMOOTH",
"580 434 OFFCURVE",
"634 480 OFFCURVE",
"634 552 CURVE SMOOTH",
"634 607 OFFCURVE",
"603 648 OFFCURVE",
"560 664 CURVE",
"545 644 LINE",
"569 635 OFFCURVE",
"591 610 OFFCURVE",
"591 576 CURVE SMOOTH",
"591 536 OFFCURVE",
"560 509 OFFCURVE",
"499 509 CURVE SMOOTH",
"55 509 LINE",
"55 434 LINE",
"241 434 LINE",
"345 444 LINE"
);
},
{
closed = 1;
nodes = (
"336 44 LINE",
"325 -36 OFFCURVE",
"281 -92 OFFCURVE",
"281 -133 CURVE SMOOTH",
"281 -182 OFFCURVE",
"319 -202 OFFCURVE",
"345 -202 CURVE SMOOTH",
"369 -202 OFFCURVE",
"410 -186 OFFCURVE",
"410 -133 CURVE SMOOTH",
"410 -92 OFFCURVE",
"367 -36 OFFCURVE",
"354 44 CURVE"
);
}
);
width = 689;
}
);
leftMetricsKey = "=da-kannada";
rightMetricsKey = "=dda-kannada";
unicode = 0CA2;
},
{
color = 3;
glyphname = knNNA;
lastChange = "2015-11-30 19:39:26 +0000";
layers = (
{
background = {
paths = (
{
closed = 1;
nodes = (
"640 209 LINE",
"657 219 LINE",
"657 338 OFFCURVE",
"604 450 OFFCURVE",
"506 450 CURVE SMOOTH",
"446 450 OFFCURVE",
"387 399 OFFCURVE",
"367 326 CURVE",
"365 326 LINE",
"345 399 OFFCURVE",
"285 450 OFFCURVE",
"225 450 CURVE",
"148 450 OFFCURVE",
"94 373 OFFCURVE",
"94 303 CURVE",
"121 285 LINE",
"135 326 OFFCURVE",
"167 368 OFFCURVE",
"228 368 CURVE SMOOTH",
"293 368 OFFCURVE",
"350 310 OFFCURVE",
"362 244 CURVE",
"370 244 LINE",
"381 309 OFFCURVE",
"438 368 OFFCURVE",
"502 368 CURVE SMOOTH",
"571 368 OFFCURVE",
"621 320 OFFCURVE",
"621 219 CURVE"
);
}
);
};
layerId = "034236B8-3FA8-43DA-9EDA-EFF269A687EC";
rightMetricsKey = "=knDA";
name = Regular;
paths = (
{
closed = 1;
nodes = (
"666 -14 OFFCURVE",
"740 97 OFFCURVE",
"740 235 CURVE SMOOTH",
"740 392 OFFCURVE",
"661 519 OFFCURVE",
"539 519 CURVE SMOOTH",
"453 519 OFFCURVE",
"385 461 OFFCURVE",
"362 377 CURVE",
"359 377 LINE",
"336 461 OFFCURVE",
"274 519 OFFCURVE",
"198 519 CURVE SMOOTH",
"128 519 OFFCURVE",
"65 461 OFFCURVE",
"65 369 CURVE SMOOTH",
"65 309 OFFCURVE",
"101 243 OFFCURVE",
"148 235 CURVE",
"106 214 OFFCURVE",
"65 168 OFFCURVE",
"65 104 CURVE SMOOTH",
"65 40 OFFCURVE",
"106 -14 OFFCURVE",
"178 -14 CURVE SMOOTH",
"259 -14 OFFCURVE",
"297 84 OFFCURVE",
"300 139 CURVE",
"281 157 LINE",
"259 108 OFFCURVE",
"228 71 OFFCURVE",
"183 71 CURVE SMOOTH",
"136 71 OFFCURVE",
"118 97 OFFCURVE",
"118 128 CURVE SMOOTH",
"118 176 OFFCURVE",
"160 217 OFFCURVE",
"243 231 CURVE",
"243 240 LINE",
"172 253 OFFCURVE",
"118 287 OFFCURVE",
"118 352 CURVE SMOOTH",
"118 392 OFFCURVE",
"148 434 OFFCURVE",
"206 434 CURVE SMOOTH",
"277 434 OFFCURVE",
"342 358 OFFCURVE",
"356 283 CURVE",
"365 283 LINE",
"378 357 OFFCURVE",
"443 434 OFFCURVE",
"527 434 CURVE SMOOTH",
"630 434 OFFCURVE",
"693 345 OFFCURVE",
"693 257 CURVE SMOOTH",
"693 146 OFFCURVE",
"632 71 OFFCURVE",
"557 71 CURVE",
"493 71 OFFCURVE",
"453 125 OFFCURVE",
"453 165 CURVE SMOOTH",
"453 203 OFFCURVE",
"479 227 OFFCURVE",
"516 227 CURVE SMOOTH",
"546 227 OFFCURVE",
"571 217 OFFCURVE",
"581 193 CURVE",
"597 208 LINE",
"585 250 OFFCURVE",
"561 287 OFFCURVE",
"512 287 CURVE SMOOTH",
"453 287 OFFCURVE",
"410 232 OFFCURVE",
"410 143 CURVE SMOOTH",
"410 56 OFFCURVE",
"463 -14 OFFCURVE",
"562 -14 CURVE"
);
}
);
width = 768;
}
);
rightMetricsKey = "=da-kannada";
unicode = 0CA3;
},
{
color = 3;
glyphname = knTA;
lastChange = "2015-11-30 19:37:20 +0000";
layers = (
{
components = (
{
name = lip;
transform = "{1, 0, 0, 1, 40, 0}";
}
);
layerId = "034236B8-3FA8-43DA-9EDA-EFF269A687EC";
name = Regular;
paths = (
{
closed = 1;
nodes = (
"349 440 OFFCURVE",
"410 394 OFFCURVE",
"410 338 CURVE SMOOTH",
"410 279 OFFCURVE",
"368 247 OFFCURVE",
"312 247 CURVE SMOOTH",
"264 247 OFFCURVE",
"234 265 OFFCURVE",
"234 294 CURVE SMOOTH",
"234 325 OFFCURVE",
"272 344 OFFCURVE",
"332 344 CURVE SMOOTH",
"421 344 OFFCURVE",
"494 293 OFFCURVE",
"494 213 CURVE SMOOTH",
"494 122 OFFCURVE",
"423 71 OFFCURVE",
"301 71 CURVE SMOOTH",
"174 71 OFFCURVE",
"100 136 OFFCURVE",
"100 206 CURVE SMOOTH",
"100 226 OFFCURVE",
"103 243 OFFCURVE",
"113 254 CURVE",
"87 258 LINE",
"70 242 OFFCURVE",
"55 215 OFFCURVE",
"55 164 CURVE SMOOTH",
"55 77 OFFCURVE",
"156 -14 OFFCURVE",
"297 -14 CURVE SMOOTH",
"445 -14 OFFCURVE",
"540 75 OFFCURVE",
"540 191 CURVE SMOOTH",
"540 307 OFFCURVE",
"441 380 OFFCURVE",
"333 380 CURVE SMOOTH",
"236 380 OFFCURVE",
"179 342 OFFCURVE",
"179 287 CURVE SMOOTH",
"179 230 OFFCURVE",
"236 191 OFFCURVE",
"307 191 CURVE SMOOTH",
"387 191 OFFCURVE",
"455 242 OFFCURVE",
"455 322 CURVE SMOOTH",
"455 383 OFFCURVE",
"398 437 OFFCURVE",
"360 449 CURVE",
"295 440 LINE"
);
}
);
width = 590;
}
);
unicode = 0CA4;
},
{
color = 3;
glyphname = knTHA;
lastChange = "2015-11-30 18:59:52 +0000";
layers = (
{
background = {
paths = (
{
closed = 1;
nodes = (
"477 431 OFFCURVE",
"584 290 OFFCURVE",
"584 182 CURVE SMOOTH",
"584 114 OFFCURVE",
"552 61 OFFCURVE",
"495 61 CURVE SMOOTH",
"429 61 OFFCURVE",
"364 135 OFFCURVE",
"350 211 CURVE SMOOTH",
"341 211 LINE",
"327 135 OFFCURVE",
"261 61 OFFCURVE",
"196 61 CURVE SMOOTH",
"138 61 OFFCURVE",
"106 114 OFFCURVE",
"106 182 CURVE SMOOTH",
"106 290 OFFCURVE",
"213 431 OFFCURVE",
"345 431 CURVE"
);
},
{
closed = 1;
nodes = (
"208 465 OFFCURVE",
"55 339 OFFCURVE",
"55 160 CURVE SMOOTH",
"55 33 OFFCURVE",
"117 -14 OFFCURVE",
"185 -14 CURVE SMOOTH",
"253 -14 OFFCURVE",
"321 43 OFFCURVE",
"344 126 CURVE",
"346 126 LINE",
"369 43 OFFCURVE",
"437 -14 OFFCURVE",
"505 -14 CURVE SMOOTH",
"572 -14 OFFCURVE",
"635 33 OFFCURVE",
"635 160 CURVE SMOOTH",
"635 339 OFFCURVE",
"482 465 OFFCURVE",
"345 465 CURVE"
);
}
);
};
guideLines = (
{
angle = 270;
position = "{55, -78}";
}
);
layerId = "034236B8-3FA8-43DA-9EDA-EFF269A687EC";
leftMetricsKey = "=knDA";
rightMetricsKey = "=knDA";
name = Regular;
paths = (
{
closed = 1;
nodes = (
"336 44 LINE",
"325 -36 OFFCURVE",
"281 -92 OFFCURVE",
"281 -133 CURVE SMOOTH",
"281 -182 OFFCURVE",
"319 -202 OFFCURVE",
"345 -202 CURVE SMOOTH",
"369 -202 OFFCURVE",
"410 -186 OFFCURVE",
"410 -133 CURVE SMOOTH",
"410 -92 OFFCURVE",
"367 -36 OFFCURVE",
"354 44 CURVE"
);
},
{
closed = 1;
nodes = (
"313 375 OFFCURVE",
"287 348 OFFCURVE",
"287 315 CURVE SMOOTH",
"287 282 OFFCURVE",
"313 256 OFFCURVE",
"345 256 CURVE SMOOTH",
"379 256 OFFCURVE",
"405 282 OFFCURVE",
"405 315 CURVE SMOOTH",
"405 348 OFFCURVE",
"379 375 OFFCURVE",
"345 375 CURVE SMOOTH"
);
},
{
closed = 1;
nodes = (
"208 465 OFFCURVE",
"55 339 OFFCURVE",
"55 160 CURVE SMOOTH",
"55 33 OFFCURVE",
"117 -14 OFFCURVE",
"185 -14 CURVE SMOOTH",
"253 -14 OFFCURVE",
"321 43 OFFCURVE",
"344 126 CURVE",
"346 126 LINE",
"369 43 OFFCURVE",
"437 -14 OFFCURVE",
"505 -14 CURVE SMOOTH",
"572 -14 OFFCURVE",
"635 33 OFFCURVE",
"635 160 CURVE SMOOTH",
"635 339 OFFCURVE",
"482 465 OFFCURVE",
"345 465 CURVE"
);
},
{
closed = 1;
nodes = (
"477 441 OFFCURVE",
"584 300 OFFCURVE",
"584 192 CURVE SMOOTH",
"584 124 OFFCURVE",
"552 71 OFFCURVE",
"495 71 CURVE SMOOTH",
"429 71 OFFCURVE",
"364 145 OFFCURVE",
"350 221 CURVE SMOOTH",
"341 221 LINE",
"327 145 OFFCURVE",
"261 71 OFFCURVE",
"196 71 CURVE SMOOTH",
"138 71 OFFCURVE",
"106 124 OFFCURVE",
"106 192 CURVE SMOOTH",
"106 300 OFFCURVE",
"213 441 OFFCURVE",
"345 441 CURVE"
);
},
{
closed = 1;
nodes = (
"545 644 LINE",
"569 635 OFFCURVE",
"591 610 OFFCURVE",
"591 576 CURVE SMOOTH",
"591 536 OFFCURVE",
"560 509 OFFCURVE",
"499 509 CURVE SMOOTH",
"55 509 LINE",
"55 434 LINE",
"241 434 LINE",
"345 444 LINE",
"448 434 LINE",
"499 434 LINE SMOOTH",
"580 434 OFFCURVE",
"634 480 OFFCURVE",
"634 552 CURVE SMOOTH",
"634 607 OFFCURVE",
"603 648 OFFCURVE",
"560 664 CURVE"
);
}
);
width = 700;
}
);
leftMetricsKey = "=da-kannada";
rightMetricsKey = "=da-kannada";
unicode = 0CA5;
},
{
color = 3;
glyphname = knDA;
lastChange = "2015-11-30 18:59:41 +0000";
layers = (
{
background = {
paths = (
{
closed = 1;
nodes = (
"336 44 LINE",
"325 -36 OFFCURVE",
"281 -92 OFFCURVE",
"281 -133 CURVE SMOOTH",
"281 -182 OFFCURVE",
"319 -202 OFFCURVE",
"345 -202 CURVE SMOOTH",
"369 -202 OFFCURVE",
"410 -186 OFFCURVE",
"410 -133 CURVE SMOOTH",
"410 -92 OFFCURVE",
"367 -36 OFFCURVE",
"354 44 CURVE"
);
},
{
closed = 1;
nodes = (
"313 375 OFFCURVE",
"287 348 OFFCURVE",
"287 315 CURVE SMOOTH",
"287 282 OFFCURVE",
"313 256 OFFCURVE",
"345 256 CURVE SMOOTH",
"379 256 OFFCURVE",
"405 282 OFFCURVE",
"405 315 CURVE SMOOTH",
"405 348 OFFCURVE",
"379 375 OFFCURVE",
"345 375 CURVE SMOOTH"
);
},
{
closed = 1;
nodes = (
"208 465 OFFCURVE",
"55 339 OFFCURVE",
"55 160 CURVE SMOOTH",
"55 33 OFFCURVE",
"117 -14 OFFCURVE",
"185 -14 CURVE SMOOTH",
"253 -14 OFFCURVE",
"321 43 OFFCURVE",
"344 126 CURVE",
"346 126 LINE",
"369 43 OFFCURVE",
"437 -14 OFFCURVE",
"505 -14 CURVE SMOOTH",
"572 -14 OFFCURVE",
"635 33 OFFCURVE",
"635 160 CURVE SMOOTH",
"635 339 OFFCURVE",
"482 465 OFFCURVE",
"345 465 CURVE"
);
},
{
closed = 1;
nodes = (
"477 441 OFFCURVE",
"584 300 OFFCURVE",
"584 192 CURVE SMOOTH",
"584 124 OFFCURVE",
"552 71 OFFCURVE",
"495 71 CURVE SMOOTH",
"429 71 OFFCURVE",
"364 145 OFFCURVE",
"350 221 CURVE SMOOTH",
"341 221 LINE",
"327 145 OFFCURVE",
"261 71 OFFCURVE",
"196 71 CURVE SMOOTH",
"138 71 OFFCURVE",
"106 124 OFFCURVE",
"106 192 CURVE SMOOTH",
"106 300 OFFCURVE",
"213 441 OFFCURVE",
"345 441 CURVE"
);
},
{
closed = 1;
nodes = (
"545 644 LINE",
"569 635 OFFCURVE",
"591 610 OFFCURVE",
"591 576 CURVE SMOOTH",
"591 536 OFFCURVE",
"560 509 OFFCURVE",
"499 509 CURVE SMOOTH",
"55 509 LINE",
"55 434 LINE",
"241 434 LINE",
"345 444 LINE",
"448 434 LINE",
"499 434 LINE SMOOTH",
"580 434 OFFCURVE",
"634 480 OFFCURVE",
"634 552 CURVE SMOOTH",
"634 607 OFFCURVE",
"603 648 OFFCURVE",
"560 664 CURVE"
);
}
);
};
guideLines = (
{
angle = 270;
position = "{55, -78}";
}
);
layerId = "034236B8-3FA8-43DA-9EDA-EFF269A687EC";
name = Regular;
paths = (
{
closed = 1;
nodes = (
"208 465 OFFCURVE",
"55 339 OFFCURVE",
"55 160 CURVE SMOOTH",
"55 33 OFFCURVE",
"117 -14 OFFCURVE",
"185 -14 CURVE SMOOTH",
"253 -14 OFFCURVE",
"321 43 OFFCURVE",
"344 126 CURVE",
"346 126 LINE",
"369 43 OFFCURVE",
"437 -14 OFFCURVE",
"505 -14 CURVE SMOOTH",
"572 -14 OFFCURVE",
"635 33 OFFCURVE",
"635 160 CURVE SMOOTH",
"635 339 OFFCURVE",
"482 465 OFFCURVE",
"345 465 CURVE"
);
},
{
closed = 1;
nodes = (
"477 441 OFFCURVE",
"584 300 OFFCURVE",
"584 192 CURVE SMOOTH",
"584 124 OFFCURVE",
"552 71 OFFCURVE",
"495 71 CURVE SMOOTH",
"429 71 OFFCURVE",
"364 145 OFFCURVE",
"350 221 CURVE SMOOTH",
"341 221 LINE",
"327 145 OFFCURVE",
"261 71 OFFCURVE",
"196 71 CURVE SMOOTH",
"138 71 OFFCURVE",
"106 124 OFFCURVE",
"106 192 CURVE SMOOTH",
"106 300 OFFCURVE",
"213 441 OFFCURVE",
"345 441 CURVE"
);
},
{
closed = 1;
nodes = (
"545 644 LINE",
"569 635 OFFCURVE",
"591 610 OFFCURVE",
"591 576 CURVE SMOOTH",
"591 536 OFFCURVE",
"560 509 OFFCURVE",
"499 509 CURVE SMOOTH",
"55 509 LINE",
"55 434 LINE",
"241 434 LINE",
"345 444 LINE",
"448 434 LINE",
"499 434 LINE SMOOTH",
"580 434 OFFCURVE",
"634 480 OFFCURVE",
"634 552 CURVE SMOOTH",
"634 607 OFFCURVE",
"603 648 OFFCURVE",
"560 664 CURVE"
);
}
);
width = 700;
}
);
unicode = 0CA6;
},
{
color = 3;
glyphname = knDHA;
lastChange = "2015-11-30 18:59:33 +0000";
layers = (
{
guideLines = (
{
angle = 270;
position = "{55, -78}";
}
);
layerId = "034236B8-3FA8-43DA-9EDA-EFF269A687EC";
leftMetricsKey = "=knDA";
rightMetricsKey = "=knDA";
name = Regular;
paths = (
{
closed = 1;
nodes = (
"336 44 LINE",
"325 -36 OFFCURVE",
"281 -92 OFFCURVE",
"281 -133 CURVE SMOOTH",
"281 -182 OFFCURVE",
"319 -202 OFFCURVE",
"345 -202 CURVE SMOOTH",
"369 -202 OFFCURVE",
"410 -186 OFFCURVE",
"410 -133 CURVE SMOOTH",
"410 -92 OFFCURVE",
"367 -36 OFFCURVE",
"354 44 CURVE"
);
},
{
closed = 1;
nodes = (
"208 465 OFFCURVE",
"55 339 OFFCURVE",
"55 160 CURVE SMOOTH",
"55 33 OFFCURVE",
"117 -14 OFFCURVE",
"185 -14 CURVE SMOOTH",
"253 -14 OFFCURVE",
"321 43 OFFCURVE",
"344 126 CURVE",
"346 126 LINE",
"369 43 OFFCURVE",
"437 -14 OFFCURVE",
"505 -14 CURVE SMOOTH",
"572 -14 OFFCURVE",
"635 33 OFFCURVE",
"635 160 CURVE SMOOTH",
"635 339 OFFCURVE",
"482 465 OFFCURVE",
"345 465 CURVE"
);
},
{
closed = 1;
nodes = (
"477 441 OFFCURVE",
"584 300 OFFCURVE",
"584 192 CURVE SMOOTH",
"584 124 OFFCURVE",
"552 71 OFFCURVE",
"495 71 CURVE SMOOTH",
"429 71 OFFCURVE",
"364 145 OFFCURVE",
"350 221 CURVE SMOOTH",
"341 221 LINE",
"327 145 OFFCURVE",
"261 71 OFFCURVE",
"196 71 CURVE SMOOTH",
"138 71 OFFCURVE",
"106 124 OFFCURVE",
"106 192 CURVE SMOOTH",
"106 300 OFFCURVE",
"213 441 OFFCURVE",
"345 441 CURVE"
);
},
{
closed = 1;
nodes = (
"545 644 LINE",
"569 635 OFFCURVE",
"591 610 OFFCURVE",
"591 576 CURVE SMOOTH",
"591 536 OFFCURVE",
"560 509 OFFCURVE",
"499 509 CURVE SMOOTH",
"55 509 LINE",
"55 434 LINE",
"241 434 LINE",
"345 444 LINE",
"448 434 LINE",
"499 434 LINE SMOOTH",
"580 434 OFFCURVE",
"634 480 OFFCURVE",
"634 552 CURVE SMOOTH",
"634 607 OFFCURVE",
"603 648 OFFCURVE",
"560 664 CURVE"
);
}
);
width = 700;
}
);
leftMetricsKey = "=da-kannada";
rightMetricsKey = "=da-kannada";
unicode = 0CA7;
},
{
color = 3;
glyphname = knNA;
lastChange = "2015-11-28 16:17:07 +0000";
layers = (
{
layerId = "034236B8-3FA8-43DA-9EDA-EFF269A687EC";
rightMetricsKey = "=knDA";
name = Regular;
paths = (
{
closed = 1;
nodes = (
"430 425 LINE SMOOTH",
"509 425 OFFCURVE",
"566 480 OFFCURVE",
"566 549 CURVE SMOOTH",
"566 594 OFFCURVE",
"543 636 OFFCURVE",
"491 663 CURVE",
"476 643 LINE",
"503 625 OFFCURVE",
"513 600 OFFCURVE",
"513 578 CURVE SMOOTH",
"513 537 OFFCURVE",
"482 508 OFFCURVE",
"430 508 CURVE SMOOTH",
"75 508 LINE",
"75 425 LINE",
"311 425 LINE",
"434 391 OFFCURVE",
"525 321 OFFCURVE",
"525 211 CURVE SMOOTH",
"525 146 OFFCURVE",
"489 93 OFFCURVE",
"441 93 CURVE SMOOTH",
"296 93 OFFCURVE",
"349 294 OFFCURVE",
"204 294 CURVE SMOOTH",
"133 294 OFFCURVE",
"75 225 OFFCURVE",
"75 140 CURVE SMOOTH",
"75 54 OFFCURVE",
"115 -23 OFFCURVE",
"181 -61 CURVE SMOOTH",
"204 -75 OFFCURVE",
"234 -66 OFFCURVE",
"234 -43 CURVE SMOOTH",
"234 -20 OFFCURVE",
"218 1 OFFCURVE",
"193 10 CURVE SMOOTH",
"142 27 OFFCURVE",
"110 65 OFFCURVE",
"110 104 CURVE SMOOTH",
"110 163 OFFCURVE",
"153 211 OFFCURVE",
"204 211 CURVE SMOOTH",
"362 211 OFFCURVE",
"275 -14 OFFCURVE",
"441 -14 CURVE SMOOTH",
"521 -14 OFFCURVE",
"584 72 OFFCURVE",
"584 176 CURVE SMOOTH",
"584 284 OFFCURVE",
"524 372 OFFCURVE",
"400 425 CURVE"
);
}
);
width = 649;
}
);
rightMetricsKey = "=da-kannada";
unicode = 0CA8;
},
{
color = 3;
glyphname = knPA;
lastChange = "2015-11-30 18:59:28 +0000";
layers = (
{
guideLines = (
{
angle = 270;
position = "{50, -78}";
}
);
layerId = "034236B8-3FA8-43DA-9EDA-EFF269A687EC";
name = Regular;
paths = (
{
closed = 1;
nodes = (
"588 -14 OFFCURVE",
"625 84 OFFCURVE",
"625 179 CURVE SMOOTH",
"625 271 OFFCURVE",
"603 392 OFFCURVE",
"551 392 CURVE SMOOTH",
"526 392 OFFCURVE",
"509 375 OFFCURVE",
"509 352 CURVE SMOOTH",
"509 304 OFFCURVE",
"587 339 OFFCURVE",
"587 202 CURVE SMOOTH",
"587 141 OFFCURVE",
"559 71 OFFCURVE",
"483 71 CURVE",
"418 71 OFFCURVE",
"353 145 OFFCURVE",
"339 221 CURVE",
"330 221 LINE",
"316 145 OFFCURVE",
"251 71 OFFCURVE",
"176 71 CURVE",
"125 71 OFFCURVE",
"93 114 OFFCURVE",
"93 156 CURVE SMOOTH",
"93 203 OFFCURVE",
"119 227 OFFCURVE",
"156 227 CURVE SMOOTH",
"186 227 OFFCURVE",
"211 217 OFFCURVE",
"222 193 CURVE",
"238 208 LINE",
"225 250 OFFCURVE",
"201 287 OFFCURVE",
"153 287 CURVE",
"93 287 OFFCURVE",
"50 232 OFFCURVE",
"50 143 CURVE SMOOTH",
"50 56 OFFCURVE",
"84 -14 OFFCURVE",
"173 -14 CURVE",
"241 -14 OFFCURVE",
"311 43 OFFCURVE",
"334 126 CURVE",
"336 126 LINE",
"359 43 OFFCURVE",
"428 -14 OFFCURVE",
"493 -14 CURVE"
);
},
{
closed = 1;
nodes = (
"557 644 LINE",
"581 635 OFFCURVE",
"603 610 OFFCURVE",
"603 576 CURVE SMOOTH",
"603 536 OFFCURVE",
"572 509 OFFCURVE",
"511 509 CURVE SMOOTH",
"50 509 LINE",
"50 434 LINE",
"511 434 LINE SMOOTH",
"592 434 OFFCURVE",
"646 480 OFFCURVE",
"646 552 CURVE SMOOTH",
"646 607 OFFCURVE",
"615 648 OFFCURVE",
"572 664 CURVE"
);
},
{
closed = 1;
nodes = (
"299 390 OFFCURVE",
"274 363 OFFCURVE",
"274 331 CURVE SMOOTH",
"274 298 OFFCURVE",
"299 271 OFFCURVE",
"333 271 CURVE SMOOTH",
"366 271 OFFCURVE",
"393 298 OFFCURVE",
"393 331 CURVE SMOOTH",
"393 363 OFFCURVE",
"366 390 OFFCURVE",
"333 390 CURVE SMOOTH"
);
}
);
width = 720;
}
);
unicode = 0CAA;
},
{
color = 3;
glyphname = knPHA;
lastChange = "2015-11-30 18:59:23 +0000";
layers = (
{
guideLines = (
{
angle = 270;
position = "{50, -78}";
}
);
layerId = "034236B8-3FA8-43DA-9EDA-EFF269A687EC";
name = Regular;
paths = (
{
closed = 1;
nodes = (
"588 -14 OFFCURVE",
"625 84 OFFCURVE",
"625 179 CURVE SMOOTH",
"625 271 OFFCURVE",
"603 392 OFFCURVE",
"551 392 CURVE SMOOTH",
"526 392 OFFCURVE",
"509 375 OFFCURVE",
"509 352 CURVE SMOOTH",
"509 304 OFFCURVE",
"587 339 OFFCURVE",
"587 202 CURVE SMOOTH",
"587 141 OFFCURVE",
"559 71 OFFCURVE",
"483 71 CURVE",
"418 71 OFFCURVE",
"353 145 OFFCURVE",
"339 221 CURVE",
"330 221 LINE",
"316 145 OFFCURVE",
"251 71 OFFCURVE",
"176 71 CURVE",
"125 71 OFFCURVE",
"93 114 OFFCURVE",
"93 156 CURVE SMOOTH",
"93 203 OFFCURVE",
"119 227 OFFCURVE",
"156 227 CURVE SMOOTH",
"186 227 OFFCURVE",
"211 217 OFFCURVE",
"222 193 CURVE",
"238 208 LINE",
"225 250 OFFCURVE",
"201 287 OFFCURVE",
"153 287 CURVE",
"93 287 OFFCURVE",
"50 232 OFFCURVE",
"50 143 CURVE SMOOTH",
"50 56 OFFCURVE",
"84 -14 OFFCURVE",
"173 -14 CURVE",
"241 -14 OFFCURVE",
"311 43 OFFCURVE",
"334 126 CURVE",
"336 126 LINE",
"359 43 OFFCURVE",
"428 -14 OFFCURVE",
"493 -14 CURVE"
);
},
{
closed = 1;
nodes = (
"557 644 LINE",
"581 635 OFFCURVE",
"603 610 OFFCURVE",
"603 576 CURVE SMOOTH",
"603 536 OFFCURVE",
"572 509 OFFCURVE",
"511 509 CURVE SMOOTH",
"50 509 LINE",
"50 434 LINE",
"511 434 LINE SMOOTH",
"592 434 OFFCURVE",
"646 480 OFFCURVE",
"646 552 CURVE SMOOTH",
"646 607 OFFCURVE",
"615 648 OFFCURVE",
"572 664 CURVE"
);
},
{
closed = 1;
nodes = (
"299 390 OFFCURVE",
"274 363 OFFCURVE",
"274 331 CURVE SMOOTH",
"274 298 OFFCURVE",
"299 271 OFFCURVE",
"333 271 CURVE SMOOTH",
"366 271 OFFCURVE",
"393 298 OFFCURVE",
"393 331 CURVE SMOOTH",
"393 363 OFFCURVE",
"366 390 OFFCURVE",
"333 390 CURVE SMOOTH"
);
},
{
closed = 1;
nodes = (
"398 -90 OFFCURVE",
"355 -34 OFFCURVE",
"343 46 CURVE",
"324 46 LINE",
"313 -34 OFFCURVE",
"269 -90 OFFCURVE",
"269 -131 CURVE SMOOTH",
"269 -180 OFFCURVE",
"307 -200 OFFCURVE",
"333 -200 CURVE",
"357 -200 OFFCURVE",
"398 -184 OFFCURVE",
"398 -131 CURVE SMOOTH"
);
}
);
width = 720;
}
);
unicode = 0CAB;
},
{
glyphname = knBA;
lastChange = "2015-11-30 19:28:04 +0000";
layers = (
{
background = {
paths = (
{
closed = 1;
nodes = (
"368 71 OFFCURVE",
"319 145 OFFCURVE",
"299 189 CURVE",
"275 139 LINE",
"287 82 OFFCURVE",
"362 -14 OFFCURVE",
"458 -14 CURVE",
"571 -14 OFFCURVE",
"651 115 OFFCURVE",
"651 242 CURVE",
"651 415 OFFCURVE",
"565 513 OFFCURVE",
"494 513 CURVE SMOOTH",
"463 513 OFFCURVE",
"446 493 OFFCURVE",
"446 470 CURVE SMOOTH",
"446 451 OFFCURVE",
"458 435 OFFCURVE",
"474 430 CURVE SMOOTH",
"497 423 OFFCURVE",
"518 428 OFFCURVE",
"542 420 CURVE SMOOTH",
"579 407 OFFCURVE",
"610 344 OFFCURVE",
"610 255 CURVE",
"610 159 OFFCURVE",
"540 71 OFFCURVE",
"458 71 CURVE"
);
}
);
};
layerId = "034236B8-3FA8-43DA-9EDA-EFF269A687EC";
name = Regular;
paths = (
{
closed = 1;
nodes = (
"459 71 OFFCURVE",
"393 146 OFFCURVE",
"380 221 CURVE",
"371 221 LINE",
"357 145 OFFCURVE",
"292 71 OFFCURVE",
"219 71 CURVE SMOOTH",
"166 71 OFFCURVE",
"139 104 OFFCURVE",
"139 146 CURVE",
"139 187 OFFCURVE",
"169 217 OFFCURVE",
"201 251 CURVE SMOOTH",
"241 292 OFFCURVE",
"286 338 OFFCURVE",
"286 397 CURVE SMOOTH",
"286 471 OFFCURVE",
"227 519 OFFCURVE",
"162 519 CURVE SMOOTH",
"104 519 OFFCURVE",
"45 483 OFFCURVE",
"45 414 CURVE SMOOTH",
"45 382 OFFCURVE",
"56 350 OFFCURVE",
"77 328 CURVE",
"108 348 LINE",
"100 363 OFFCURVE",
"97 375 OFFCURVE",
"97 386 CURVE SMOOTH",
"97 423 OFFCURVE",
"123 450 OFFCURVE",
"162 450 CURVE SMOOTH",
"199 450 OFFCURVE",
"233 425 OFFCURVE",
"233 383 CURVE SMOOTH",
"233 342 OFFCURVE",
"202 309 OFFCURVE",
"170 276 CURVE SMOOTH",
"131 236 OFFCURVE",
"88 193 OFFCURVE",
"88 125 CURVE",
"88 38 OFFCURVE",
"149 -14 OFFCURVE",
"216 -14 CURVE SMOOTH",
"284 -14 OFFCURVE",
"352 43 OFFCURVE",
"375 126 CURVE",
"377 126 LINE",
"400 43 OFFCURVE",
"468 -14 OFFCURVE",
"539 -14 CURVE",
"652 -14 OFFCURVE",
"692 115 OFFCURVE",
"692 242 CURVE",
"692 415 OFFCURVE",
"606 513 OFFCURVE",
"535 513 CURVE SMOOTH",
"504 513 OFFCURVE",
"487 493 OFFCURVE",
"487 470 CURVE SMOOTH",
"487 451 OFFCURVE",
"499 435 OFFCURVE",
"515 430 CURVE SMOOTH",
"538 423 OFFCURVE",
"559 428 OFFCURVE",
"583 420 CURVE SMOOTH",
"620 407 OFFCURVE",
"651 344 OFFCURVE",
"651 255 CURVE",
"651 159 OFFCURVE",
"614 71 OFFCURVE",
"532 71 CURVE"
);
}
);
width = 740;
}
);
unicode = 0CAC;
},
{
color = 3;
glyphname = knBHA;
lastChange = "2015-11-30 19:28:07 +0000";
layers = (
{
background = {
paths = (
{
closed = 0;
nodes = (
"551 434 LINE"
);
},
{
closed = 1;
nodes = (
"635 -14 OFFCURVE",
"689 84 OFFCURVE",
"689 171 CURVE SMOOTH",
"689 360 OFFCURVE",
"546 474 OFFCURVE",
"410 474 CURVE",
"400 434 LINE",
"552 424 OFFCURVE",
"649 301 OFFCURVE",
"649 203 CURVE SMOOTH",
"649 121 OFFCURVE",
"602 71 OFFCURVE",
"526 71 CURVE",
"453 71 OFFCURVE",
"387 146 OFFCURVE",
"374 221 CURVE",
"365 221 LINE",
"351 145 OFFCURVE",
"286 71 OFFCURVE",
"213 71 CURVE SMOOTH",
"160 71 OFFCURVE",
"133 114 OFFCURVE",
"133 156 CURVE",
"133 187 OFFCURVE",
"163 217 OFFCURVE",
"195 251 CURVE SMOOTH",
"235 292 OFFCURVE",
"280 338 OFFCURVE",
"280 397 CURVE SMOOTH",
"280 471 OFFCURVE",
"221 519 OFFCURVE",
"156 519 CURVE SMOOTH",
"98 519 OFFCURVE",
"39 483 OFFCURVE",
"39 414 CURVE SMOOTH",
"39 382 OFFCURVE",
"50 350 OFFCURVE",
"71 328 CURVE",
"102 348 LINE",
"94 363 OFFCURVE",
"91 375 OFFCURVE",
"91 386 CURVE SMOOTH",
"91 423 OFFCURVE",
"117 450 OFFCURVE",
"156 450 CURVE SMOOTH",
"193 450 OFFCURVE",
"227 425 OFFCURVE",
"227 383 CURVE SMOOTH",
"227 342 OFFCURVE",
"196 309 OFFCURVE",
"164 276 CURVE SMOOTH",
"125 236 OFFCURVE",
"82 193 OFFCURVE",
"82 125 CURVE",
"82 38 OFFCURVE",
"143 -14 OFFCURVE",
"210 -14 CURVE SMOOTH",
"278 -14 OFFCURVE",
"346 43 OFFCURVE",
"369 126 CURVE",
"371 126 LINE",
"394 43 OFFCURVE",
"462 -14 OFFCURVE",
"533 -14 CURVE"
);
}
);
};
layerId = "034236B8-3FA8-43DA-9EDA-EFF269A687EC";
leftMetricsKey = "=knBA";
rightMetricsKey = "=knBA";
name = Regular;
paths = (
{
closed = 1;
nodes = (
"435 -90 OFFCURVE",
"392 -34 OFFCURVE",
"380 46 CURVE",
"361 46 LINE",
"350 -34 OFFCURVE",
"306 -90 OFFCURVE",
"306 -131 CURVE SMOOTH",
"306 -180 OFFCURVE",
"344 -200 OFFCURVE",
"370 -200 CURVE",
"394 -200 OFFCURVE",
"435 -184 OFFCURVE",
"435 -131 CURVE SMOOTH"
);
},
{
closed = 1;
nodes = (
"600 644 LINE",
"624 635 OFFCURVE",
"646 610 OFFCURVE",
"646 576 CURVE SMOOTH",
"646 536 OFFCURVE",
"615 509 OFFCURVE",
"554 509 CURVE SMOOTH",
"363 509 LINE",
"363 434 LINE",
"554 434 LINE SMOOTH",
"635 434 OFFCURVE",
"689 480 OFFCURVE",
"689 552 CURVE SMOOTH",
"689 607 OFFCURVE",
"658 648 OFFCURVE",
"615 664 CURVE"
);
},
{
closed = 0;
nodes = (
"551 434 LINE"
);
},
{
closed = 1;
nodes = (
"635 -14 OFFCURVE",
"689 84 OFFCURVE",
"689 171 CURVE SMOOTH",
"689 360 OFFCURVE",
"546 474 OFFCURVE",
"410 474 CURVE",
"400 434 LINE",
"552 424 OFFCURVE",
"649 301 OFFCURVE",
"649 203 CURVE SMOOTH",
"649 121 OFFCURVE",
"602 71 OFFCURVE",
"526 71 CURVE",
"453 71 OFFCURVE",
"387 146 OFFCURVE",
"374 221 CURVE",
"365 221 LINE",
"351 145 OFFCURVE",
"286 71 OFFCURVE",
"213 71 CURVE SMOOTH",
"160 71 OFFCURVE",
"133 104 OFFCURVE",
"133 146 CURVE",
"133 187 OFFCURVE",
"163 217 OFFCURVE",
"195 251 CURVE SMOOTH",
"235 292 OFFCURVE",
"280 338 OFFCURVE",
"280 397 CURVE SMOOTH",
"280 471 OFFCURVE",
"221 519 OFFCURVE",
"156 519 CURVE SMOOTH",
"98 519 OFFCURVE",
"39 483 OFFCURVE",
"39 414 CURVE SMOOTH",
"39 382 OFFCURVE",
"50 350 OFFCURVE",
"71 328 CURVE",
"102 348 LINE",
"94 363 OFFCURVE",
"91 375 OFFCURVE",
"91 386 CURVE SMOOTH",
"91 423 OFFCURVE",
"117 450 OFFCURVE",
"156 450 CURVE SMOOTH",
"193 450 OFFCURVE",
"227 425 OFFCURVE",
"227 383 CURVE SMOOTH",
"227 342 OFFCURVE",
"196 309 OFFCURVE",
"164 276 CURVE SMOOTH",
"125 236 OFFCURVE",
"82 193 OFFCURVE",
"82 125 CURVE",
"82 38 OFFCURVE",
"143 -14 OFFCURVE",
"210 -14 CURVE SMOOTH",
"278 -14 OFFCURVE",
"346 43 OFFCURVE",
"369 126 CURVE",
"371 126 LINE",
"394 43 OFFCURVE",
"462 -14 OFFCURVE",
"533 -14 CURVE"
);
}
);
width = 786;
}
);
leftMetricsKey = "=ba-kannada";
rightMetricsKey = "=ba-kannada";
unicode = 0CAD;
},
{
color = 3;
glyphname = knMA;
lastChange = "2015-11-30 19:22:53 +0000";
layers = (
{
background = {
paths = (
{
closed = 1;
nodes = (
"335 425 LINE",
"467 425 OFFCURVE",
"574 302 OFFCURVE",
"574 194 CURVE SMOOTH",
"574 126 OFFCURVE",
"542 93 OFFCURVE",
"485 93 CURVE SMOOTH",
"419 93 OFFCURVE",
"358 148 OFFCURVE",
"346 223 CURVE",
"336 223 LINE",
"323 147 OFFCURVE",
"257 93 OFFCURVE",
"182 93 CURVE",
"120 93 OFFCURVE",
"91 126 OFFCURVE",
"91 166 CURVE SMOOTH",
"91 203 OFFCURVE",
"117 227 OFFCURVE",
"154 227 CURVE SMOOTH",
"183 227 OFFCURVE",
"210 217 OFFCURVE",
"220 193 CURVE",
"236 208 LINE",
"224 250 OFFCURVE",
"198 287 OFFCURVE",
"150 287 CURVE",
"90 287 OFFCURVE",
"49 232 OFFCURVE",
"49 143 CURVE SMOOTH",
"49 56 OFFCURVE",
"93 -14 OFFCURVE",
"177 -14 CURVE",
"248 -14 OFFCURVE",
"317 45 OFFCURVE",
"340 128 CURVE",
"342 128 LINE",
"365 45 OFFCURVE",
"433 -14 OFFCURVE",
"498 -14 CURVE SMOOTH",
"562 -14 OFFCURVE",
"625 35 OFFCURVE",
"625 162 CURVE SMOOTH",
"625 341 OFFCURVE",
"472 465 OFFCURVE",
"335 465 CURVE"
);
},
{
closed = 1;
nodes = (
"532 643 LINE",
"559 625 OFFCURVE",
"569 600 OFFCURVE",
"569 578 CURVE SMOOTH",
"569 537 OFFCURVE",
"538 508 OFFCURVE",
"486 508 CURVE SMOOTH",
"48 508 LINE",
"48 425 LINE",
"231 425 LINE",
"334 425 LINE",
"438 425 LINE",
"486 425 LINE",
"565 425 OFFCURVE",
"622 480 OFFCURVE",
"622 549 CURVE SMOOTH",
"622 594 OFFCURVE",
"599 636 OFFCURVE",
"547 663 CURVE"
);
},
{
closed = 1;
nodes = (
"633 45 OFFCURVE",
"701 -14 OFFCURVE",
"773 -14 CURVE SMOOTH",
"879 -14 OFFCURVE",
"944 78 OFFCURVE",
"944 224 CURVE SMOOTH",
"944 392 OFFCURVE",
"830 514 OFFCURVE",
"743 514 CURVE SMOOTH",
"708 514 OFFCURVE",
"688 494 OFFCURVE",
"688 471 CURVE SMOOTH",
"688 454 OFFCURVE",
"699 439 OFFCURVE",
"712 432 CURVE SMOOTH",
"727 424 OFFCURVE",
"750 427 OFFCURVE",
"783 422 CURVE SMOOTH",
"855 409 OFFCURVE",
"902 339 OFFCURVE",
"902 237 CURVE SMOOTH",
"902 168 OFFCURVE",
"863 93 OFFCURVE",
"762 93 CURVE SMOOTH",
"693 93 OFFCURVE",
"626 148 OFFCURVE",
"613 223 CURVE",
"610 128 LINE"
);
}
);
};
layerId = "034236B8-3FA8-43DA-9EDA-EFF269A687EC";
leftMetricsKey = "=knSSA";
rightMetricsKey = "=knBA";
name = Regular;
paths = (
{
closed = 1;
nodes = (
"689 71 OFFCURVE",
"639 145 OFFCURVE",
"619 189 CURVE",
"595 139 LINE",
"607 82 OFFCURVE",
"683 -14 OFFCURVE",
"773 -14 CURVE SMOOTH",
"882 -14 OFFCURVE",
"951 115 OFFCURVE",
"951 242 CURVE",
"951 415 OFFCURVE",
"835 513 OFFCURVE",
"764 513 CURVE SMOOTH",
"733 513 OFFCURVE",
"716 493 OFFCURVE",
"716 470 CURVE SMOOTH",
"716 451 OFFCURVE",
"728 435 OFFCURVE",
"744 430 CURVE SMOOTH",
"767 423 OFFCURVE",
"788 428 OFFCURVE",
"812 420 CURVE SMOOTH",
"849 407 OFFCURVE",
"910 344 OFFCURVE",
"910 255 CURVE",
"910 159 OFFCURVE",
"851 71 OFFCURVE",
"773 71 CURVE SMOOTH"
);
},
{
closed = 1;
nodes = (
"531 644 LINE",
"555 635 OFFCURVE",
"577 610 OFFCURVE",
"577 576 CURVE SMOOTH",
"577 536 OFFCURVE",
"546 509 OFFCURVE",
"485 509 CURVE SMOOTH",
"50 509 LINE",
"50 434 LINE",
"485 434 LINE SMOOTH",
"566 434 OFFCURVE",
"620 480 OFFCURVE",
"620 552 CURVE SMOOTH",
"620 607 OFFCURVE",
"589 648 OFFCURVE",
"546 664 CURVE"
);
},
{
closed = 1;
nodes = (
"418 71 OFFCURVE",
"353 145 OFFCURVE",
"339 221 CURVE",
"330 221 LINE",
"316 145 OFFCURVE",
"251 71 OFFCURVE",
"176 71 CURVE",
"125 71 OFFCURVE",
"93 114 OFFCURVE",
"93 156 CURVE SMOOTH",
"93 203 OFFCURVE",
"119 227 OFFCURVE",
"156 227 CURVE SMOOTH",
"186 227 OFFCURVE",
"211 217 OFFCURVE",
"222 193 CURVE",
"238 208 LINE",
"225 250 OFFCURVE",
"201 287 OFFCURVE",
"153 287 CURVE",
"93 287 OFFCURVE",
"50 232 OFFCURVE",
"50 143 CURVE SMOOTH",
"50 56 OFFCURVE",
"84 -14 OFFCURVE",
"173 -14 CURVE",
"241 -14 OFFCURVE",
"311 43 OFFCURVE",
"334 126 CURVE",
"336 126 LINE",
"359 43 OFFCURVE",
"428 -14 OFFCURVE",
"493 -14 CURVE SMOOTH",
"588 -14 OFFCURVE",
"626 84 OFFCURVE",
"626 171 CURVE SMOOTH",
"626 360 OFFCURVE",
"483 474 OFFCURVE",
"347 474 CURVE",
"337 434 LINE",
"489 424 OFFCURVE",
"586 301 OFFCURVE",
"586 193 CURVE SMOOTH",
"586 121 OFFCURVE",
"549 71 OFFCURVE",
"483 71 CURVE SMOOTH"
);
}
);
width = 1011;
}
);
leftMetricsKey = "ssa-kannada";
rightMetricsKey = "ba-kannada";
unicode = 0CAE;
},
{
color = 3;
glyphname = knYA;
lastChange = "2015-11-30 18:21:34 +0000";
layers = (
{
background = {
paths = (
{
closed = 1;
nodes = (
"1151 392 OFFCURVE",
"1037 509 OFFCURVE",
"951 509 CURVE SMOOTH",
"915 509 OFFCURVE",
"896 496 OFFCURVE",
"896 473 CURVE SMOOTH",
"896 450 OFFCURVE",
"907 434 OFFCURVE",
"937 434 CURVE",
"1036 434 OFFCURVE",
"1109 338 OFFCURVE",
"1109 257 CURVE SMOOTH",
"1109 158 OFFCURVE",
"1040 71 OFFCURVE",
"955 71 CURVE",
"868 71 OFFCURVE",
"819 145 OFFCURVE",
"799 189 CURVE",
"775 139 LINE",
"787 82 OFFCURVE",
"862 -14 OFFCURVE",
"967 -14 CURVE",
"1092 -14 OFFCURVE",
"1151 109 OFFCURVE",
"1151 245 CURVE SMOOTH"
);
}
);
};
layerId = "034236B8-3FA8-43DA-9EDA-EFF269A687EC";
leftMetricsKey = "=knRA";
rightMetricsKey = "=knJHA";
name = Regular;
paths = (
{
closed = 1;
nodes = (
"811 392 OFFCURVE",
"697 509 OFFCURVE",
"611 509 CURVE SMOOTH",
"575 509 OFFCURVE",
"556 496 OFFCURVE",
"556 473 CURVE SMOOTH",
"556 450 OFFCURVE",
"567 434 OFFCURVE",
"597 434 CURVE",
"696 434 OFFCURVE",
"769 338 OFFCURVE",
"769 257 CURVE SMOOTH",
"769 158 OFFCURVE",
"700 71 OFFCURVE",
"615 71 CURVE",
"528 71 OFFCURVE",
"479 145 OFFCURVE",
"459 189 CURVE",
"435 139 LINE",
"447 82 OFFCURVE",
"522 -14 OFFCURVE",
"627 -14 CURVE",
"752 -14 OFFCURVE",
"811 109 OFFCURVE",
"811 245 CURVE SMOOTH"
);
},
{
closed = 1;
nodes = (
"121 519 OFFCURVE",
"30 402 OFFCURVE",
"30 250 CURVE SMOOTH",
"30 99 OFFCURVE",
"121 -14 OFFCURVE",
"260 -14 CURVE",
"399 -14 OFFCURVE",
"490 99 OFFCURVE",
"490 250 CURVE SMOOTH",
"490 402 OFFCURVE",
"399 519 OFFCURVE",
"260 519 CURVE SMOOTH"
);
},
{
closed = 1;
nodes = (
"361 434 OFFCURVE",
"436 361 OFFCURVE",
"436 261 CURVE SMOOTH",
"436 156 OFFCURVE",
"361 70 OFFCURVE",
"260 70 CURVE",
"159 70 OFFCURVE",
"84 156 OFFCURVE",
"84 261 CURVE SMOOTH",
"84 361 OFFCURVE",
"159 434 OFFCURVE",
"260 434 CURVE SMOOTH"
);
},
{
closed = 1;
nodes = (
"753 644 LINE",
"777 635 OFFCURVE",
"799 610 OFFCURVE",
"799 576 CURVE SMOOTH",
"799 536 OFFCURVE",
"768 509 OFFCURVE",
"707 509 CURVE SMOOTH",
"515 509 LINE",
"515 434 LINE",
"707 434 LINE SMOOTH",
"788 434 OFFCURVE",
"842 480 OFFCURVE",
"842 552 CURVE SMOOTH",
"842 607 OFFCURVE",
"811 648 OFFCURVE",
"768 664 CURVE"
);
},
{
closed = 1;
nodes = (
"868 71 OFFCURVE",
"819 145 OFFCURVE",
"799 189 CURVE",
"775 139 LINE",
"787 82 OFFCURVE",
"862 -14 OFFCURVE",
"958 -14 CURVE",
"1071 -14 OFFCURVE",
"1151 115 OFFCURVE",
"1151 242 CURVE",
"1151 415 OFFCURVE",
"1065 513 OFFCURVE",
"994 513 CURVE SMOOTH",
"963 513 OFFCURVE",
"946 493 OFFCURVE",
"946 470 CURVE SMOOTH",
"946 451 OFFCURVE",
"958 435 OFFCURVE",
"974 430 CURVE SMOOTH",
"997 423 OFFCURVE",
"1018 428 OFFCURVE",
"1042 420 CURVE SMOOTH",
"1079 407 OFFCURVE",
"1110 344 OFFCURVE",
"1110 255 CURVE",
"1110 159 OFFCURVE",
"1040 71 OFFCURVE",
"958 71 CURVE"
);
}
);
width = 1204;
}
);
leftMetricsKey = "jha-kannada";
rightMetricsKey = "jha-kannada";
unicode = 0CAF;
},
{
color = 3;
glyphname = knRA;
lastChange = "2015-11-30 18:59:11 +0000";
layers = (
{
background = {
paths = (
{
closed = 1;
nodes = (
"386 71 OFFCURVE",
"467 152 OFFCURVE",
"467 252 CURVE SMOOTH",
"467 352 OFFCURVE",
"386 433 OFFCURVE",
"286 433 CURVE SMOOTH",
"186 433 OFFCURVE",
"105 352 OFFCURVE",
"105 252 CURVE SMOOTH",
"105 152 OFFCURVE",
"186 71 OFFCURVE",
"286 71 CURVE SMOOTH"
);
},
{
closed = 1;
nodes = (
"421 -14 OFFCURVE",
"529 96 OFFCURVE",
"529 231 CURVE SMOOTH",
"529 364 OFFCURVE",
"421 473 OFFCURVE",
"286 473 CURVE SMOOTH",
"151 473 OFFCURVE",
"43 364 OFFCURVE",
"43 231 CURVE SMOOTH",
"43 96 OFFCURVE",
"151 -14 OFFCURVE",
"286 -14 CURVE SMOOTH"
);
}
);
};
layerId = "034236B8-3FA8-43DA-9EDA-EFF269A687EC";
leftMetricsKey = "=knDA";
rightMetricsKey = "=knDA";
name = Regular;
paths = (
{
closed = 1;
nodes = (
"244 461 OFFCURVE",
"207 453 OFFCURVE",
"175 436 CURVE SMOOTH",
"101 398 OFFCURVE",
"55 315 OFFCURVE",
"55 226 CURVE SMOOTH",
"55 86 OFFCURVE",
"157 -14 OFFCURVE",
"285 -14 CURVE",
"413 -14 OFFCURVE",
"515 86 OFFCURVE",
"515 226 CURVE SMOOTH",
"515 315 OFFCURVE",
"469 398 OFFCURVE",
"395 436 CURVE SMOOTH",
"363 453 OFFCURVE",
"326 461 OFFCURVE",
"285 461 CURVE"
);
},
{
closed = 1;
nodes = (
"386 433 OFFCURVE",
"463 360 OFFCURVE",
"463 261 CURVE SMOOTH",
"463 161 OFFCURVE",
"396 71 OFFCURVE",
"285 71 CURVE",
"174 71 OFFCURVE",
"107 161 OFFCURVE",
"107 261 CURVE SMOOTH",
"107 360 OFFCURVE",
"184 433 OFFCURVE",
"285 433 CURVE"
);
},
{
closed = 1;
nodes = (
"426 644 LINE",
"450 635 OFFCURVE",
"472 610 OFFCURVE",
"472 576 CURVE SMOOTH",
"472 536 OFFCURVE",
"441 509 OFFCURVE",
"380 509 CURVE SMOOTH",
"55 509 LINE",
"55 434 LINE",
"218 434 LINE",
"284 451 LINE",
"348 434 LINE",
"380 434 LINE SMOOTH",
"461 434 OFFCURVE",
"515 480 OFFCURVE",
"515 552 CURVE SMOOTH",
"515 607 OFFCURVE",
"484 648 OFFCURVE",
"441 664 CURVE"
);
}
);
width = 588;
}
);
leftMetricsKey = "=da-kannada";
rightMetricsKey = "=da-kannada";
unicode = 0CB0;
},
{
color = 3;
glyphname = knLA;
lastChange = "2015-11-30 19:46:30 +0000";
layers = (
{
background = {
paths = (
{
closed = 0;
nodes = (
"108 263 LINE",
"108 331 OFFCURVE",
"125 392 OFFCURVE",
"158 425 CURVE",
"156 414 OFFCURVE",
"155 401 OFFCURVE",
"155 389 CURVE SMOOTH",
"155 316 OFFCURVE",
"196 281 OFFCURVE",
"245 281 CURVE SMOOTH",
"298 281 OFFCURVE",
"330 333 OFFCURVE",
"330 399 CURVE SMOOTH",
"330 465 OFFCURVE",
"303 517 OFFCURVE",
"233 517 CURVE SMOOTH",
"140 517 OFFCURVE",
"66 397 OFFCURVE",
"66 263 CURVE"
);
},
{
closed = 1;
nodes = (
"300 373 OFFCURVE",
"281 352 OFFCURVE",
"245 352 CURVE SMOOTH",
"212 352 OFFCURVE",
"185 370 OFFCURVE",
"185 416 CURVE SMOOTH",
"185 427 OFFCURVE",
"186 438 OFFCURVE",
"188 448 CURVE",
"200 453 OFFCURVE",
"214 457 OFFCURVE",
"227 457 CURVE SMOOTH",
"276 457 OFFCURVE",
"300 438 OFFCURVE",
"300 399 CURVE SMOOTH"
);
},
{
closed = 0;
nodes = (
"108 263 LINE",
"108 331 OFFCURVE",
"125 392 OFFCURVE",
"158 425 CURVE",
"156 414 OFFCURVE",
"155 401 OFFCURVE",
"155 389 CURVE SMOOTH",
"155 316 OFFCURVE",
"196 281 OFFCURVE",
"245 281 CURVE SMOOTH",
"298 281 OFFCURVE",
"330 333 OFFCURVE",
"330 399 CURVE SMOOTH",
"330 465 OFFCURVE",
"303 517 OFFCURVE",
"233 517 CURVE SMOOTH",
"140 517 OFFCURVE",
"66 397 OFFCURVE",
"66 263 CURVE"
);
},
{
closed = 1;
nodes = (
"300 373 OFFCURVE",
"281 352 OFFCURVE",
"245 352 CURVE SMOOTH",
"212 352 OFFCURVE",
"185 370 OFFCURVE",
"185 416 CURVE SMOOTH",
"185 427 OFFCURVE",
"186 438 OFFCURVE",
"188 448 CURVE",
"200 453 OFFCURVE",
"214 457 OFFCURVE",
"227 457 CURVE SMOOTH",
"276 457 OFFCURVE",
"300 438 OFFCURVE",
"300 399 CURVE SMOOTH"
);
}
);
};
layerId = "034236B8-3FA8-43DA-9EDA-EFF269A687EC";
rightMetricsKey = "=|knCHA";
name = Regular;
paths = (
{
closed = 1;
nodes = (
"67 93 OFFCURVE",
"184 -14 OFFCURVE",
"356 -14 CURVE",
"527 -14 OFFCURVE",
"651 126 OFFCURVE",
"651 283 CURVE",
"651 416 OFFCURVE",
"563 514 OFFCURVE",
"499 514 CURVE SMOOTH",
"464 514 OFFCURVE",
"444 494 OFFCURVE",
"444 471 CURVE SMOOTH",
"444 452 OFFCURVE",
"456 436 OFFCURVE",
"472 431 CURVE SMOOTH",
"495 424 OFFCURVE",
"516 429 OFFCURVE",
"540 421 CURVE SMOOTH",
"577 408 OFFCURVE",
"604 365 OFFCURVE",
"604 293 CURVE",
"604 167 OFFCURVE",
"485 71 OFFCURVE",
"356 71 CURVE",
"225 71 OFFCURVE",
"108 158 OFFCURVE",
"108 263 CURVE",
"108 331 OFFCURVE",
"125 392 OFFCURVE",
"158 425 CURVE",
"156 414 OFFCURVE",
"155 401 OFFCURVE",
"155 389 CURVE SMOOTH",
"155 316 OFFCURVE",
"196 281 OFFCURVE",
"245 281 CURVE SMOOTH",
"298 281 OFFCURVE",
"330 333 OFFCURVE",
"330 399 CURVE SMOOTH",
"330 465 OFFCURVE",
"303 517 OFFCURVE",
"233 517 CURVE SMOOTH",
"140 517 OFFCURVE",
"67 397 OFFCURVE",
"67 263 CURVE"
);
},
{
closed = 1;
nodes = (
"300 373 OFFCURVE",
"281 352 OFFCURVE",
"245 352 CURVE SMOOTH",
"212 352 OFFCURVE",
"185 370 OFFCURVE",
"185 416 CURVE SMOOTH",
"185 427 OFFCURVE",
"186 438 OFFCURVE",
"188 448 CURVE",
"200 453 OFFCURVE",
"214 457 OFFCURVE",
"227 457 CURVE SMOOTH",
"276 457 OFFCURVE",
"300 438 OFFCURVE",
"300 399 CURVE SMOOTH"
);
}
);
width = 721;
}
);
rightMetricsKey = "=|knCHA";
unicode = 0CB2;
},
{
color = 3;
glyphname = knVA;
lastChange = "2015-11-30 19:14:47 +0000";
layers = (
{
background = {
paths = (
{
closed = 0;
nodes = (
"473 71 LINE",
"408 71 OFFCURVE",
"343 145 OFFCURVE",
"329 221 CURVE",
"320 221 LINE",
"306 145 OFFCURVE",
"241 71 OFFCURVE",
"166 71 CURVE",
"115 71 OFFCURVE",
"83 114 OFFCURVE",
"83 156 CURVE SMOOTH",
"83 203 OFFCURVE",
"109 227 OFFCURVE",
"146 227 CURVE SMOOTH",
"176 227 OFFCURVE",
"201 217 OFFCURVE",
"212 193 CURVE",
"228 208 LINE",
"215 250 OFFCURVE",
"191 287 OFFCURVE",
"143 287 CURVE",
"83 287 OFFCURVE",
"40 232 OFFCURVE",
"40 143 CURVE SMOOTH",
"40 56 OFFCURVE",
"74 -14 OFFCURVE",
"163 -14 CURVE",
"231 -14 OFFCURVE",
"301 43 OFFCURVE",
"324 126 CURVE",
"326 126 LINE",
"349 43 OFFCURVE",
"418 -14 OFFCURVE",
"483 -14 CURVE"
);
},
{
closed = 0;
nodes = (
"483 -14 LINE",
"578 -14 OFFCURVE",
"615 84 OFFCURVE",
"615 179 CURVE SMOOTH",
"615 271 OFFCURVE",
"593 392 OFFCURVE",
"541 392 CURVE SMOOTH",
"516 392 OFFCURVE",
"499 375 OFFCURVE",
"499 352 CURVE SMOOTH",
"499 304 OFFCURVE",
"577 339 OFFCURVE",
"577 202 CURVE SMOOTH",
"577 141 OFFCURVE",
"549 71 OFFCURVE",
"473 71 CURVE"
);
},
{
closed = 0;
nodes = (
"473 71 LINE",
"408 71 OFFCURVE",
"343 145 OFFCURVE",
"329 221 CURVE",
"320 221 LINE",
"306 145 OFFCURVE",
"241 71 OFFCURVE",
"166 71 CURVE",
"115 71 OFFCURVE",
"83 114 OFFCURVE",
"83 156 CURVE SMOOTH",
"83 203 OFFCURVE",
"109 227 OFFCURVE",
"146 227 CURVE SMOOTH",
"176 227 OFFCURVE",
"201 217 OFFCURVE",
"212 193 CURVE",
"228 208 LINE",
"215 250 OFFCURVE",
"191 287 OFFCURVE",
"143 287 CURVE",
"83 287 OFFCURVE",
"40 232 OFFCURVE",
"40 143 CURVE SMOOTH",
"40 56 OFFCURVE",
"74 -14 OFFCURVE",
"163 -14 CURVE",
"231 -14 OFFCURVE",
"301 43 OFFCURVE",
"324 126 CURVE",
"326 126 LINE",
"349 43 OFFCURVE",
"418 -14 OFFCURVE",
"483 -14 CURVE"
);
}
);
};
guideLines = (
{
angle = 270;
position = "{40, -78}";
}
);
layerId = "034236B8-3FA8-43DA-9EDA-EFF269A687EC";
leftMetricsKey = "=knSSA";
rightMetricsKey = "=knDA";
name = Regular;
paths = (
{
closed = 1;
nodes = (
"521 644 LINE",
"545 635 OFFCURVE",
"567 610 OFFCURVE",
"567 576 CURVE SMOOTH",
"567 536 OFFCURVE",
"536 509 OFFCURVE",
"475 509 CURVE SMOOTH",
"40 509 LINE",
"40 434 LINE",
"475 434 LINE SMOOTH",
"556 434 OFFCURVE",
"610 480 OFFCURVE",
"610 552 CURVE SMOOTH",
"610 607 OFFCURVE",
"579 648 OFFCURVE",
"536 664 CURVE"
);
},
{
closed = 1;
nodes = (
"408 71 OFFCURVE",
"343 145 OFFCURVE",
"329 221 CURVE",
"320 221 LINE",
"306 145 OFFCURVE",
"241 71 OFFCURVE",
"166 71 CURVE",
"115 71 OFFCURVE",
"83 114 OFFCURVE",
"83 156 CURVE SMOOTH",
"83 203 OFFCURVE",
"109 227 OFFCURVE",
"146 227 CURVE SMOOTH",
"176 227 OFFCURVE",
"201 217 OFFCURVE",
"212 193 CURVE",
"228 208 LINE",
"215 250 OFFCURVE",
"191 287 OFFCURVE",
"143 287 CURVE",
"83 287 OFFCURVE",
"40 232 OFFCURVE",
"40 143 CURVE SMOOTH",
"40 56 OFFCURVE",
"74 -14 OFFCURVE",
"163 -14 CURVE",
"231 -14 OFFCURVE",
"301 43 OFFCURVE",
"324 126 CURVE",
"326 126 LINE",
"349 43 OFFCURVE",
"418 -14 OFFCURVE",
"483 -14 CURVE SMOOTH",
"578 -14 OFFCURVE",
"616 84 OFFCURVE",
"616 171 CURVE SMOOTH",
"616 360 OFFCURVE",
"473 474 OFFCURVE",
"337 474 CURVE",
"327 434 LINE",
"479 424 OFFCURVE",
"576 301 OFFCURVE",
"576 193 CURVE SMOOTH",
"576 121 OFFCURVE",
"539 71 OFFCURVE",
"473 71 CURVE SMOOTH"
);
}
);
width = 680;
}
);
leftMetricsKey = "ssa-kannada";
rightMetricsKey = "da-kannada";
unicode = 0CB5;
},
{
color = 3;
glyphname = knSHA;
lastChange = "2015-11-30 19:46:38 +0000";
layers = (
{
background = {
paths = (
{
closed = 1;
nodes = (
"362 375 OFFCURVE",
"427 311 OFFCURVE",
"427 225 CURVE SMOOTH",
"427 138 OFFCURVE",
"362 76 OFFCURVE",
"274 76 CURVE",
"186 76 OFFCURVE",
"121 138 OFFCURVE",
"121 225 CURVE SMOOTH",
"121 311 OFFCURVE",
"186 375 OFFCURVE",
"274 375 CURVE"
);
},
{
closed = 1;
nodes = (
"403 557 LINE",
"427 542 OFFCURVE",
"435 520 OFFCURVE",
"435 501 CURVE SMOOTH",
"435 465 OFFCURVE",
"408 440 OFFCURVE",
"363 440 CURVE SMOOTH",
"74 440 LINE",
"74 368 LINE",
"216 368 LINE",
"274 384 LINE",
"330 368 LINE",
"363 368 LINE SMOOTH",
"432 368 OFFCURVE",
"481 416 OFFCURVE",
"481 476 CURVE SMOOTH",
"481 515 OFFCURVE",
"461 551 OFFCURVE",
"416 575 CURVE"
);
},
{
closed = 1;
nodes = (
"238 404 OFFCURVE",
"206 393 OFFCURVE",
"178 378 CURVE SMOOTH",
"114 345 OFFCURVE",
"74 283 OFFCURVE",
"74 206 CURVE SMOOTH",
"74 84 OFFCURVE",
"163 -14 OFFCURVE",
"274 -14 CURVE",
"385 -14 OFFCURVE",
"474 84 OFFCURVE",
"474 206 CURVE SMOOTH",
"474 283 OFFCURVE",
"434 345 OFFCURVE",
"370 378 CURVE SMOOTH",
"342 393 OFFCURVE",
"310 404 OFFCURVE",
"274 404 CURVE"
);
}
);
};
layerId = "034236B8-3FA8-43DA-9EDA-EFF269A687EC";
name = Regular;
paths = (
{
closed = 1;
nodes = (
"420 643 LINE",
"447 625 OFFCURVE",
"456 600 OFFCURVE",
"456 578 CURVE SMOOTH",
"456 537 OFFCURVE",
"425 508 OFFCURVE",
"374 508 CURVE SMOOTH",
"41 508 LINE",
"41 425 LINE",
"374 425 LINE",
"453 425 OFFCURVE",
"509 480 OFFCURVE",
"509 549 CURVE SMOOTH",
"509 594 OFFCURVE",
"486 636 OFFCURVE",
"435 663 CURVE"
);
},
{
closed = 1;
nodes = (
"175 467 OFFCURVE",
"124 426 OFFCURVE",
"124 378 CURVE SMOOTH",
"124 337 OFFCURVE",
"148 295 OFFCURVE",
"196 295 CURVE SMOOTH",
"230 295 OFFCURVE",
"248 317 OFFCURVE",
"248 339 CURVE",
"248 361 OFFCURVE",
"232 379 OFFCURVE",
"210 379 CURVE",
"190 379 OFFCURVE",
"176 362 OFFCURVE",
"176 340 CURVE SMOOTH",
"176 337 OFFCURVE",
"175 333 OFFCURVE",
"171 333 CURVE",
"162 333 OFFCURVE",
"159 352 OFFCURVE",
"159 364 CURVE",
"159 394 OFFCURVE",
"188 425 OFFCURVE",
"231 425 CURVE",
"274 425 OFFCURVE",
"311 385 OFFCURVE",
"311 332 CURVE SMOOTH",
"311 277 OFFCURVE",
"277 254 OFFCURVE",
"226 254 CURVE",
"209 254 OFFCURVE",
"171 254 OFFCURVE",
"157 254 CURVE SMOOTH",
"84 254 OFFCURVE",
"40 210 OFFCURVE",
"40 151 CURVE",
"40 61 OFFCURVE",
"114 -14 OFFCURVE",
"230 -14 CURVE SMOOTH",
"380 -14 OFFCURVE",
"501 76 OFFCURVE",
"501 222 CURVE SMOOTH",
"501 335 OFFCURVE",
"431 467 OFFCURVE",
"268 467 CURVE"
);
},
{
closed = 1;
nodes = (
"355 427 OFFCURVE",
"439 361 OFFCURVE",
"439 261 CURVE",
"439 166 OFFCURVE",
"372 72 OFFCURVE",
"231 72 CURVE SMOOTH",
"131 72 OFFCURVE",
"79 114 OFFCURVE",
"79 157 CURVE SMOOTH",
"79 191 OFFCURVE",
"114 214 OFFCURVE",
"153 214 CURVE",
"226 214 LINE",
"294 214 OFFCURVE",
"353 265 OFFCURVE",
"353 330 CURVE",
"353 394 OFFCURVE",
"315 427 OFFCURVE",
"283 427 CURVE"
);
}
);
width = 579;
}
);
unicode = 0CB6;
},
{
color = 3;
glyphname = knSSA;
lastChange = "2015-11-30 19:14:06 +0000";
layers = (
{
background = {
paths = (
{
closed = 1;
nodes = (
"561 392 OFFCURVE",
"544 375 OFFCURVE",
"544 352 CURVE SMOOTH",
"544 304 OFFCURVE",
"622 339 OFFCURVE",
"622 202 CURVE SMOOTH",
"622 141 OFFCURVE",
"593 93 OFFCURVE",
"524 93 CURVE",
"451 93 OFFCURVE",
"385 148 OFFCURVE",
"372 223 CURVE",
"363 223 LINE",
"349 147 OFFCURVE",
"283 93 OFFCURVE",
"207 93 CURVE",
"148 93 OFFCURVE",
"118 126 OFFCURVE",
"118 166 CURVE SMOOTH",
"118 203 OFFCURVE",
"145 227 OFFCURVE",
"182 227 CURVE SMOOTH",
"211 227 OFFCURVE",
"237 217 OFFCURVE",
"247 193 CURVE",
"263 208 LINE",
"251 250 OFFCURVE",
"226 287 OFFCURVE",
"178 287 CURVE SMOOTH",
"118 287 OFFCURVE",
"76 232 OFFCURVE",
"76 143 CURVE SMOOTH",
"76 56 OFFCURVE",
"122 -14 OFFCURVE",
"202 -14 CURVE",
"275 -14 OFFCURVE",
"344 45 OFFCURVE",
"367 128 CURVE",
"369 128 LINE",
"392 45 OFFCURVE",
"460 -14 OFFCURVE",
"528 -14 CURVE",
"623 -14 OFFCURVE",
"660 84 OFFCURVE",
"660 179 CURVE SMOOTH",
"660 271 OFFCURVE",
"638 392 OFFCURVE",
"585 392 CURVE SMOOTH"
);
},
{
closed = 1;
nodes = (
"338 401 OFFCURVE",
"311 375 OFFCURVE",
"311 342 CURVE SMOOTH",
"311 309 OFFCURVE",
"338 283 OFFCURVE",
"371 283 CURVE SMOOTH",
"405 283 OFFCURVE",
"430 309 OFFCURVE",
"430 342 CURVE SMOOTH",
"430 375 OFFCURVE",
"405 401 OFFCURVE",
"371 401 CURVE SMOOTH"
);
},
{
closed = 1;
nodes = (
"554 644 LINE",
"582 622 OFFCURVE",
"596 598 OFFCURVE",
"596 579 CURVE SMOOTH",
"596 540 OFFCURVE",
"570 508 OFFCURVE",
"537 508 CURVE SMOOTH",
"75 508 LINE",
"75 425 LINE",
"537 425 LINE SMOOTH",
"599 425 OFFCURVE",
"650 478 OFFCURVE",
"650 544 CURVE SMOOTH",
"650 591 OFFCURVE",
"622 637 OFFCURVE",
"578 662 CURVE"
);
}
);
};
layerId = "034236B8-3FA8-43DA-9EDA-EFF269A687EC";
name = Regular;
paths = (
{
closed = 1;
nodes = (
"588 -14 OFFCURVE",
"625 84 OFFCURVE",
"625 179 CURVE SMOOTH",
"625 271 OFFCURVE",
"603 392 OFFCURVE",
"551 392 CURVE SMOOTH",
"526 392 OFFCURVE",
"509 375 OFFCURVE",
"509 352 CURVE SMOOTH",
"509 304 OFFCURVE",
"587 339 OFFCURVE",
"587 202 CURVE SMOOTH",
"587 141 OFFCURVE",
"559 71 OFFCURVE",
"483 71 CURVE",
"418 71 OFFCURVE",
"353 145 OFFCURVE",
"339 221 CURVE",
"330 221 LINE",
"316 145 OFFCURVE",
"251 71 OFFCURVE",
"176 71 CURVE",
"125 71 OFFCURVE",
"93 114 OFFCURVE",
"93 156 CURVE SMOOTH",
"93 203 OFFCURVE",
"119 227 OFFCURVE",
"156 227 CURVE SMOOTH",
"186 227 OFFCURVE",
"211 217 OFFCURVE",
"222 193 CURVE",
"238 208 LINE",
"225 250 OFFCURVE",
"201 287 OFFCURVE",
"153 287 CURVE",
"93 287 OFFCURVE",
"50 232 OFFCURVE",
"50 143 CURVE SMOOTH",
"50 56 OFFCURVE",
"84 -14 OFFCURVE",
"173 -14 CURVE",
"241 -14 OFFCURVE",
"311 43 OFFCURVE",
"334 126 CURVE",
"336 126 LINE",
"359 43 OFFCURVE",
"428 -14 OFFCURVE",
"493 -14 CURVE"
);
},
{
closed = 1;
nodes = (
"557 644 LINE",
"581 635 OFFCURVE",
"603 610 OFFCURVE",
"603 576 CURVE SMOOTH",
"603 536 OFFCURVE",
"572 509 OFFCURVE",
"511 509 CURVE SMOOTH",
"50 509 LINE",
"50 434 LINE",
"511 434 LINE SMOOTH",
"592 434 OFFCURVE",
"646 480 OFFCURVE",
"646 552 CURVE SMOOTH",
"646 607 OFFCURVE",
"615 648 OFFCURVE",
"572 664 CURVE"
);
},
{
closed = 1;
nodes = (
"299 390 OFFCURVE",
"274 363 OFFCURVE",
"274 331 CURVE SMOOTH",
"274 298 OFFCURVE",
"299 271 OFFCURVE",
"333 271 CURVE SMOOTH",
"366 271 OFFCURVE",
"393 298 OFFCURVE",
"393 331 CURVE SMOOTH",
"393 363 OFFCURVE",
"366 390 OFFCURVE",
"333 390 CURVE SMOOTH"
);
},
{
closed = 1;
nodes = (
"402 238 LINE",
"543 57 LINE SMOOTH",
"592 -9 OFFCURVE",
"602 -41 OFFCURVE",
"623 -67 CURVE SMOOTH",
"640 -89 OFFCURVE",
"666 -97 OFFCURVE",
"689 -79 CURVE",
"710 -61 OFFCURVE",
"709 -33 OFFCURVE",
"691 -12 CURVE SMOOTH",
"670 13 OFFCURVE",
"641 30 OFFCURVE",
"587 95 CURVE SMOOTH",
"438 268 LINE"
);
}
);
width = 735;
}
);
unicode = 0CB7;
},
{
color = 3;
glyphname = knSA;
lastChange = "2015-11-28 16:19:18 +0000";
layers = (
{
layerId = "034236B8-3FA8-43DA-9EDA-EFF269A687EC";
rightMetricsKey = "=knDA-10";
name = Regular;
paths = (
{
closed = 1;
nodes = (
"47 118 OFFCURVE",
"115 247 OFFCURVE",
"235 247 CURVE SMOOTH",
"373 247 OFFCURVE",
"376 93 OFFCURVE",
"494 93 CURVE SMOOTH",
"579 93 OFFCURVE",
"588 279 OFFCURVE",
"505 360 CURVE",
"530 377 LINE",
"652 260 OFFCURVE",
"657 -14 OFFCURVE",
"507 -14 CURVE SMOOTH",
"406 -14 OFFCURVE",
"413 153 OFFCURVE",
"235 153 CURVE SMOOTH",
"133 153 OFFCURVE",
"94 78 OFFCURVE",
"71 -14 CURVE",
"35 -3 LINE"
);
},
{
closed = 1;
nodes = (
"531 643 LINE",
"559 625 OFFCURVE",
"568 600 OFFCURVE",
"568 578 CURVE SMOOTH",
"568 537 OFFCURVE",
"537 508 OFFCURVE",
"485 508 CURVE SMOOTH",
"38 508 LINE",
"38 425 LINE",
"485 425 LINE",
"564 425 OFFCURVE",
"621 480 OFFCURVE",
"621 549 CURVE SMOOTH",
"621 594 OFFCURVE",
"598 636 OFFCURVE",
"546 663 CURVE"
);
},
{
closed = 1;
nodes = (
"302 288 OFFCURVE",
"324 314 OFFCURVE",
"324 347 CURVE SMOOTH",
"324 380 OFFCURVE",
"302 404 OFFCURVE",
"266 404 CURVE SMOOTH",
"230 404 OFFCURVE",
"208 380 OFFCURVE",
"208 347 CURVE SMOOTH",
"208 314 OFFCURVE",
"230 288 OFFCURVE",
"266 288 CURVE SMOOTH"
);
}
);
width = 676;
}
);
rightMetricsKey = "=da-kannada-10";
unicode = 0CB8;
},
{
color = 3;
glyphname = knHA;
lastChange = "2015-11-28 16:19:22 +0000";
layers = (
{
layerId = "034236B8-3FA8-43DA-9EDA-EFF269A687EC";
name = Regular;
paths = (
{
closed = 1;
nodes = (
"558 643 LINE",
"586 625 OFFCURVE",
"595 600 OFFCURVE",
"595 578 CURVE SMOOTH",
"595 537 OFFCURVE",
"564 508 OFFCURVE",
"512 508 CURVE SMOOTH",
"65 508 LINE",
"65 425 LINE",
"512 425 LINE",
"591 425 OFFCURVE",
"648 480 OFFCURVE",
"648 549 CURVE SMOOTH",
"648 594 OFFCURVE",
"625 636 OFFCURVE",
"573 663 CURVE"
);
},
{
closed = 1;
nodes = (
"383 252 OFFCURVE",
"430 294 OFFCURVE",
"496 294 CURVE",
"567 294 OFFCURVE",
"609 246 OFFCURVE",
"609 192 CURVE",
"609 127 OFFCURVE",
"564 86 OFFCURVE",
"496 86 CURVE",
"430 86 OFFCURVE",
"383 122 OFFCURVE",
"383 191 CURVE SMOOTH",
"383 275 LINE SMOOTH",
"383 388 OFFCURVE",
"338 450 OFFCURVE",
"233 480 CURVE",
"230 437 LINE",
"310 413 OFFCURVE",
"334 371 OFFCURVE",
"339 263 CURVE SMOOTH",
"344 176 LINE SMOOTH",
"349 92 OFFCURVE",
"399 -14 OFFCURVE",
"502 -14 CURVE",
"600 -14 OFFCURVE",
"659 69 OFFCURVE",
"659 173 CURVE",
"659 272 OFFCURVE",
"594 340 OFFCURVE",
"496 340 CURVE",
"400 340 OFFCURVE",
"344 258 OFFCURVE",
"344 187 CURVE",
"383 191 LINE"
);
},
{
closed = 1;
nodes = (
"382 187 LINE",
"382 258 OFFCURVE",
"326 340 OFFCURVE",
"230 340 CURVE",
"132 340 OFFCURVE",
"67 272 OFFCURVE",
"67 173 CURVE",
"67 69 OFFCURVE",
"126 -14 OFFCURVE",
"224 -14 CURVE",
"327 -14 OFFCURVE",
"377 92 OFFCURVE",
"382 176 CURVE SMOOTH",
"387 263 LINE",
"343 275 LINE",
"343 191 LINE SMOOTH",
"343 127 OFFCURVE",
"302 86 OFFCURVE",
"230 86 CURVE",
"162 86 OFFCURVE",
"118 127 OFFCURVE",
"118 194 CURVE",
"118 246 OFFCURVE",
"155 294 OFFCURVE",
"230 294 CURVE",
"296 294 OFFCURVE",
"343 257 OFFCURVE",
"343 191 CURVE"
);
}
);
width = 719;
}
);
unicode = 0CB9;
},
{
color = 3;
glyphname = knRRA;
lastChange = "2015-11-30 19:43:18 +0000";
layers = (
{
background = {
paths = (
{
closed = 1;
nodes = (
"186 293 LINE",
"634 293 LINE",
"634 354 LINE",
"186 354 LINE"
);
},
{
closed = 1;
nodes = (
"178 71 OFFCURVE",
"112 154 OFFCURVE",
"112 265 CURVE",
"112 396 OFFCURVE",
"156 459 OFFCURVE",
"225 459 CURVE SMOOTH",
"273 459 OFFCURVE",
"297 440 OFFCURVE",
"297 401 CURVE SMOOTH",
"297 375 OFFCURVE",
"279 354 OFFCURVE",
"242 354 CURVE",
"242 293 LINE",
"295 293 OFFCURVE",
"327 335 OFFCURVE",
"327 401 CURVE SMOOTH",
"327 467 OFFCURVE",
"301 519 OFFCURVE",
"230 519 CURVE SMOOTH",
"144 519 OFFCURVE",
"65 421 OFFCURVE",
"65 239 CURVE",
"65 130 OFFCURVE",
"134 -14 OFFCURVE",
"256 -14 CURVE",
"324 -14 OFFCURVE",
"392 43 OFFCURVE",
"415 126 CURVE",
"417 126 LINE",
"440 43 OFFCURVE",
"508 -14 OFFCURVE",
"577 -14 CURVE",
"708 -14 OFFCURVE",
"767 130 OFFCURVE",
"767 239 CURVE",
"767 421 OFFCURVE",
"688 519 OFFCURVE",
"602 519 CURVE SMOOTH",
"531 519 OFFCURVE",
"505 467 OFFCURVE",
"505 401 CURVE SMOOTH",
"505 335 OFFCURVE",
"537 293 OFFCURVE",
"590 293 CURVE",
"590 354 LINE",
"553 354 OFFCURVE",
"535 375 OFFCURVE",
"535 401 CURVE SMOOTH",
"535 440 OFFCURVE",
"559 459 OFFCURVE",
"607 459 CURVE SMOOTH",
"676 459 OFFCURVE",
"720 396 OFFCURVE",
"720 265 CURVE",
"720 154 OFFCURVE",
"655 71 OFFCURVE",
"573 71 CURVE",
"500 71 OFFCURVE",
"435 145 OFFCURVE",
"421 221 CURVE",
"412 221 LINE",
"399 146 OFFCURVE",
"333 71 OFFCURVE",
"260 71 CURVE"
);
}
);
};
layerId = "034236B8-3FA8-43DA-9EDA-EFF269A687EC";
leftMetricsKey = "=knCHA";
rightMetricsKey = "=|knCHA";
name = Regular;
paths = (
{
closed = 1;
nodes = (
"192 354 LINE",
"192 293 LINE",
"640 293 LINE",
"640 354 LINE"
);
},
{
closed = 1;
nodes = (
"499 71 OFFCURVE",
"433 146 OFFCURVE",
"420 221 CURVE",
"411 221 LINE",
"397 145 OFFCURVE",
"332 71 OFFCURVE",
"259 71 CURVE",
"177 71 OFFCURVE",
"112 154 OFFCURVE",
"112 265 CURVE",
"112 396 OFFCURVE",
"156 459 OFFCURVE",
"225 459 CURVE SMOOTH",
"273 459 OFFCURVE",
"297 440 OFFCURVE",
"297 401 CURVE SMOOTH",
"297 375 OFFCURVE",
"279 354 OFFCURVE",
"242 354 CURVE",
"242 293 LINE",
"295 293 OFFCURVE",
"327 335 OFFCURVE",
"327 401 CURVE SMOOTH",
"327 467 OFFCURVE",
"301 519 OFFCURVE",
"230 519 CURVE SMOOTH",
"144 519 OFFCURVE",
"65 421 OFFCURVE",
"65 239 CURVE",
"65 130 OFFCURVE",
"128 -14 OFFCURVE",
"255 -14 CURVE",
"324 -14 OFFCURVE",
"392 43 OFFCURVE",
"415 126 CURVE",
"417 126 LINE",
"440 43 OFFCURVE",
"508 -14 OFFCURVE",
"576 -14 CURVE",
"702 -14 OFFCURVE",
"767 130 OFFCURVE",
"767 239 CURVE",
"767 421 OFFCURVE",
"688 519 OFFCURVE",
"602 519 CURVE SMOOTH",
"531 519 OFFCURVE",
"505 467 OFFCURVE",
"505 401 CURVE SMOOTH",
"505 335 OFFCURVE",
"537 293 OFFCURVE",
"590 293 CURVE",
"590 354 LINE",
"553 354 OFFCURVE",
"535 375 OFFCURVE",
"535 401 CURVE SMOOTH",
"535 440 OFFCURVE",
"559 459 OFFCURVE",
"607 459 CURVE SMOOTH",
"676 459 OFFCURVE",
"720 396 OFFCURVE",
"720 265 CURVE",
"720 154 OFFCURVE",
"654 71 OFFCURVE",
"572 71 CURVE"
);
}
);
width = 832;
}
);
leftMetricsKey = "=cha-kannada";
rightMetricsKey = "=cha-kannada";
unicode = 0CB1;
},
{
color = 3;
glyphname = knLLA;
lastChange = "2015-11-28 16:19:41 +0000";
layers = (
{
layerId = "034236B8-3FA8-43DA-9EDA-EFF269A687EC";
name = Regular;
paths = (
{
closed = 1;
nodes = (
"82 440 OFFCURVE",
"128 459 OFFCURVE",
"206 459 CURVE SMOOTH",
"251 459 OFFCURVE",
"267 445 OFFCURVE",
"267 429 CURVE SMOOTH",
"267 413 OFFCURVE",
"246 400 OFFCURVE",
"210 400 CURVE SMOOTH",
"168 400 OFFCURVE",
"152 418 OFFCURVE",
"152 441 CURVE SMOOTH",
"152 464 OFFCURVE",
"160 471 OFFCURVE",
"167 477 CURVE",
"143 482 LINE",
"131 460 OFFCURVE",
"122 450 OFFCURVE",
"122 414 CURVE SMOOTH",
"122 364 OFFCURVE",
"152 329 OFFCURVE",
"201 329 CURVE SMOOTH",
"265 329 OFFCURVE",
"297 373 OFFCURVE",
"297 429 CURVE SMOOTH",
"297 482 OFFCURVE",
"271 519 OFFCURVE",
"201 519 CURVE SMOOTH",
"114 519 OFFCURVE",
"35 460 OFFCURVE",
"35 363 CURVE",
"35 137 OFFCURVE",
"350 227 OFFCURVE",
"350 126 CURVE",
"350 103 OFFCURVE",
"339 91 OFFCURVE",
"319 91 CURVE",
"298 91 OFFCURVE",
"287 102 OFFCURVE",
"287 122 CURVE",
"287 203 OFFCURVE",
"556 206 OFFCURVE",
"556 354 CURVE SMOOTH",
"556 432 OFFCURVE",
"490 487 OFFCURVE",
"392 487 CURVE",
"392 450 LINE",
"472 450 OFFCURVE",
"517 423 OFFCURVE",
"517 354 CURVE SMOOTH",
"517 222 OFFCURVE",
"229 235 OFFCURVE",
"229 86 CURVE",
"229 28 OFFCURVE",
"264 -14 OFFCURVE",
"325 -14 CURVE",
"392 -14 OFFCURVE",
"426 34 OFFCURVE",
"426 97 CURVE SMOOTH",
"426 321 OFFCURVE",
"82 203 OFFCURVE",
"82 375 CURVE"
);
},
{
closed = 1;
nodes = (
"485 643 LINE",
"512 625 OFFCURVE",
"521 600 OFFCURVE",
"521 578 CURVE SMOOTH",
"521 537 OFFCURVE",
"490 508 OFFCURVE",
"439 508 CURVE SMOOTH",
"362 508 LINE",
"362 425 LINE",
"464 425 LINE SMOOTH",
"543 425 OFFCURVE",
"574 480 OFFCURVE",
"574 549 CURVE SMOOTH",
"574 594 OFFCURVE",
"551 636 OFFCURVE",
"500 663 CURVE"
);
}
);
width = 604;
},
{
associatedMasterId = "034236B8-3FA8-43DA-9EDA-EFF269A687EC";
background = {
paths = (
{
closed = 0;
nodes = (
"602 83 LINE",
"602 209 OFFCURVE",
"852 194 OFFCURVE",
"852 311 CURVE SMOOTH",
"852 366 OFFCURVE",
"820 388 OFFCURVE",
"789 388 CURVE",
"771 427 LINE",
"839 427 OFFCURVE",
"883 380 OFFCURVE",
"883 300 CURVE SMOOTH",
"883 174 OFFCURVE",
"654 179 OFFCURVE",
"654 102 CURVE"
);
},
{
closed = 0;
nodes = (
"75 304 LINE",
"75 361 OFFCURVE",
"115 397 OFFCURVE",
"173 397 CURVE SMOOTH",
"215 397 OFFCURVE",
"236 381 OFFCURVE",
"236 347 CURVE SMOOTH",
"236 324 OFFCURVE",
"220 306 OFFCURVE",
"188 306 CURVE SMOOTH",
"160 306 OFFCURVE",
"136 322 OFFCURVE",
"136 362 CURVE SMOOTH",
"136 382 OFFCURVE",
"140 403 OFFCURVE",
"149 413 CURVE",
"128 417 LINE",
"117 398 OFFCURVE",
"110 370 OFFCURVE",
"110 338 CURVE SMOOTH",
"110 275 OFFCURVE",
"146 244 OFFCURVE",
"188 244 CURVE SMOOTH",
"234 244 OFFCURVE",
"262 290 OFFCURVE",
"262 347 CURVE SMOOTH",
"262 404 OFFCURVE",
"239 450 OFFCURVE",
"178 450 CURVE SMOOTH",
"103 450 OFFCURVE",
"34 378 OFFCURVE",
"34 294 CURVE"
);
},
{
closed = 1;
nodes = (
"447 567 LINE",
"471 552 OFFCURVE",
"479 530 OFFCURVE",
"479 511 CURVE SMOOTH",
"479 475 OFFCURVE",
"452 450 OFFCURVE",
"407 450 CURVE SMOOTH",
"308 450 LINE",
"308 378 LINE",
"407 378 LINE",
"476 378 OFFCURVE",
"525 426 OFFCURVE",
"525 486 CURVE SMOOTH",
"525 525 OFFCURVE",
"505 561 OFFCURVE",
"460 585 CURVE"
);
},
{
closed = 0;
nodes = (
"243 84 LINE",
"243 195 OFFCURVE",
"488 157.003 OFFCURVE",
"488 306 CURVE",
"488 373.903 OFFCURVE",
"429.889 432 OFFCURVE",
"344 432 CURVE",
"344 410 LINE",
"404 410 OFFCURVE",
"451 366 OFFCURVE",
"451 306 CURVE",
"451 191 OFFCURVE",
"203 213 OFFCURVE",
"203 84 CURVE"
);
}
);
};
layerId = "FBCCC402-C4FF-4F03-A8F7-176D79FB55DA";
name = "Regular Oct 30 15, 12:54";
paths = (
{
closed = 0;
nodes = (
"602 83 LINE",
"602 209 OFFCURVE",
"852 194 OFFCURVE",
"852 311 CURVE SMOOTH",
"852 366 OFFCURVE",
"820 388 OFFCURVE",
"789 388 CURVE",
"771 427 LINE",
"839 427 OFFCURVE",
"883 380 OFFCURVE",
"883 300 CURVE SMOOTH",
"883 174 OFFCURVE",
"654 179 OFFCURVE",
"654 102 CURVE"
);
},
{
closed = 1;
nodes = (
"75 361 OFFCURVE",
"115 397 OFFCURVE",
"173 397 CURVE SMOOTH",
"215 397 OFFCURVE",
"236 381 OFFCURVE",
"236 347 CURVE SMOOTH",
"236 324 OFFCURVE",
"220 306 OFFCURVE",
"188 306 CURVE SMOOTH",
"160 306 OFFCURVE",
"136 322 OFFCURVE",
"136 362 CURVE SMOOTH",
"136 382 OFFCURVE",
"140 403 OFFCURVE",
"149 413 CURVE",
"128 417 LINE",
"117 398 OFFCURVE",
"110 370 OFFCURVE",
"110 338 CURVE SMOOTH",
"110 275 OFFCURVE",
"146 244 OFFCURVE",
"188 244 CURVE SMOOTH",
"234 244 OFFCURVE",
"262 290 OFFCURVE",
"262 347 CURVE SMOOTH",
"262 404 OFFCURVE",
"239 450 OFFCURVE",
"178 450 CURVE SMOOTH",
"103 450 OFFCURVE",
"34 378 OFFCURVE",
"34 294 CURVE",
"34 67 OFFCURVE",
"316 146 OFFCURVE",
"316 98 CURVE",
"316 86 OFFCURVE",
"301 77 OFFCURVE",
"282 77 CURVE",
"263 77 OFFCURVE",
"253 85 OFFCURVE",
"253 104 CURVE",
"253 175 OFFCURVE",
"487 177 OFFCURVE",
"487 306 CURVE",
"487 374 OFFCURVE",
"430 432 OFFCURVE",
"344 432 CURVE",
"344 400 LINE",
"414 400 OFFCURVE",
"453 366 OFFCURVE",
"453 306 CURVE",
"453 191 OFFCURVE",
"203 213 OFFCURVE",
"203 63 CURVE",
"203 23 OFFCURVE",
"233 -14 OFFCURVE",
"286 -14 CURVE",
"344 -14 OFFCURVE",
"374 28 OFFCURVE",
"374 63 CURVE SMOOTH",
"374 243 OFFCURVE",
"75 135 OFFCURVE",
"75 304 CURVE"
);
},
{
closed = 1;
nodes = (
"447 567 LINE",
"471 552 OFFCURVE",
"479 530 OFFCURVE",
"479 511 CURVE SMOOTH",
"479 475 OFFCURVE",
"452 450 OFFCURVE",
"407 450 CURVE SMOOTH",
"308 450 LINE",
"308 378 LINE",
"407 378 LINE",
"476 378 OFFCURVE",
"525 426 OFFCURVE",
"525 486 CURVE SMOOTH",
"525 525 OFFCURVE",
"505 561 OFFCURVE",
"460 585 CURVE"
);
}
);
width = 540;
}
);
unicode = 0CB3;
},
{
color = 3;
glyphname = knLLLA;
lastChange = "2015-11-30 19:45:11 +0000";
layers = (
{
background = {
paths = (
{
closed = 0;
nodes = (
"406 221 LINE",
"396 221 LINE",
"384 146 OFFCURVE",
"318 71 OFFCURVE",
"245 71 CURVE SMOOTH",
"154 71 OFFCURVE",
"108 149 OFFCURVE",
"108 263 CURVE SMOOTH",
"108 331 OFFCURVE",
"125 392 OFFCURVE",
"158 425 CURVE",
"156 414 OFFCURVE",
"155 401 OFFCURVE",
"155 389 CURVE SMOOTH",
"155 316 OFFCURVE",
"196 281 OFFCURVE",
"245 281 CURVE SMOOTH",
"298 281 OFFCURVE",
"330 333 OFFCURVE",
"330 399 CURVE SMOOTH",
"330 465 OFFCURVE",
"303 517 OFFCURVE",
"233 517 CURVE SMOOTH",
"140 517 OFFCURVE",
"66 397 OFFCURVE",
"66 263 CURVE SMOOTH",
"66 75 OFFCURVE",
"126 -14 OFFCURVE",
"240 -14 CURVE SMOOTH",
"309 -14 OFFCURVE",
"377 43 OFFCURVE",
"400 126 CURVE",
"402 126 LINE"
);
},
{
closed = 1;
nodes = (
"300 373 OFFCURVE",
"281 352 OFFCURVE",
"245 352 CURVE SMOOTH",
"212 352 OFFCURVE",
"185 370 OFFCURVE",
"185 416 CURVE SMOOTH",
"185 427 OFFCURVE",
"186 438 OFFCURVE",
"188 448 CURVE",
"200 453 OFFCURVE",
"214 457 OFFCURVE",
"227 457 CURVE SMOOTH",
"276 457 OFFCURVE",
"300 438 OFFCURVE",
"300 399 CURVE SMOOTH"
);
}
);
};
layerId = "034236B8-3FA8-43DA-9EDA-EFF269A687EC";
leftMetricsKey = "=knDA";
rightMetricsKey = "=knCHA";
name = Regular;
paths = (
{
closed = 1;
nodes = (
"300 373 OFFCURVE",
"281 352 OFFCURVE",
"245 352 CURVE SMOOTH",
"212 352 OFFCURVE",
"185 370 OFFCURVE",
"185 416 CURVE SMOOTH",
"185 427 OFFCURVE",
"186 438 OFFCURVE",
"188 448 CURVE",
"200 453 OFFCURVE",
"214 457 OFFCURVE",
"227 457 CURVE SMOOTH",
"276 457 OFFCURVE",
"300 438 OFFCURVE",
"300 399 CURVE SMOOTH"
);
},
{
closed = 1;
nodes = (
"425 43 OFFCURVE",
"493 -14 OFFCURVE",
"562 -14 CURVE SMOOTH",
"676 -14 OFFCURVE",
"736 75 OFFCURVE",
"736 263 CURVE SMOOTH",
"736 397 OFFCURVE",
"662 517 OFFCURVE",
"569 517 CURVE SMOOTH",
"499 517 OFFCURVE",
"472 465 OFFCURVE",
"472 399 CURVE SMOOTH",
"472 333 OFFCURVE",
"504 281 OFFCURVE",
"557 281 CURVE SMOOTH",
"606 281 OFFCURVE",
"647 316 OFFCURVE",
"647 389 CURVE SMOOTH",
"647 401 OFFCURVE",
"646 414 OFFCURVE",
"644 425 CURVE",
"677 392 OFFCURVE",
"694 331 OFFCURVE",
"694 263 CURVE SMOOTH",
"694 149 OFFCURVE",
"648 71 OFFCURVE",
"557 71 CURVE SMOOTH",
"484 71 OFFCURVE",
"418 146 OFFCURVE",
"406 221 CURVE",
"396 221 LINE",
"384 146 OFFCURVE",
"318 71 OFFCURVE",
"245 71 CURVE SMOOTH",
"154 71 OFFCURVE",
"108 149 OFFCURVE",
"108 263 CURVE SMOOTH",
"108 331 OFFCURVE",
"125 392 OFFCURVE",
"158 425 CURVE",
"156 414 OFFCURVE",
"155 401 OFFCURVE",
"155 389 CURVE SMOOTH",
"155 316 OFFCURVE",
"196 281 OFFCURVE",
"245 281 CURVE SMOOTH",
"298 281 OFFCURVE",
"330 333 OFFCURVE",
"330 399 CURVE SMOOTH",
"330 465 OFFCURVE",
"303 517 OFFCURVE",
"233 517 CURVE SMOOTH",
"140 517 OFFCURVE",
"66 397 OFFCURVE",
"66 263 CURVE SMOOTH",
"66 75 OFFCURVE",
"126 -14 OFFCURVE",
"240 -14 CURVE SMOOTH",
"309 -14 OFFCURVE",
"377 43 OFFCURVE",
"400 126 CURVE",
"402 126 LINE"
);
},
{
closed = 1;
nodes = (
"512 438 OFFCURVE",
"536 457 OFFCURVE",
"585 457 CURVE SMOOTH",
"598 457 OFFCURVE",
"612 453 OFFCURVE",
"624 448 CURVE",
"626 438 OFFCURVE",
"627 427 OFFCURVE",
"627 416 CURVE SMOOTH",
"627 370 OFFCURVE",
"600 352 OFFCURVE",
"567 352 CURVE SMOOTH",
"531 352 OFFCURVE",
"512 373 OFFCURVE",
"512 399 CURVE SMOOTH"
);
}
);
width = 812;
}
);
leftMetricsKey = "=cha-kannada";
rightMetricsKey = "=cha-kannada";
unicode = 0CDE;
},
{
color = 3;
glyphname = knAnusvara;
lastChange = "2015-11-28 16:20:14 +0000";
layers = (
{
layerId = "034236B8-3FA8-43DA-9EDA-EFF269A687EC";
name = Regular;
paths = (
{
closed = 1;
nodes = (
"88 396 OFFCURVE",
"173 515 OFFCURVE",
"278 515 CURVE SMOOTH",
"383 515 OFFCURVE",
"468 396 OFFCURVE",
"468 249 CURVE SMOOTH",
"468 103 OFFCURVE",
"383 -14 OFFCURVE",
"278 -14 CURVE SMOOTH",
"173 -14 OFFCURVE",
"88 103 OFFCURVE",
"88 249 CURVE SMOOTH"
);
},
{
closed = 1;
nodes = (
"135 172 OFFCURVE",
"199 100 OFFCURVE",
"278 100 CURVE SMOOTH",
"357 100 OFFCURVE",
"421 168 OFFCURVE",
"421 249 CURVE SMOOTH",
"421 348 OFFCURVE",
"357 425 OFFCURVE",
"278 425 CURVE SMOOTH",
"199 425 OFFCURVE",
"135 353 OFFCURVE",
"135 262 CURVE SMOOTH"
);
}
);
width = 556;
}
);
unicode = 0C82;
},
{
color = 3;
glyphname = knCandrabindu;
lastChange = "2015-11-28 15:50:00 +0000";
layers = (
{
background = {
paths = (
{
closed = 1;
nodes = (
"0 710 CURVE",
"-70 710 OFFCURVE",
"-105 754 OFFCURVE",
"-105 807 CURVE",
"-166 807 LINE",
"-166 724 OFFCURVE",
"-108 659 OFFCURVE",
"0 659 CURVE",
"108 659 OFFCURVE",
"166 724 OFFCURVE",
"166 807 CURVE",
"105 807 LINE",
"105 754 OFFCURVE",
"70 710 OFFCURVE"
);
},
{
closed = 1;
nodes = (
"47 865 CURVE SMOOTH",
"47 839 OFFCURVE",
"27 819 OFFCURVE",
"0 819 CURVE SMOOTH",
"-28 819 OFFCURVE",
"-46 839 OFFCURVE",
"-46 865 CURVE SMOOTH",
"-46 892 OFFCURVE",
"-28 912 OFFCURVE",
"0 912 CURVE SMOOTH",
"27 912 OFFCURVE",
"47 892 OFFCURVE"
);
}
);
};
layerId = "034236B8-3FA8-43DA-9EDA-EFF269A687EC";
name = Regular;
width = 0;
}
);
unicode = 0C81;
},
{
color = 3;
glyphname = knVisarga;
lastChange = "2015-11-28 16:20:21 +0000";
layers = (
{
layerId = "034236B8-3FA8-43DA-9EDA-EFF269A687EC";
name = Regular;
paths = (
{
closed = 1;
nodes = (
"88 436 OFFCURVE",
"130 484 OFFCURVE",
"182 484 CURVE SMOOTH",
"235 484 OFFCURVE",
"277 436 OFFCURVE",
"277 377 CURVE SMOOTH",
"277 319 OFFCURVE",
"235 271 OFFCURVE",
"182 271 CURVE SMOOTH",
"130 271 OFFCURVE",
"88 319 OFFCURVE",
"88 377 CURVE SMOOTH"
);
},
{
closed = 1;
nodes = (
"123 344 OFFCURVE",
"150 318 OFFCURVE",
"182 318 CURVE SMOOTH",
"215 318 OFFCURVE",
"242 344 OFFCURVE",
"242 377 CURVE SMOOTH",
"242 410 OFFCURVE",
"215 437 OFFCURVE",
"182 437 CURVE SMOOTH",
"150 437 OFFCURVE",
"123 410 OFFCURVE",
"123 377 CURVE SMOOTH"
);
},
{
closed = 1;
nodes = (
"88 151 OFFCURVE",
"130 200 OFFCURVE",
"182 200 CURVE SMOOTH",
"235 200 OFFCURVE",
"277 151 OFFCURVE",
"277 93 CURVE SMOOTH",
"277 35 OFFCURVE",
"235 -14 OFFCURVE",
"182 -14 CURVE SMOOTH",
"130 -14 OFFCURVE",
"88 35 OFFCURVE",
"88 93 CURVE SMOOTH"
);
},
{
closed = 1;
nodes = (
"123 59 OFFCURVE",
"150 34 OFFCURVE",
"182 34 CURVE SMOOTH",
"215 34 OFFCURVE",
"242 59 OFFCURVE",
"242 93 CURVE SMOOTH",
"242 126 OFFCURVE",
"215 153 OFFCURVE",
"182 153 CURVE SMOOTH",
"150 153 OFFCURVE",
"123 126 OFFCURVE",
"123 93 CURVE SMOOTH"
);
}
);
width = 365;
}
);
unicode = 0C83;
},
{
color = 3;
glyphname = knVirama;
lastChange = "2015-11-28 16:27:52 +0000";
layers = (
{
layerId = "034236B8-3FA8-43DA-9EDA-EFF269A687EC";
name = Regular;
paths = (
{
closed = 1;
nodes = (
"169 267 OFFCURVE",
"195 304 OFFCURVE",
"195 361 CURVE SMOOTH",
"195 445 OFFCURVE",
"126 509 OFFCURVE",
"35 509 CURVE SMOOTH",
"-242 509 LINE",
"-242 426 LINE",
"70 426 LINE SMOOTH",
"127 426 OFFCURVE",
"164 410 OFFCURVE",
"164 371 CURVE SMOOTH",
"164 343 OFFCURVE",
"146 326 OFFCURVE",
"110 326 CURVE",
"62 326 OFFCURVE",
"45 357 OFFCURVE",
"45 420 CURVE SMOOTH",
"45 518 OFFCURVE",
"126 584 OFFCURVE",
"222 584 CURVE",
"254 584 LINE",
"254 614 LINE",
"207 614 LINE",
"112 614 OFFCURVE",
"10 534 OFFCURVE",
"10 415 CURVE SMOOTH",
"10 349 OFFCURVE",
"35 267 OFFCURVE",
"117 267 CURVE SMOOTH"
);
}
);
width = 334;
}
);
unicode = 0CCD;
},
{
color = 3;
glyphname = knNukta;
lastChange = "2015-11-28 16:20:36 +0000";
layers = (
{
background = {
paths = (
{
closed = 1;
nodes = (
"338 -168 CURVE SMOOTH",
"366 -168 OFFCURVE",
"387 -147 OFFCURVE",
"387 -120 CURVE SMOOTH",
"387 -93 OFFCURVE",
"366 -73 OFFCURVE",
"338 -73 CURVE SMOOTH",
"311 -73 OFFCURVE",
"290 -93 OFFCURVE",
"290 -120 CURVE SMOOTH",
"290 -147 OFFCURVE",
"311 -168 OFFCURVE"
);
},
{
closed = 1;
nodes = (
"118 -168 CURVE SMOOTH",
"146 -168 OFFCURVE",
"166 -147 OFFCURVE",
"166 -120 CURVE SMOOTH",
"166 -93 OFFCURVE",
"146 -73 OFFCURVE",
"118 -73 CURVE SMOOTH",
"92 -73 OFFCURVE",
"71 -93 OFFCURVE",
"71 -120 CURVE SMOOTH",
"71 -147 OFFCURVE",
"92 -168 OFFCURVE"
);
}
);
};
layerId = "034236B8-3FA8-43DA-9EDA-EFF269A687EC";
name = Regular;
width = 506;
}
);
unicode = 0CBC;
},
{
color = 3;
glyphname = knAvagraha;
lastChange = "2015-11-28 16:20:45 +0000";
layers = (
{
layerId = "034236B8-3FA8-43DA-9EDA-EFF269A687EC";
name = Regular;
paths = (
{
closed = 1;
nodes = (
"365 437 LINE",
"365 519 LINE",
"170 519 LINE SMOOTH",
"92 519 OFFCURVE",
"47 467 OFFCURVE",
"47 413 CURVE SMOOTH",
"47 380 OFFCURVE",
"53 354 OFFCURVE",
"72 331 CURVE SMOOTH",
"135 258 OFFCURVE",
"320 229 OFFCURVE",
"320 150 CURVE SMOOTH",
"320 116 OFFCURVE",
"287 93 OFFCURVE",
"229 93 CURVE SMOOTH",
"147 93 OFFCURVE",
"94 126 OFFCURVE",
"68 178 CURVE",
"44 154 LINE",
"56 45 OFFCURVE",
"124 -14 OFFCURVE",
"215 -14 CURVE SMOOTH",
"298 -14 OFFCURVE",
"370 40 OFFCURVE",
"370 127 CURVE SMOOTH",
"370 284 OFFCURVE",
"99 288 OFFCURVE",
"99 383 CURVE SMOOTH",
"99 411 OFFCURVE",
"121 437 OFFCURVE",
"173 437 CURVE SMOOTH"
);
}
);
width = 415;
}
);
unicode = 0CBD;
},
